<svg width="286" height="35" viewBox="0 0 286 35" fill="none" xmlns="http://www.w3.org/2000/svg">
<path d="M268.79 22.5555C268.399 22.5769 268.004 22.5916 267.621 22.6237C267.373 22.6437 267.266 22.5849 267.1 22.5542C267.045 22.5435 266.986 22.5221 266.934 22.5248C266.547 22.5462 266.161 22.5702 265.774 22.5943C265.655 22.6464 265.58 22.7159 265.398 22.7413C265.221 22.7653 265.012 22.7653 264.814 22.7773C264.554 22.792 264.293 22.8067 264.032 22.8201C263.902 22.8268 263.795 22.8522 263.752 22.9003C263.744 22.9083 263.831 22.9283 263.878 22.9404C264.036 22.9804 264.19 23.0259 264.364 23.0566C264.53 23.086 264.735 23.0379 264.913 23.0753C265.312 23.1595 265.316 23.1582 265.62 23.1421C265.88 23.1274 266.141 23.1114 266.401 23.1007C266.453 23.098 266.512 23.1181 266.567 23.1288C266.733 23.1582 266.84 23.225 267.085 23.1996C267.27 23.1795 267.475 23.1755 267.669 23.1648C267.831 23.2036 267.981 23.2477 268.155 23.2784C268.316 23.3078 268.364 23.3305 268.277 23.3693C268.198 23.4054 268.087 23.4201 267.941 23.4227C267.811 23.4241 267.681 23.4361 267.55 23.4428C267.483 23.4468 267.42 23.4495 267.357 23.4535C267.108 23.4682 267.108 23.4682 266.654 23.3826C266.476 23.3492 266.275 23.396 266.105 23.3639C265.991 23.3426 265.892 23.3105 265.781 23.2878C265.734 23.2784 265.659 23.2771 265.6 23.2798C265.402 23.2891 265.205 23.2958 265.016 23.3132C264.881 23.3252 264.802 23.3626 264.818 23.4C264.822 23.4147 264.917 23.4361 264.972 23.4374C265.098 23.4401 265.233 23.4214 265.355 23.4307C265.473 23.4401 265.596 23.4668 265.683 23.4962C265.86 23.5577 266.062 23.5029 266.232 23.5189C266.409 23.5363 266.555 23.5898 266.725 23.6218C266.769 23.6298 266.851 23.6165 266.919 23.6125C267.112 23.6031 267.306 23.5951 267.499 23.5858C267.661 23.6245 267.835 23.6592 267.981 23.7033C268.245 23.7835 268.53 23.8142 268.873 23.7755C269.067 23.7541 269.256 23.7621 269.41 23.8142C269.568 23.8677 269.75 23.8623 269.951 23.8517C270.137 23.841 270.326 23.8116 270.516 23.849C270.926 23.9318 270.93 23.9358 271.416 23.9038C271.562 23.8944 271.673 23.8917 271.783 23.9225C271.886 23.9505 271.996 23.9746 272.103 24.0013C272.296 23.992 272.494 23.9826 272.687 23.9719C272.936 23.9572 273.074 23.9759 273.133 24.0507C273.169 24.0962 273.185 24.1376 273.272 24.1683C273.374 24.2057 273.485 24.2044 273.635 24.1937C273.777 24.1844 273.88 24.1697 273.939 24.1216C273.963 24.1015 274.01 24.0828 274.054 24.0668C274.089 24.0548 274.144 24.0361 274.176 24.0387C274.235 24.0441 274.314 24.0588 274.334 24.0761C274.527 24.2378 274.527 24.2392 274.725 24.2859C274.942 24.338 275.167 24.3848 275.364 24.4436C275.542 24.4957 275.72 24.473 275.913 24.473C276.059 24.473 276.154 24.5077 276.142 24.5425C276.134 24.5625 276.079 24.5919 276.032 24.5946C275.645 24.6213 275.254 24.644 274.863 24.6627C274.816 24.6654 274.756 24.6413 274.701 24.6293C274.591 24.6053 274.492 24.5679 274.373 24.5598C274.255 24.5518 274.117 24.5719 273.986 24.5785C273.856 24.5852 273.718 24.6026 273.599 24.5919C273.481 24.5812 273.386 24.5425 273.276 24.5171C273.224 24.5051 273.153 24.4877 273.11 24.4917C272.822 24.5238 272.608 24.4797 272.403 24.4209C272.36 24.4089 272.285 24.4008 272.229 24.4035C271.771 24.4262 271.317 24.4529 270.859 24.4783C270.674 24.489 270.524 24.4423 270.484 24.3634C270.464 24.3193 270.425 24.2752 270.425 24.2311C270.425 24.151 270.208 24.1069 270.05 24.1162C269.789 24.1296 269.525 24.1403 269.268 24.1603C269.059 24.1763 268.881 24.1603 268.739 24.1122C268.573 24.0574 268.384 24.0681 268.194 24.0828C268.052 24.0935 268.012 24.1376 268.02 24.2485C268.028 24.338 267.961 24.3661 267.704 24.3808C267.381 24.3995 267.053 24.4182 266.725 24.4329C266.674 24.4356 266.615 24.4129 266.563 24.4008C266.453 24.3768 266.354 24.338 266.236 24.33C266.117 24.3207 265.979 24.3407 265.849 24.3487C265.718 24.3554 265.58 24.3741 265.462 24.3648C265.343 24.3554 265.244 24.3153 265.138 24.2899C265.087 24.2779 265.023 24.2605 264.972 24.2632C264.711 24.2739 264.451 24.2899 264.19 24.3046C263.898 24.3207 263.898 24.3207 263.483 24.2378C263.294 24.2004 263.104 24.2298 262.919 24.2405C262.721 24.2512 262.536 24.2565 262.382 24.2031C262.279 24.1683 262.165 24.147 262.042 24.1536C261.715 24.1697 261.391 24.1897 261.063 24.2058C261.008 24.2084 260.933 24.2017 260.889 24.1897C260.68 24.1336 260.475 24.0895 260.183 24.1176C259.93 24.1416 259.657 24.1429 259.405 24.1657C259.267 24.1777 259.203 24.2204 259.231 24.2539C259.247 24.2712 259.33 24.2913 259.385 24.2913C259.511 24.2926 259.65 24.2726 259.768 24.2806C260.013 24.2966 260.135 24.4088 260.455 24.3781C260.645 24.3594 260.842 24.3527 261.039 24.3474C261.091 24.346 261.146 24.3714 261.201 24.3848C261.359 24.4209 261.497 24.4676 261.726 24.4436C261.916 24.4249 262.117 24.4195 262.311 24.4089C262.619 24.3915 262.619 24.3928 263.018 24.4743C263.207 24.5131 263.397 24.4823 263.582 24.473C263.72 24.4663 263.851 24.453 263.961 24.4717C264.131 24.4997 264.253 24.5638 264.463 24.5598C264.66 24.5558 264.854 24.5371 265.051 24.5304C265.173 24.5264 265.288 24.5478 265.387 24.5839C265.489 24.62 265.6 24.636 265.734 24.628C265.928 24.6173 266.125 24.6039 266.322 24.5973C266.378 24.5959 266.441 24.6079 266.492 24.6186C266.603 24.6427 266.709 24.6707 266.816 24.6961C267.009 24.6881 267.207 24.6854 267.396 24.6694C267.543 24.6574 267.645 24.6627 267.764 24.6895C267.914 24.7255 268.036 24.7897 268.281 24.7589C268.403 24.7442 268.545 24.7482 268.668 24.7349C268.818 24.7175 268.921 24.7242 269.027 24.7643C269.228 24.8404 269.481 24.8418 269.742 24.8124C270.026 24.7803 270.239 24.8177 270.453 24.8765C270.678 24.938 270.678 24.9367 270.851 25.085C270.903 25.1277 271.049 25.1478 271.171 25.1398C271.376 25.1264 271.554 25.1331 271.704 25.1838C271.862 25.2386 272.052 25.232 272.245 25.2173C272.502 25.1972 272.758 25.1798 272.968 25.2573C273.07 25.2948 273.181 25.3041 273.319 25.2947C273.71 25.2707 274.105 25.256 274.488 25.2266C274.721 25.2079 274.855 25.2507 275.013 25.2867C275.226 25.3362 275.459 25.3803 275.459 25.4858C275.459 25.5032 275.514 25.5232 275.562 25.5366C275.665 25.5647 275.775 25.5887 275.882 25.6154C276.04 25.6555 276.194 25.6889 276.411 25.6676C276.6 25.6502 276.802 25.6448 276.995 25.6328C277.189 25.6208 277.366 25.6141 277.54 25.6649C277.741 25.7223 277.955 25.7771 278.184 25.8199C278.345 25.8506 278.559 25.7985 278.732 25.8399C278.839 25.8653 278.942 25.8947 279.056 25.9161C279.104 25.9254 279.179 25.9188 279.242 25.9161C279.372 25.9107 279.506 25.9067 279.633 25.8934C279.779 25.8787 279.889 25.8814 280 25.9121C280.103 25.9402 280.205 25.9789 280.324 25.9869C280.501 25.9989 280.699 25.9455 280.876 26.007C280.967 26.0377 281.082 26.0671 281.2 26.0764C281.319 26.0858 281.457 26.0657 281.583 26.0671C281.639 26.0671 281.706 26.0885 281.737 26.1058C281.757 26.1152 281.729 26.1406 281.702 26.1539C281.666 26.17 281.615 26.1914 281.564 26.194C281.173 26.2181 280.782 26.2381 280.391 26.2608C280.158 26.2742 280.158 26.2742 279.688 26.19C279.577 26.17 279.455 26.174 279.317 26.1833C279.131 26.1954 278.942 26.2181 278.748 26.194C278.496 26.1032 278.184 26.0951 277.852 26.1299C277.714 26.1446 277.587 26.1446 277.485 26.1192C277.268 26.0684 277.039 26.0217 276.845 25.9615C276.695 25.9148 276.624 25.9108 276.561 25.9749C276.541 25.9949 276.521 26.0163 276.525 26.035C276.549 26.1018 276.592 26.1673 276.616 26.2341C276.624 26.2528 276.592 26.2742 276.573 26.2942C276.51 26.3504 276.427 26.3463 276.288 26.2996C276.15 26.2528 275.984 26.2221 275.763 26.2435C275.574 26.2622 275.368 26.2595 275.179 26.2795C274.887 26.3089 274.681 26.2662 274.472 26.2087C274.429 26.1967 274.354 26.19 274.298 26.1927C273.71 26.2234 273.126 26.2582 272.537 26.2889C272.411 26.2956 272.296 26.2755 272.198 26.2395C272.095 26.2034 271.981 26.1847 271.854 26.1914C271.333 26.2194 270.812 26.2448 270.291 26.2795C270.077 26.2942 269.908 26.2769 269.762 26.2301C269.651 26.1954 269.548 26.1847 269.41 26.1887C269.26 26.1927 269.154 26.2061 269.078 26.2448C269.007 26.2822 269.059 26.3049 269.217 26.3343C269.386 26.3664 269.544 26.4078 269.706 26.4452C269.837 26.4399 269.967 26.4292 270.093 26.4305C270.148 26.4305 270.2 26.4546 270.255 26.4679C270.413 26.5067 270.559 26.5454 270.784 26.5241C270.974 26.5054 271.175 26.5014 271.369 26.4893C271.637 26.4746 271.637 26.4746 272.071 26.5588C272.182 26.5802 272.3 26.5788 272.443 26.5668C272.565 26.5575 272.691 26.5762 272.778 26.6163C272.814 26.6323 272.802 26.659 272.727 26.7472C272.727 26.8127 272.81 26.7833 272.837 26.7405C272.881 26.6791 272.798 26.659 272.64 26.6924C272.529 26.7165 272.474 26.7512 272.502 26.7793C272.518 26.794 272.593 26.8127 272.727 26.7472C273.074 26.667 273.339 26.6577 273.592 26.6363C273.742 26.6243 273.836 26.6296 273.955 26.6644C274.097 26.7058 274.239 26.7499 274.472 26.7285C274.725 26.7045 274.993 26.7018 275.25 26.6817C275.487 26.663 275.609 26.7218 275.759 26.7566C275.941 26.798 276.142 26.7512 276.308 26.7753C276.482 26.7993 276.604 26.8581 276.806 26.8688C277.098 26.8327 277.283 26.8995 277.504 26.9436C277.678 26.977 277.883 26.9476 278.069 26.9329C278.278 26.9169 278.452 26.9316 278.598 26.9797C278.764 27.0345 278.95 27.0225 279.139 27.0105C279.581 26.9837 279.597 26.9797 279.854 27.0532C280.039 27.1066 280.217 27.0826 280.403 27.0759C280.565 27.112 280.723 27.1507 280.892 27.1828C280.936 27.1908 281.019 27.1775 281.086 27.1735C281.279 27.1628 281.477 27.1521 281.67 27.1414C281.8 27.1347 281.939 27.1147 282.057 27.1227C282.176 27.132 282.274 27.1708 282.381 27.1962C282.487 27.2216 282.598 27.247 282.701 27.2737C282.859 27.3138 283.009 27.3472 283.23 27.3271C283.419 27.3098 283.617 27.3044 283.814 27.2924C284.063 27.2777 284.055 27.2817 284.517 27.3619C284.766 27.406 285.022 27.3525 285.275 27.3472C285.401 27.3445 285.524 27.3592 285.611 27.398C285.646 27.414 285.634 27.4407 285.646 27.4634C284.995 27.4995 284.339 27.5302 283.696 27.5743C283.447 27.5917 283.317 27.5436 283.182 27.5035C282.961 27.4394 282.669 27.5329 282.46 27.4501C282.333 27.4006 282.152 27.3726 281.935 27.3966C281.808 27.41 281.674 27.4086 281.544 27.4207C281.212 27.4501 280.908 27.4514 280.643 27.3592C280.553 27.3271 280.422 27.3098 280.328 27.279C280.217 27.2456 280.11 27.2269 279.98 27.2336C279.392 27.2657 278.807 27.2977 278.223 27.3325C278.172 27.3351 278.12 27.3552 278.077 27.3699C277.966 27.4073 278.002 27.4367 278.18 27.4608C278.239 27.4688 278.286 27.4861 278.342 27.4995C278.448 27.5249 278.547 27.565 278.665 27.5743C278.784 27.5837 278.922 27.565 279.052 27.5583C279.183 27.5516 279.321 27.5316 279.439 27.5396C279.558 27.5489 279.656 27.5877 279.767 27.6117C279.818 27.6238 279.882 27.6438 279.933 27.6425C280.193 27.6345 280.45 27.6198 280.711 27.6077C280.873 27.6438 281.011 27.6959 281.204 27.7079C281.327 27.716 281.457 27.7013 281.583 27.7039C281.639 27.7053 281.71 27.7253 281.737 27.7427C281.753 27.7534 281.702 27.7801 281.662 27.7935C281.512 27.8442 281.307 27.8349 281.121 27.8509C280.92 27.8683 280.738 27.8629 280.584 27.8108C280.482 27.7761 280.367 27.7574 280.241 27.7641C279.913 27.7814 279.589 27.8015 279.262 27.8162C279.206 27.8189 279.139 27.8068 279.088 27.7975C278.673 27.716 278.673 27.7133 278.381 27.7307C277.951 27.7561 277.951 27.756 277.662 27.6852C277.607 27.6719 277.548 27.6465 277.501 27.6478C277.042 27.6692 276.588 27.6906 276.134 27.7213C275.984 27.7307 275.882 27.7307 275.771 27.6959C275.676 27.6665 275.566 27.6331 275.447 27.6251C275.325 27.6171 275.191 27.6371 275.06 27.6438C274.93 27.6505 274.792 27.6679 274.677 27.6572C274.559 27.6465 274.456 27.6091 274.354 27.5824C274.247 27.5543 274.133 27.5556 273.986 27.5663C273.536 27.597 273.532 27.593 273.086 27.5102C273.035 27.5008 272.968 27.4901 272.912 27.4928C272.585 27.5089 272.261 27.5289 271.933 27.5449C271.807 27.5516 271.684 27.5342 271.598 27.4955C271.562 27.4795 271.574 27.4527 271.55 27.4006C271.523 27.3886 271.554 27.41 271.562 27.43C271.621 27.4273 271.692 27.43 271.736 27.4193C271.846 27.3939 271.902 27.3605 271.874 27.3325C271.858 27.3178 271.783 27.2991 271.736 27.2991C271.649 27.2991 271.574 27.3285 271.55 27.4006C271.301 27.4447 271.037 27.4541 270.78 27.4754C270.63 27.4888 270.535 27.4821 270.417 27.4474C270.275 27.4046 270.129 27.3632 269.896 27.3846C269.643 27.4086 269.375 27.4127 269.114 27.4314C268.814 27.4527 268.684 27.3325 268.431 27.3351C268.17 27.3378 267.91 27.3605 267.649 27.3766C267.42 27.3899 267.42 27.3899 266.946 27.3031C266.773 27.271 266.567 27.3178 266.397 27.2844C266.283 27.263 266.184 27.2309 266.074 27.2082C266.026 27.1989 265.951 27.1988 265.892 27.2015C265.564 27.2176 265.233 27.2282 264.917 27.2576C264.557 27.2924 264.285 27.255 264.028 27.1761C263.705 27.1908 263.377 27.1989 263.057 27.2242C262.824 27.2429 262.69 27.1989 262.532 27.1628C262.477 27.1508 262.429 27.1307 262.37 27.1254C262.311 27.12 262.24 27.1307 262.176 27.1347C261.916 27.1494 261.647 27.1561 261.395 27.1802C261.083 27.2109 260.964 27.1013 260.723 27.0879C260.562 27.1534 260.475 27.2429 260.155 27.2496C259.894 27.255 259.634 27.2764 259.373 27.2911C259.243 27.2977 259.113 27.3058 258.982 27.3124C258.773 27.3245 258.674 27.3766 258.718 27.4567C258.741 27.5008 258.761 27.5449 258.781 27.589C258.82 27.6679 258.722 27.7347 258.556 27.744C258.098 27.7694 257.644 27.7961 257.186 27.8188C257.063 27.8255 256.945 27.8028 256.846 27.7667C256.743 27.7307 256.629 27.7146 256.503 27.7213C256.045 27.7467 255.591 27.7734 255.132 27.7961C255.081 27.7988 255.014 27.7854 254.963 27.7748C254.852 27.7507 254.746 27.7227 254.639 27.6973C254.378 27.7093 254.122 27.7173 253.865 27.7333C253.45 27.7574 253.45 27.7587 253.146 27.6852C253.091 27.6719 253.036 27.6465 252.985 27.6478C252.787 27.6532 252.594 27.6665 252.396 27.6786C251.816 27.7133 251.816 27.7133 251.646 27.6732C251.492 27.6358 251.354 27.5904 251.121 27.6117C250.868 27.6358 250.6 27.6438 250.339 27.6572C250.146 27.6665 249.952 27.6772 249.759 27.6799C249.707 27.6812 249.652 27.6558 249.597 27.6425C249.439 27.6011 249.285 27.5676 249.068 27.5904C248.941 27.6037 248.807 27.6064 248.677 27.6131C248.337 27.6318 248.337 27.6318 247.78 27.5516C247.725 27.5436 247.658 27.5342 247.603 27.5382C247.145 27.5623 246.691 27.589 246.233 27.6117C246.177 27.6144 246.11 27.6064 246.055 27.5997C245.431 27.5222 245.431 27.5222 244.768 27.5596C244.515 27.573 244.507 27.5783 244.243 27.5075C244.124 27.4768 244.025 27.4621 243.887 27.4714C243.366 27.5035 242.841 27.5249 242.324 27.5623C242.091 27.5783 241.956 27.5382 241.798 27.5022C241.743 27.4901 241.684 27.4634 241.637 27.4648C241.115 27.4902 240.594 27.5209 240.073 27.5463C240.026 27.5489 239.966 27.5222 239.911 27.5102C239.805 27.4861 239.702 27.4501 239.583 27.442C239.461 27.434 239.327 27.4541 239.192 27.4608C238.865 27.4781 238.865 27.4768 238.486 27.398C238.434 27.3873 238.367 27.3726 238.316 27.3752C237.795 27.402 237.27 27.4247 236.752 27.4634C236.456 27.4848 236.255 27.446 236.046 27.3899C236.002 27.3779 235.927 27.3726 235.872 27.3752C235.284 27.406 234.699 27.4407 234.111 27.4714C233.988 27.4781 233.87 27.4554 233.771 27.4207C233.613 27.3659 233.428 27.3726 233.23 27.3846C232.776 27.4126 232.772 27.4113 232.504 27.3472C232.449 27.3338 232.401 27.3164 232.342 27.3098C232.287 27.3031 232.216 27.3071 232.156 27.3098C231.896 27.3231 231.635 27.3378 231.375 27.3525C231.114 27.3672 230.849 27.3752 230.593 27.398C230.277 27.426 230.127 27.3391 229.906 27.2991C229.582 27.3164 229.25 27.3271 228.93 27.3552C228.686 27.3766 228.571 27.3178 228.409 27.287C228.354 27.2763 228.295 27.2536 228.243 27.2563C227.655 27.2857 227.067 27.3178 226.482 27.3538C226.34 27.3619 226.245 27.3512 226.127 27.3191C225.862 27.247 225.851 27.2496 225.408 27.2764C225.215 27.2884 225.029 27.2991 224.863 27.2443C224.717 27.1948 224.54 27.1828 224.33 27.1988C224.074 27.2189 223.809 27.2296 223.549 27.2429C223.288 27.2576 223.027 27.2777 222.767 27.2844C222.558 27.291 222.431 27.2283 222.265 27.1962C222.214 27.1868 222.143 27.1855 222.084 27.1882C221.823 27.2002 221.555 27.2095 221.302 27.2322C220.994 27.2603 220.824 27.1868 220.607 27.1441C220.56 27.1347 220.481 27.1401 220.421 27.1441C219.963 27.1681 219.509 27.1948 219.051 27.2202C218.889 27.1841 218.724 27.1494 218.562 27.1133C218.301 27.1267 218.041 27.1414 217.78 27.1548C217.582 27.1654 217.381 27.1695 217.196 27.1895C216.955 27.2162 216.836 27.1534 216.674 27.1227C216.619 27.112 216.56 27.0893 216.509 27.092C216.181 27.1067 215.853 27.1227 215.529 27.1454C215.221 27.1681 215.099 27.0479 214.846 27.0492C214.586 27.0505 214.317 27.0679 214.064 27.092C213.772 27.12 213.567 27.0773 213.358 27.0198C213.314 27.0078 213.239 27.0011 213.184 27.0038C212.856 27.0198 212.532 27.0398 212.205 27.0559C212.149 27.0585 212.082 27.0519 212.027 27.0439C211.403 26.965 211.403 26.9637 211.131 26.9797C210.937 26.9904 210.74 27.0038 210.542 27.0105C210.487 27.0131 210.42 27.0011 210.369 26.9904C209.958 26.9089 209.958 26.9076 209.662 26.9236C209.401 26.9383 209.141 26.953 208.88 26.9677C208.718 26.9316 208.552 26.8969 208.39 26.8608C208.067 26.8782 207.735 26.8915 207.415 26.9156C207.265 26.9263 207.166 26.9223 207.052 26.8889C206.91 26.8488 206.768 26.802 206.531 26.8247C206.278 26.8488 206.01 26.8514 205.753 26.8715C205.445 26.8955 205.319 26.7739 205.07 26.7753C204.809 26.7766 204.541 26.794 204.288 26.818C203.996 26.8461 203.791 26.8033 203.581 26.7459C203.538 26.7339 203.463 26.7272 203.408 26.7298C202.689 26.7686 201.974 26.8073 201.256 26.8488C200.813 26.8741 200.813 26.8755 199.972 26.802C199.913 26.7966 199.85 26.7913 199.791 26.794C199.53 26.806 199.262 26.8154 199.009 26.8381C198.701 26.8661 198.531 26.794 198.314 26.7499C198.267 26.7405 198.192 26.7459 198.128 26.7485C197.931 26.7579 197.737 26.7699 197.54 26.7806C197.279 26.7953 197.019 26.81 196.758 26.8247C196.596 26.79 196.431 26.7539 196.269 26.7191C195.945 26.7365 195.613 26.7459 195.293 26.7739C195.049 26.7953 194.934 26.7392 194.772 26.7071C194.717 26.6964 194.658 26.6737 194.606 26.6751C194.018 26.7045 193.43 26.7352 192.845 26.7726C192.605 26.7886 192.494 26.7285 192.332 26.6978C192.277 26.6884 192.214 26.6711 192.162 26.6737C191.771 26.6924 191.381 26.7151 190.99 26.7379C190.769 26.7512 190.768 26.7512 190.287 26.6684C190.231 26.659 190.168 26.6497 190.113 26.6523C188.873 26.7191 187.637 26.79 186.397 26.8568C186.271 26.8635 186.157 26.8434 186.058 26.8073C185.955 26.7713 185.841 26.7526 185.714 26.7592C185.193 26.7873 184.668 26.8127 184.151 26.8474C183.938 26.8621 183.768 26.8447 183.622 26.798C183.511 26.7632 183.409 26.7499 183.27 26.7579C183.01 26.7739 182.749 26.7873 182.489 26.802C182.228 26.8167 181.967 26.8314 181.707 26.8461C181.446 26.8608 181.182 26.8688 180.925 26.8915C180.609 26.9196 180.455 26.8367 180.238 26.7953C179.847 26.8154 179.456 26.8354 179.069 26.8568C178.548 26.8848 178.027 26.9156 177.506 26.9423C177.458 26.945 177.399 26.9209 177.344 26.9089C177.182 26.8755 177.063 26.8287 176.822 26.8434C175.654 26.9142 174.477 26.9744 173.304 27.0439C173.06 27.0586 172.953 27.0011 172.787 26.9704C172.732 26.961 172.669 26.9423 172.617 26.945C171.966 26.9784 171.314 27.0158 170.663 27.0519C170.398 27.0666 170.398 27.0666 169.956 26.9837C169.905 26.9744 169.838 26.9623 169.782 26.965C168.933 27.0104 168.088 27.0585 167.24 27.1053C167.113 27.112 166.999 27.0933 166.896 27.0572C166.797 27.0211 166.679 27.0011 166.556 27.0078C165.775 27.0505 164.989 27.092 164.211 27.1387C164.002 27.1521 163.828 27.1401 163.678 27.092C163.571 27.0572 163.465 27.0425 163.331 27.0505C162.158 27.116 160.985 27.1788 159.812 27.2483C159.587 27.2617 159.429 27.2363 159.287 27.1922C159.173 27.1574 159.074 27.1507 158.932 27.1561C158.782 27.1628 158.691 27.1775 158.608 27.2176C158.502 27.2697 158.434 27.3351 158.182 27.3392C157.921 27.3432 157.657 27.3592 157.4 27.3819C157.155 27.4046 157.041 27.3445 156.887 27.3084C156.772 27.283 156.666 27.279 156.519 27.2911C156.385 27.3017 156.302 27.3244 156.223 27.3672C156.05 27.4581 156.034 27.4581 155.821 27.4006C155.706 27.3699 155.603 27.3458 155.477 27.3512C154.956 27.3779 154.435 27.4073 153.913 27.438C153.613 27.4554 153.609 27.4581 153.384 27.3913C153.274 27.3579 153.167 27.3418 153.037 27.3498C151.604 27.43 150.17 27.5075 148.737 27.5917C148.516 27.6051 148.366 27.577 148.208 27.5369C148.157 27.5235 148.105 27.5048 148.046 27.4995C147.987 27.4941 147.92 27.4995 147.857 27.5022C146.814 27.5596 145.768 27.6144 144.729 27.6786C144.492 27.6933 144.366 27.6505 144.204 27.6158C144.149 27.6037 144.101 27.585 144.042 27.5797C143.983 27.5757 143.912 27.585 143.849 27.589C142.806 27.6465 141.76 27.7013 140.722 27.7654C140.473 27.7801 140.366 27.724 140.204 27.6946C140.149 27.6839 140.09 27.6638 140.039 27.6665C139.711 27.6812 139.387 27.7013 139.059 27.7186C138.278 27.7627 137.496 27.8042 136.714 27.8496C136.414 27.867 136.284 27.748 136.031 27.7534C135.703 27.7601 135.379 27.7868 135.052 27.8055C134.791 27.8202 134.53 27.8336 134.27 27.8496C134.013 27.8643 134.013 27.8643 133.373 27.7868C133.318 27.7801 133.251 27.7707 133.196 27.7734C132.284 27.8229 131.368 27.8723 130.46 27.9257C130.25 27.9378 130.077 27.9311 129.926 27.8817C129.82 27.8469 129.709 27.8295 129.579 27.8376C128.209 27.9137 126.843 27.9899 125.473 28.0647C125.421 28.0674 125.354 28.054 125.303 28.0433C125.192 28.0193 125.086 27.9912 124.979 27.9658C124.9 27.9966 124.797 28.0246 124.746 28.0594C124.675 28.1061 124.58 28.1195 124.43 28.1275C124.28 28.1355 124.185 28.1329 124.067 28.0981C123.925 28.0554 123.779 28.0219 123.546 28.0353C122.112 28.1195 120.679 28.1957 119.246 28.2785C119.009 28.2919 118.898 28.2331 118.733 28.2023C118.677 28.193 118.614 28.1783 118.563 28.181C117.974 28.2117 117.39 28.2451 116.802 28.2772C115.171 28.368 113.54 28.4549 111.914 28.5511C111.617 28.5685 111.416 28.5351 111.207 28.4776C111.163 28.4656 111.088 28.4589 111.033 28.4616C108.751 28.5872 106.469 28.7141 104.19 28.841C104.068 28.8477 103.949 28.8263 103.851 28.7916C103.748 28.7555 103.634 28.7382 103.507 28.7448C102.465 28.8023 101.423 28.8598 100.38 28.9186C100.12 28.9333 100.116 28.9346 99.8471 28.8704C99.7918 28.8571 99.7326 28.8317 99.6892 28.8344C99.5984 28.8411 99.5114 28.8744 99.4483 28.9199C99.3851 28.968 99.2864 28.9813 99.1403 28.9907C98.9902 29.0001 98.8916 28.9961 98.7771 28.964C98.631 28.9239 98.4967 28.8851 98.2598 28.8985C95.2629 29.0695 92.266 29.2339 89.2691 29.4036C89.0283 29.4169 88.9177 29.3608 88.7518 29.3301C88.6966 29.3207 88.6413 29.3074 88.5821 29.3047C88.5189 29.302 88.4518 29.3101 88.3886 29.3141C83.5004 29.5853 78.6122 29.8579 73.724 30.1292C73.4318 30.1452 73.4358 30.1452 73.116 30.2681C73.0765 30.2828 73.0251 30.3029 72.9698 30.3055C71.4733 30.391 69.973 30.4739 68.4726 30.5567C67.8211 30.5928 67.1696 30.6302 66.5181 30.665C66.2851 30.677 66.2851 30.677 65.7284 30.8213C65.681 30.8333 65.6257 30.8494 65.5704 30.852C62.9644 30.9977 60.3584 31.1433 57.7484 31.2863C57.5431 31.297 57.3773 31.3211 57.2826 31.3852C57.2154 31.4306 57.1286 31.4573 56.9983 31.4654C55.1741 31.5669 53.3499 31.6698 51.5218 31.7687C51.3046 31.7807 51.1743 31.8181 51.0677 31.8742C51.0321 31.893 51.0005 31.9143 50.9492 31.9277C50.9018 31.9397 50.8308 31.9437 50.7715 31.9477C49.2079 32.0346 47.6444 32.1241 46.0768 32.207C45.8439 32.219 45.7491 32.2684 45.6346 32.3205C45.5951 32.3379 45.5674 32.362 45.5161 32.374C45.4648 32.3847 45.3898 32.3847 45.3266 32.3873C44.0236 32.4595 42.7206 32.533 41.4176 32.6051C41.1649 32.5985 41.1096 32.676 40.9872 32.7227C40.9438 32.7388 40.9123 32.7601 40.8609 32.7708C40.8057 32.7815 40.7345 32.7802 40.6674 32.7829C39.625 32.8403 38.5826 32.9018 37.5363 32.9552C37.2954 32.9673 37.248 33.0354 37.1177 33.0822C37.0743 33.0969 37.0309 33.1196 36.9796 33.1236C36.3281 33.1623 35.6766 33.1984 35.0251 33.2332C34.8079 33.2452 34.8079 33.2439 34.4249 33.3761C34.3815 33.3908 34.3301 33.4069 34.2748 33.4109C33.2995 33.467 32.3204 33.5204 31.3411 33.5752C31.2148 33.5819 31.1279 33.614 31.0648 33.6594C31.0016 33.7048 30.9108 33.7342 30.7844 33.7409C30.0026 33.785 29.2208 33.8304 28.439 33.8705C28.2218 33.8812 28.0797 33.9146 27.9849 33.9748C27.9139 34.0202 27.827 34.0429 27.6888 34.0509C26.907 34.0937 26.1252 34.1405 25.3395 34.1779C25.1105 34.1886 24.992 34.234 24.8972 34.2901C24.8222 34.3355 24.7353 34.3516 24.5892 34.3596C23.1559 34.4371 21.7187 34.5146 20.2894 34.6001C20.0485 34.6148 19.9261 34.568 19.7681 34.5346C19.5431 34.4879 19.3339 34.4371 19.3339 34.3329C19.3339 34.3168 19.2667 34.2981 19.2194 34.2848C18.8679 34.1845 18.8679 34.1845 18.8126 34.0776C18.7811 34.0122 18.7455 33.9454 18.7179 33.8786C18.6666 33.769 18.5402 33.7409 18.1769 33.761C18.0466 33.7676 17.9163 33.777 17.786 33.7823C17.5925 33.7917 17.4465 33.7476 17.4109 33.6674C17.3912 33.6233 17.3675 33.5792 17.3478 33.5351C17.5452 33.5245 17.5412 33.5231 17.8887 33.3614C18.0348 33.2933 18.0348 33.2933 17.7545 33.2251C17.6479 33.1998 17.5452 33.1717 17.4307 33.1476C17.3794 33.1369 17.3123 33.1303 17.257 33.1329C16.9293 33.149 16.6055 33.1677 16.2817 33.1864C15.7605 33.2158 15.7605 33.2158 15.2314 33.0795C15.1879 33.0688 15.1208 33.0488 15.1287 33.0381C15.1721 32.9886 15.2787 32.9672 15.413 32.9619C15.6104 32.9539 15.8039 32.9405 15.9973 32.9298C16.1276 32.9232 16.2579 32.9151 16.3882 32.9085C16.5106 32.8577 16.6371 32.8083 16.7516 32.7561C16.9332 32.676 16.9331 32.6733 16.6844 32.6172C16.5264 32.5798 16.3566 32.5463 16.1948 32.5116C16.0013 32.5223 15.8039 32.5343 15.6104 32.5437C15.3656 32.5557 15.2669 32.5303 15.2037 32.4435C15.1484 32.3673 15.2155 32.3018 15.4051 32.2858C15.5985 32.2698 15.7803 32.2591 15.879 32.1909C15.9737 32.1255 16.1395 32.1001 16.3449 32.0947C16.4752 32.0907 16.6054 32.0814 16.7357 32.0733C16.9055 32.0626 16.9964 31.9945 16.9608 31.9183C16.9411 31.8689 16.9016 31.8275 16.7476 31.8168C16.0645 31.77 16.0566 31.7713 15.717 31.6805C15.6854 31.6725 15.6618 31.6484 15.6736 31.6364C15.6934 31.6164 15.7368 31.587 15.7842 31.5829C16.2383 31.5535 16.6923 31.5268 17.1464 31.5068C17.2964 31.5001 17.407 31.4907 17.4583 31.4413C17.5294 31.3732 17.4978 31.3104 17.3596 31.2636C17.3162 31.2489 17.2451 31.2302 17.1977 31.2315C16.6765 31.2556 16.1593 31.2863 15.6381 31.3104C15.5907 31.313 15.5039 31.2903 15.4841 31.273C15.4446 31.2409 15.5038 31.1981 15.642 31.1834C15.8236 31.1634 16.0092 31.162 16.1316 31.0952C16.3014 31.0004 16.5107 30.9135 16.7002 30.8227C16.7318 30.8066 16.7832 30.7759 16.7713 30.7732C16.6726 30.7438 16.5581 30.7211 16.4554 30.693C16.2817 30.6463 16.2817 30.5808 16.3211 30.518C16.3527 30.4672 16.4712 30.4472 16.6173 30.4472C16.6805 30.4472 16.7594 30.4472 16.8107 30.4351C16.945 30.4058 16.9884 30.3683 16.9213 30.3403C16.8818 30.3242 16.8108 30.3015 16.7634 30.3042C15.9184 30.3483 15.0695 30.391 14.2284 30.4458C13.9797 30.4619 13.8653 30.4111 13.7152 30.375C13.6007 30.3469 13.494 30.3363 13.3519 30.3563C13.2176 30.375 13.0874 30.3643 13.0045 30.3202C12.9373 30.2842 13.0558 30.2534 13.3756 30.2187C13.4348 30.212 13.5019 30.208 13.5454 30.1946C14.0034 30.0503 14.0034 30.049 14.3192 30.0303C14.6272 30.0129 14.6273 30.0116 14.7892 29.9341C14.8642 29.898 14.9471 29.8619 15.0181 29.8245C15.0458 29.8098 15.0932 29.7831 15.0774 29.7751C14.9905 29.7336 14.872 29.7243 14.7338 29.7336C14.4259 29.7564 14.0627 29.7376 13.9008 29.8646C13.8376 29.9127 13.7389 29.9261 13.5967 29.9341C12.1674 30.0116 10.738 30.0944 9.3047 30.1692C9.07174 30.1813 8.9652 30.2307 8.87438 30.2855C8.79541 30.3309 8.70853 30.3443 8.55848 30.3523C8.40844 30.3603 8.28993 30.3643 8.20306 30.3202C8.15173 30.2935 8.19518 30.2561 8.31363 30.2187C8.48342 30.1652 8.45181 30.0984 8.39654 30.0356C8.35705 29.9942 8.23465 29.9648 8.10435 29.9675C7.91088 29.9728 7.72535 29.9875 7.56346 29.9341C7.4687 29.9033 7.35022 29.8819 7.24361 29.8552C7.03829 29.8004 6.83297 29.7443 6.54473 29.7804C6.3473 29.767 6.20911 29.7189 6.05117 29.6815C5.78662 29.6201 5.76293 29.6107 5.95246 29.5452C6.16567 29.4717 5.99981 29.3755 6.11826 29.3034C6.24461 29.2259 6.4184 29.1577 6.57239 29.0856C6.61188 29.0669 6.64743 29.0495 6.68691 29.0308C6.5961 29.0041 6.5132 28.9707 6.40659 28.952C6.26839 28.9279 6.19732 28.8985 6.20521 28.8157C6.17757 28.8036 6.18934 28.8344 6.22093 28.8424C6.25646 28.8504 6.34339 28.8437 6.38683 28.8344C6.49738 28.809 6.5526 28.7756 6.52497 28.7475C6.50917 28.7328 6.43421 28.7141 6.38683 28.7141C6.29996 28.7141 6.22495 28.7435 6.20126 28.8157C5.75903 28.8705 5.30094 28.8972 4.84291 28.9186C4.79553 28.9212 4.73634 28.8945 4.68106 28.8811C4.49943 28.8357 4.49941 28.837 3.96636 28.8237C3.91109 28.8223 3.8361 28.8036 3.80846 28.7849C3.69396 28.7034 3.69794 28.6139 3.64266 28.527C3.74532 28.4709 3.8479 28.4161 3.95451 28.3614C4.16773 28.2504 4.44418 28.1529 4.61002 28.0313C4.57448 27.9658 4.52709 27.9004 4.70082 27.8469C5.19438 27.7801 5.19046 27.7801 5.32471 27.716C5.70771 27.5342 6.08674 27.3512 6.48554 27.1721C6.59215 27.1254 6.59216 27.1 6.40264 27.0799C6.34341 27.0746 6.28015 27.0733 6.21697 27.0759C6.01955 27.0853 5.82213 27.1093 5.62865 27.104C5.43518 27.1 5.29304 27.0412 5.1351 27.0051C4.97321 26.9677 4.81133 26.9289 4.64944 26.8902C4.46386 26.8942 4.27832 26.9316 4.09274 26.8715C3.9506 26.8247 3.77293 26.7913 3.61104 26.7526C3.73344 26.651 3.96249 26.5735 4.14017 26.484C4.30206 26.4025 4.30592 26.4038 4.74025 26.341C4.94557 26.3116 5.01665 26.1606 4.84291 26.1165C4.63364 26.0631 4.41258 26.0136 4.19936 25.9629C4.01378 25.9669 3.82429 26.003 3.64661 25.9428C3.50842 25.8974 3.35045 25.8667 3.12143 25.884C2.73448 25.9134 2.33965 25.9281 1.94875 25.9522C1.8145 25.9602 1.66837 25.9548 1.60914 25.9094C1.56966 25.8773 1.68417 25.8333 1.81447 25.8239C2.01189 25.8105 2.18955 25.7945 2.28827 25.7277C2.38303 25.6609 2.55674 25.6408 2.76206 25.6315C2.81734 25.6288 2.88056 25.6128 2.9082 25.5967C3.05035 25.5192 3.2083 25.4524 3.51233 25.4551C3.63868 25.4284 3.70576 25.395 3.66628 25.3629C3.64259 25.3455 3.55971 25.3228 3.51233 25.3255C3.18461 25.3389 2.8569 25.3522 2.53707 25.3763C2.38703 25.387 2.27246 25.3896 2.1777 25.3495C2.11057 25.3228 2.14611 25.2867 2.27246 25.248C2.38301 25.2146 2.41464 25.1758 2.40674 25.1304C2.387 25.0248 2.26852 24.9941 1.88947 25.0008C1.61702 25.0061 1.54989 24.9888 1.49067 24.8979C1.47487 24.8765 1.43546 24.8471 1.4631 24.8324C1.63288 24.7416 1.74345 24.6293 2.06327 24.5866C2.18962 24.5705 2.32382 24.5705 2.40279 24.5358C2.48176 24.5011 2.55286 24.461 2.63578 24.4276C2.73844 24.3875 2.80944 24.3501 2.76206 24.3247C2.68309 24.2792 2.55678 24.2752 2.41069 24.2913C2.28434 24.3046 2.1501 24.306 2.0198 24.314C1.78684 24.3287 1.59735 24.2939 1.56971 24.2351C1.49469 24.0801 1.4157 23.9265 1.34858 23.7715C1.34068 23.7528 1.36037 23.7287 1.39196 23.7127C1.50251 23.6566 1.62101 23.6031 1.73552 23.5483C1.86977 23.4855 2.08302 23.4976 2.26465 23.4855C2.5213 23.4682 2.52121 23.4695 2.86473 23.3412C2.99897 23.2904 3.23195 23.3105 3.37014 23.2651C3.41358 23.2504 3.4807 23.2263 3.46885 23.2129C3.45306 23.1956 3.37413 23.1822 3.31491 23.1742C3.25963 23.1662 3.19252 23.1622 3.13329 23.1662C2.41467 23.2049 1.70002 23.2464 0.981395 23.2838C0.858993 23.2904 0.724741 23.2611 0.681308 23.2196C0.637875 23.1809 0.649682 23.1341 0.641785 23.09C0.75629 23.0352 0.88654 22.9845 0.985251 22.9257C1.06027 22.8802 1.14715 22.8602 1.2972 22.8575C1.49462 22.8535 1.68811 22.8375 1.90923 22.8254C2.31987 22.6304 2.72259 22.4259 3.16481 22.2308C3.3425 22.152 3.29913 22.0718 3.33467 21.9876C3.3702 21.9101 3.63474 21.9222 3.81242 21.8995C3.95456 21.8808 4.00188 21.838 3.9466 21.8086C3.91502 21.7912 3.84398 21.7712 3.7887 21.7712C3.6584 21.7712 3.52811 21.7832 3.39781 21.7899C3.26751 21.7966 3.11747 21.7926 3.01087 21.8153C2.90821 21.8367 2.84104 21.8821 2.77392 21.9208C2.6989 21.9636 2.60026 21.9783 2.45021 21.981C2.25674 21.9836 2.06328 21.9957 1.8698 22.005C1.65658 21.9529 1.43542 21.9021 1.2301 21.8473C1.19062 21.8367 1.18268 21.8059 1.18663 21.7859C1.19452 21.7338 1.13531 21.7017 1.00501 21.6763C0.894456 21.6549 0.803633 21.6242 0.700973 21.5975C0.779943 21.5614 0.86684 21.5266 0.930015 21.4879C1.06821 21.4064 1.24196 21.3476 1.54205 21.3503C1.6605 21.2982 1.75524 21.234 1.90923 21.198C2.05532 21.1632 2.30409 21.1979 2.41464 21.1191C2.46992 21.0804 2.55289 21.0363 2.65949 21.0202C2.82928 20.9948 3.05039 21.0082 3.1491 20.9334C3.20833 20.8906 3.29516 20.8519 3.40967 20.8412C3.53996 20.8292 3.67418 20.8265 3.76894 20.8011C3.82027 20.7877 3.87556 20.7664 3.87556 20.7477C3.87556 20.7356 3.79665 20.7169 3.74137 20.7089C3.69004 20.6995 3.62284 20.6929 3.56361 20.6955C3.36619 20.7036 3.17272 20.7182 2.9753 20.7263C2.92002 20.7289 2.85686 20.7196 2.79763 20.7116C2.6239 20.6902 2.63572 20.6635 2.77392 20.6154C2.91212 20.5686 3.01088 20.5085 3.12539 20.4537C3.25174 20.4443 3.40965 20.4483 3.49652 20.4229C3.64261 20.3815 3.74525 20.3214 3.8637 20.2693C3.994 20.2613 4.12824 20.2586 4.25064 20.2439C4.30197 20.2386 4.32568 20.2092 4.36912 20.1918C4.44809 20.1584 4.51526 20.1103 4.62187 20.0942C4.79561 20.0702 5.00882 20.0795 5.11148 20.006C5.17071 19.9633 5.26149 19.9179 5.37204 19.9152C5.68002 19.9099 5.81033 19.8363 5.96827 19.7669C6.08672 19.7148 6.33943 19.7415 6.46973 19.6894C6.5566 19.656 6.61981 19.6145 6.70668 19.5825C6.74221 19.5691 6.81721 19.5624 6.87643 19.5584C7.20021 19.5384 7.52792 19.5237 7.85169 19.5023C7.90302 19.4983 7.95044 19.4783 7.98993 19.4622C8.07285 19.4275 8.12412 19.3794 8.22678 19.3567C8.32944 19.3339 8.47551 19.3339 8.60186 19.3273C9.00856 19.3072 9.04017 19.3126 9.22575 19.199C9.37579 19.1068 9.74305 19.1723 9.86545 19.0707C9.93652 19.0119 10.0668 18.9638 10.2997 18.9571C10.6274 18.9478 10.9512 18.9224 11.2789 18.905C11.5711 18.889 11.5672 18.889 11.8831 18.7647C12.0252 18.7086 12.2345 18.7166 12.4201 18.7059C12.6175 18.6952 12.7991 18.6792 12.8939 18.6124C12.9887 18.5469 13.1624 18.5255 13.3637 18.5162C13.5493 18.5068 13.7586 18.5135 13.9047 18.4601C14.2601 18.3318 14.2561 18.3304 14.5049 18.3171C14.8958 18.2957 15.2867 18.2743 15.6776 18.2516C15.9382 18.2369 16.2106 18.2342 16.4554 18.2048C16.6331 18.1835 16.7121 18.1086 16.8266 18.0565C17.1503 18.0365 17.4741 18.0164 17.7979 17.9977C18.2519 17.971 18.7099 17.947 19.168 17.9216C19.3654 17.8708 19.3931 17.7586 19.7248 17.7532C19.9222 17.7505 20.1157 17.7332 20.3131 17.7225C20.6408 17.7038 20.9646 17.6797 21.2923 17.6704C21.5411 17.6637 21.5844 17.5915 21.7147 17.5461C21.7581 17.5301 21.7977 17.5073 21.849 17.5033C22.3623 17.4659 22.8914 17.4579 23.3928 17.4031C23.4441 17.3978 23.4915 17.3697 23.5034 17.3497C23.5113 17.339 23.4442 17.3189 23.4007 17.3096C23.3494 17.2989 23.2823 17.2882 23.227 17.2909C21.5963 17.3804 19.9656 17.4713 18.3349 17.5608C18.1059 17.5742 18.1059 17.5728 17.5492 17.7198C17.5018 17.7318 17.4464 17.7452 17.3872 17.7492C17.1266 17.7652 16.8621 17.7746 16.6054 17.7946C16.3961 17.8107 16.2225 17.7946 16.0724 17.7465C15.9658 17.7118 15.8552 17.7011 15.721 17.7038C15.5709 17.7078 15.4723 17.7225 15.3854 17.7586C15.2709 17.808 15.2117 17.8721 14.9708 17.8855C13.8613 17.9429 12.7517 18.0071 11.6461 18.0685C11.4921 18.0498 11.4171 18.0218 11.4566 17.9884C11.4803 17.9683 11.5277 17.9416 11.5751 17.9389C12.0291 17.9109 12.4872 17.8868 12.9412 17.8601C13.0044 17.8561 13.0913 17.8588 13.1268 17.8454C13.3005 17.7853 13.3638 17.6877 13.6915 17.681C13.881 17.677 14.0745 17.657 14.2561 17.6383C14.3074 17.6329 14.3548 17.6049 14.3667 17.5848C14.3706 17.5742 14.3074 17.5541 14.2601 17.5448C14.0863 17.506 13.885 17.5528 13.7113 17.5261C13.652 17.5167 13.5691 17.5033 13.5572 17.4873C13.5493 17.4726 13.6164 17.4485 13.6638 17.4339C13.7073 17.4205 13.7665 17.4085 13.8257 17.4045C14.3469 17.3737 14.8682 17.3417 15.3894 17.3176C15.6026 17.3082 15.7526 17.2748 15.8473 17.2134C15.9184 17.1679 16.0053 17.1439 16.1395 17.1372C17.0516 17.0878 17.9637 17.033 18.8797 16.9876C19.1088 16.9769 19.2273 16.9328 19.322 16.8753C19.397 16.8299 19.4839 16.8139 19.63 16.8058C20.937 16.7364 22.236 16.6589 23.5429 16.5921C23.7838 16.58 23.8549 16.5226 23.9773 16.4731C24.0207 16.4558 24.0483 16.4344 24.1036 16.4237C24.1588 16.413 24.2299 16.4143 24.297 16.4117C25.3394 16.3542 26.3819 16.2927 27.4282 16.2393C27.673 16.2273 27.7203 16.1604 27.8467 16.1137C27.8901 16.099 27.9297 16.0749 27.981 16.0709C28.7628 16.0255 29.5446 15.9827 30.3263 15.9386C30.8475 15.9092 31.3687 15.8798 31.8899 15.8518C32.1466 15.8384 32.1466 15.8371 32.4941 15.7101C32.5335 15.6954 32.5889 15.6781 32.6402 15.6741C34.1406 15.5885 35.637 15.5071 37.1375 15.4229C37.2638 15.4162 37.3546 15.3854 37.4178 15.34C37.481 15.2946 37.5719 15.2638 37.6943 15.2572C38.8669 15.1904 40.0396 15.1249 41.2163 15.0621C41.4295 15.0514 41.5795 15.0193 41.6742 14.9592C41.7453 14.9138 41.8322 14.8897 41.9664 14.883C43.1391 14.8189 44.3119 14.7507 45.4885 14.6893C45.7136 14.6773 45.8241 14.6318 45.9347 14.5784C45.9741 14.5597 46.0058 14.5289 46.0531 14.5263C46.6375 14.4889 47.2179 14.4501 47.8062 14.4247C48.051 14.414 48.134 14.3579 48.2327 14.3044C48.3117 14.2617 48.4025 14.247 48.5525 14.2417C48.8803 14.2296 49.204 14.2069 49.5239 14.1842C49.5712 14.1802 49.6305 14.1508 49.6344 14.1321C49.6423 14.0973 49.5515 14.0733 49.4014 14.0613C47.8378 14.1481 46.2703 14.235 44.7067 14.3218C44.4501 14.3365 44.4501 14.3365 44.1026 14.4635C44.0631 14.4782 44.0078 14.4955 43.9525 14.4995C42.4521 14.5837 40.9557 14.6666 39.4553 14.7508C39.3289 14.7574 39.2381 14.7882 39.1749 14.8336C39.1118 14.879 39.0209 14.9098 38.8985 14.9164C37.4652 14.9966 36.0319 15.0781 34.5947 15.1543C34.3814 15.165 34.2314 15.1957 34.1367 15.2572C34.0656 15.3026 33.9787 15.3267 33.8445 15.3333C32.4744 15.4082 31.1081 15.487 29.7341 15.5591C29.5959 15.5658 29.4933 15.5271 29.5012 15.491C29.5051 15.4723 29.5643 15.4416 29.6117 15.4389C30.3263 15.3948 31.0371 15.3494 31.7557 15.316C31.9966 15.3053 32.0676 15.2465 32.19 15.197C32.2295 15.1797 32.2611 15.157 32.3124 15.1476C32.3677 15.1369 32.4388 15.1383 32.5059 15.1356C34.1998 15.0407 35.8937 14.9445 37.5916 14.855C37.8364 14.8416 37.8837 14.7761 38.0101 14.7294C38.0535 14.7133 38.093 14.6893 38.1443 14.6866C38.6655 14.6546 39.1867 14.6265 39.7079 14.5984C40.62 14.5476 41.5321 14.4969 42.4481 14.4461C42.7127 14.4314 42.7127 14.4314 43.0523 14.3058C43.0917 14.2911 43.1471 14.2724 43.1984 14.2697C45.6109 14.1348 48.0235 13.9998 50.436 13.8662C50.5623 13.8595 50.6531 13.8288 50.7163 13.7833C50.7795 13.7392 50.8703 13.7072 50.9927 13.6992C54.2541 13.5174 57.5116 13.3357 60.773 13.1567C60.9863 13.1446 61.1363 13.1166 61.231 13.0538C61.2981 13.0083 61.389 12.9843 61.5232 12.9763C65.1084 12.7772 68.6936 12.5781 72.2828 12.3777C74.6953 12.244 77.1078 12.1077 79.5204 11.9768C79.7415 11.9648 79.8599 11.9233 79.9704 11.8685C80.006 11.8498 80.0415 11.8191 80.0889 11.8164C80.6062 11.783 81.1234 11.7523 81.6406 11.7216C81.8025 11.7576 81.9644 11.7924 82.1263 11.8285C82.2487 11.7777 82.3672 11.7256 82.4896 11.6748C83.2714 11.6361 84.0413 11.5759 84.831 11.5572C84.8824 11.5559 84.9376 11.5813 84.9929 11.5946C85.3601 11.6788 85.5694 11.6721 85.8023 11.5599C85.8853 11.5198 85.9563 11.4837 86.0827 11.477C86.4736 11.453 86.8685 11.437 87.2554 11.4089C87.4647 11.3942 87.6384 11.4076 87.7884 11.4557C87.895 11.4904 88.0056 11.5051 88.1359 11.4971C88.8546 11.457 89.5692 11.4183 90.2878 11.3755C90.3392 11.3728 90.3865 11.3501 90.426 11.3341C90.5089 11.2993 90.58 11.2619 90.659 11.2258C90.7656 11.2486 90.8841 11.2659 90.9709 11.2953C91.0815 11.3301 91.1841 11.3301 91.3341 11.3207C94.2007 11.159 97.0713 11.0014 99.9379 10.8383C100.183 10.825 100.289 10.8811 100.455 10.9105C100.51 10.9212 100.566 10.9345 100.625 10.9372C100.688 10.9399 100.755 10.9319 100.818 10.9279C102.97 10.8076 105.122 10.6887 107.274 10.5684C107.558 10.5524 107.558 10.5524 107.981 10.6352C108.032 10.6459 108.099 10.6579 108.155 10.6539C109.134 10.6018 110.113 10.5457 111.088 10.4923C111.215 10.4856 111.321 10.507 111.436 10.5377C111.661 10.5978 111.677 10.5978 111.842 10.5096C111.921 10.4682 112.004 10.4428 112.135 10.4308C112.277 10.4174 112.391 10.4214 112.502 10.4455C112.66 10.4789 112.774 10.535 113.015 10.5203C114.058 10.4575 115.104 10.4054 116.142 10.3413C116.379 10.3266 116.506 10.372 116.664 10.4054C116.719 10.4174 116.77 10.4361 116.829 10.4402C116.889 10.4442 116.96 10.4348 117.023 10.4308C118.326 10.3586 119.633 10.2878 120.932 10.2103C121.177 10.1956 121.283 10.2531 121.449 10.2825C121.504 10.2932 121.568 10.3119 121.619 10.3092C122.401 10.2678 123.187 10.2237 123.968 10.1796C124.249 10.1635 124.249 10.1649 124.675 10.2464C124.726 10.2571 124.794 10.2678 124.849 10.2651C125.761 10.2157 126.677 10.1649 127.589 10.1141C127.869 10.0981 127.869 10.0981 128.679 10.1676C128.738 10.1729 128.801 10.1809 128.86 10.1783C129.903 10.1208 130.949 10.0647 131.992 10.0032C132.201 9.99118 132.375 10.0019 132.525 10.05C132.631 10.0847 132.742 10.0994 132.872 10.0914C134.045 10.0259 135.221 9.96313 136.39 9.89365C136.615 9.88028 136.761 9.90967 136.919 9.94842C136.971 9.96178 137.022 9.98049 137.081 9.98584C137.14 9.99118 137.207 9.98583 137.271 9.98182C138.443 9.91635 139.62 9.85489 140.789 9.78407C141.026 9.76937 141.152 9.8148 141.31 9.8482C141.365 9.86023 141.424 9.88428 141.472 9.88295C141.93 9.86023 142.388 9.8402 142.842 9.80679C143.087 9.78808 143.193 9.84954 143.359 9.87893C143.414 9.88829 143.478 9.90834 143.529 9.90567C144.508 9.85356 145.487 9.79878 146.463 9.74265C146.601 9.73464 146.704 9.74665 146.814 9.78139C146.96 9.82816 147.13 9.84687 147.343 9.83217C147.797 9.80144 148.255 9.78006 148.713 9.75468C148.982 9.73998 148.982 9.73998 149.803 9.80947C149.862 9.81481 149.925 9.82282 149.985 9.82015C150.767 9.77739 151.552 9.73597 152.33 9.6892C152.539 9.67584 152.713 9.68786 152.863 9.73597C152.97 9.77071 153.076 9.78541 153.211 9.7774C153.929 9.73731 154.644 9.69722 155.363 9.65714C155.623 9.64244 155.884 9.61704 156.144 9.61704C156.334 9.61838 156.472 9.68251 156.642 9.71458C156.689 9.72394 156.768 9.71326 156.831 9.71059C157.744 9.65981 158.66 9.61304 159.568 9.55558C159.805 9.54088 159.931 9.58631 160.089 9.61972C160.144 9.63174 160.203 9.6558 160.251 9.65446C160.578 9.63976 160.902 9.61972 161.23 9.60235C161.621 9.58097 162.016 9.56493 162.403 9.53554C162.719 9.51148 162.837 9.62773 163.09 9.63174C163.283 9.63575 163.481 9.61304 163.674 9.60235C164.065 9.58097 164.456 9.55692 164.847 9.53821C164.985 9.53153 165.092 9.51014 165.135 9.46204C165.143 9.45268 165.076 9.43265 165.032 9.42062C164.507 9.28433 164.507 9.28432 163.978 9.31372C163.65 9.33243 163.327 9.35114 162.999 9.36717C162.944 9.36985 162.88 9.35916 162.825 9.35114C162.667 9.32842 162.683 9.3017 162.817 9.2536C162.951 9.2055 163.054 9.14671 163.169 9.09192C163.331 9.12666 163.489 9.16139 163.65 9.19613C163.781 9.18945 163.911 9.18145 164.041 9.17477C164.693 9.14003 165.344 9.10395 165.996 9.07188C166.043 9.0692 166.102 9.09593 166.158 9.10929C166.316 9.14804 166.458 9.18144 166.687 9.16674C167.271 9.12799 167.859 9.09993 168.444 9.06653C168.7 9.05183 168.7 9.05183 169.151 9.13467C169.202 9.14403 169.269 9.15472 169.324 9.15205C169.913 9.12131 170.497 9.08791 171.085 9.05584C171.212 9.04916 171.334 9.06653 171.425 9.10528C171.46 9.12132 171.453 9.14803 171.603 9.36717C172.069 9.54489 172.388 9.52619 172.712 9.51016C172.85 9.50348 172.973 9.49679 173.064 9.47006C173.111 9.45537 173.17 9.43398 173.17 9.41661C173.17 9.40325 173.083 9.38187 173.028 9.37919C172.637 9.35247 172.266 9.4086 171.883 9.42062C171.705 9.42597 171.551 9.3792 171.52 9.30304C171.512 9.28166 171.5 9.25894 171.488 9.23756C171.476 9.21619 171.468 9.19347 171.457 9.17209C171.303 9.16541 171.212 9.18946 171.145 9.23489C171.089 9.2723 171.01 9.31506 170.904 9.33511C170.797 9.35648 170.651 9.35248 170.521 9.35916C170.394 9.36585 170.256 9.38321 170.138 9.37386C170.019 9.36317 169.924 9.32441 169.814 9.30036C169.763 9.28834 169.699 9.27097 169.648 9.27364C169.194 9.29636 168.744 9.31907 168.294 9.34846C168.057 9.3645 167.938 9.30839 167.788 9.27364C167.67 9.24692 167.551 9.25359 167.532 9.31506C167.48 9.46204 167.662 9.5235 168.065 9.49544C168.396 9.47139 168.697 9.4674 168.957 9.55826C168.993 9.57028 169.076 9.57563 169.127 9.57295C169.451 9.55692 169.77 9.53687 170.094 9.52084C170.153 9.51817 170.217 9.5235 170.272 9.52885C171.077 9.601 171.077 9.60235 171.35 9.58631C171.48 9.5783 171.607 9.57161 171.595 9.36851C171.843 9.15071 172.238 9.13601 172.621 9.10394C172.87 9.0839 172.977 9.1427 173.139 9.17343C173.194 9.18412 173.253 9.20549 173.304 9.20282C174.153 9.15873 174.998 9.11195 175.843 9.06251C175.985 9.0545 176.088 9.06252 176.199 9.09726C176.341 9.14135 176.499 9.16942 176.724 9.15338C177.174 9.12131 177.632 9.10128 178.09 9.07455C178.323 9.06119 178.323 9.06118 178.793 9.14402C178.844 9.15337 178.911 9.16406 178.966 9.16139C179.424 9.13868 179.879 9.11062 180.333 9.08657C180.459 9.07989 180.574 9.0986 180.672 9.13467C180.771 9.17075 180.889 9.18946 181.012 9.18278C181.47 9.15872 181.924 9.13201 182.378 9.10796C182.433 9.10528 182.5 9.11464 182.552 9.12399C183.033 9.20684 183.033 9.20682 183.255 9.19346C183.578 9.17342 183.91 9.16407 184.23 9.13735C184.542 9.11063 184.704 9.18812 184.917 9.23088C185.501 9.20014 186.089 9.17476 186.67 9.13735C186.907 9.12131 187.033 9.16541 187.191 9.20015C187.246 9.21217 187.302 9.23756 187.353 9.23623C187.55 9.23088 187.744 9.21619 187.937 9.2055C188.131 9.19481 188.328 9.18412 188.522 9.17343C188.743 9.21218 188.889 9.30304 189.205 9.27231C189.394 9.2536 189.596 9.24959 189.789 9.2389C189.983 9.22821 190.18 9.21752 190.374 9.20683C190.504 9.20015 190.638 9.19614 190.765 9.18411C190.997 9.16407 191.112 9.22955 191.278 9.25895C191.333 9.2683 191.396 9.28433 191.448 9.28165C191.839 9.26295 192.233 9.24691 192.616 9.21618C192.912 9.19213 193.114 9.23222 193.323 9.28834C193.367 9.30037 193.442 9.30705 193.497 9.30437C193.955 9.28166 194.409 9.25359 194.863 9.22954C194.985 9.22286 195.104 9.24424 195.203 9.27898C195.305 9.31506 195.42 9.33244 195.546 9.32576C196 9.30171 196.458 9.27498 196.912 9.25092C196.968 9.24825 197.035 9.25894 197.086 9.26963C197.528 9.35248 197.528 9.35381 197.789 9.33778C197.852 9.33377 197.919 9.33109 197.982 9.32708C198.306 9.30837 198.642 9.3017 198.958 9.26963C199.321 9.23355 199.585 9.27899 199.842 9.35515C200.166 9.33912 200.497 9.32976 200.813 9.30304C201.05 9.28299 201.177 9.33377 201.335 9.36717C201.39 9.3792 201.449 9.40325 201.496 9.40058C201.954 9.37786 202.412 9.35783 202.863 9.32442C203.107 9.30571 203.214 9.36583 203.38 9.39657C203.435 9.40726 203.494 9.42597 203.546 9.4233C203.806 9.41261 204.067 9.39657 204.328 9.38187C204.632 9.3645 204.632 9.36583 205.034 9.44734C205.224 9.48609 205.413 9.45536 205.599 9.446C205.796 9.43531 205.982 9.4273 206.14 9.48208C206.239 9.51683 206.357 9.53821 206.479 9.53286C206.74 9.52084 207.005 9.50882 207.261 9.48877C207.467 9.47274 207.644 9.48342 207.794 9.53286C207.901 9.5676 208.011 9.58498 208.142 9.57697C208.726 9.5449 209.314 9.51148 209.899 9.48075C209.95 9.47807 210.021 9.49011 210.069 9.50213C210.179 9.52618 210.286 9.5529 210.392 9.57963C210.649 9.5676 210.914 9.56227 211.166 9.54356C211.435 9.52485 211.68 9.51817 211.889 9.59166C211.932 9.6077 211.995 9.6304 212.047 9.62906C212.244 9.62372 212.438 9.61036 212.631 9.59967C212.825 9.58898 213.022 9.57829 213.215 9.5676C213.441 9.60101 213.583 9.69721 213.899 9.66648C214.088 9.64777 214.29 9.64377 214.483 9.63308C214.676 9.62239 214.874 9.61036 215.067 9.60101C215.131 9.59834 215.202 9.59165 215.257 9.597C215.316 9.60234 215.367 9.62105 215.419 9.63441C215.577 9.67316 215.723 9.71192 215.948 9.6892C216.137 9.6705 216.339 9.66649 216.532 9.65446C216.797 9.63976 216.797 9.63976 217.235 9.72395C217.413 9.75869 217.614 9.71326 217.784 9.74265C217.898 9.7627 217.997 9.7961 218.108 9.81881C218.155 9.82816 218.23 9.83217 218.285 9.8295C218.546 9.81747 218.81 9.80545 219.067 9.78541C219.276 9.76937 219.45 9.7854 219.596 9.83351C219.703 9.86825 219.809 9.88296 219.944 9.87494C220.595 9.83752 221.247 9.80544 221.894 9.76402C222.115 9.74932 222.293 9.77205 222.415 9.82015C222.625 9.90299 222.921 9.80545 223.138 9.87226C223.272 9.91369 223.407 9.96179 223.651 9.94175C224.101 9.90701 224.559 9.88829 225.014 9.86424C225.175 9.90032 225.337 9.9364 225.503 9.97248C225.764 9.95778 226.024 9.94307 226.285 9.92971C226.478 9.91902 226.676 9.907 226.869 9.89764C226.932 9.89497 227 9.88962 227.059 9.89631C227.118 9.90299 227.165 9.92036 227.221 9.93372C227.493 9.9992 227.493 10.0005 227.943 9.97382C228.137 9.96179 228.322 9.95377 228.484 10.0072C228.634 10.0567 228.812 10.066 229.017 10.0513C229.404 10.0246 229.795 10.0045 230.19 9.98584C230.312 9.97916 230.427 10.0019 230.53 10.0366C230.684 10.0914 230.873 10.0861 231.067 10.0714C231.323 10.0526 231.576 10.0339 231.793 10.1088C231.836 10.1248 231.904 10.1475 231.951 10.1462C232.275 10.1355 232.603 10.1275 232.918 10.1021C233.234 10.0767 233.388 10.1595 233.605 10.1996C233.929 10.1823 234.257 10.1649 234.581 10.1475C234.644 10.1435 234.719 10.1315 234.774 10.1382C235.007 10.1662 235.141 10.2664 235.461 10.2357C235.647 10.2183 235.848 10.213 236.042 10.209C236.093 10.2077 236.16 10.2304 236.196 10.2477C236.215 10.2571 236.196 10.2825 236.172 10.2958C236.101 10.3332 236.014 10.368 235.951 10.4067C235.943 10.4121 236.018 10.4361 236.061 10.4468C236.168 10.4709 236.29 10.4669 236.432 10.4562C236.555 10.4468 236.681 10.4655 236.768 10.5056C236.804 10.5217 236.792 10.5484 236.717 10.6366C236.717 10.702 236.8 10.6726 236.827 10.6299C236.871 10.5684 236.788 10.5484 236.63 10.5818C236.519 10.6058 236.464 10.6406 236.492 10.6686C236.508 10.6833 236.583 10.702 236.717 10.6366C237.064 10.5564 237.325 10.5417 237.586 10.527C237.653 10.523 237.732 10.5096 237.779 10.5176C237.949 10.5497 238.107 10.5885 238.273 10.6245C238.462 10.6165 238.64 10.5965 238.825 10.6486C239.086 10.7221 239.098 10.7154 239.35 10.7007C239.481 10.6927 239.611 10.686 239.741 10.6793C239.872 10.6727 239.974 10.6927 240.089 10.7234C240.322 10.7862 240.341 10.7862 240.495 10.7007C240.586 10.6486 240.649 10.6312 240.764 10.6553C241.143 10.7368 241.147 10.7421 241.471 10.7181C241.739 10.698 241.992 10.6927 242.189 10.7689C242.324 10.8223 242.367 10.8103 242.474 10.7542C242.758 10.6058 242.888 10.6085 243.421 10.7154C243.67 10.7662 243.927 10.7114 244.179 10.7047C244.393 10.6994 244.543 10.7314 244.558 10.8156C244.57 10.8677 244.606 10.9051 244.748 10.9225C244.803 10.9292 244.87 10.9386 244.926 10.9359C245.253 10.9198 245.577 10.9011 245.905 10.8824C246.071 10.8731 246.162 10.8103 246.13 10.7274C246.094 10.6392 246.158 10.6072 246.394 10.5818C246.537 10.5671 246.651 10.5698 246.766 10.5938C246.892 10.6205 246.856 10.6446 246.746 10.6927C246.481 10.8103 246.513 10.8824 246.853 10.9639C246.971 10.992 247.066 11.0174 247.093 11.0588C247.109 11.0802 247.093 11.1083 247.129 11.1243C247.322 11.2138 247.591 11.2713 247.891 11.314C248.179 11.278 248.377 11.3381 248.598 11.3862C248.771 11.4236 248.977 11.3915 249.162 11.3782C249.372 11.3635 249.545 11.3742 249.695 11.4236C249.802 11.4583 249.913 11.4744 250.043 11.4677C250.303 11.453 250.568 11.4436 250.825 11.4223C251.046 11.4036 251.212 11.4303 251.35 11.4757C251.524 11.5332 251.717 11.4944 251.899 11.5024C252.144 11.5118 252.266 11.6307 252.586 11.5986C252.775 11.5799 252.973 11.5732 253.17 11.5679C253.221 11.5666 253.285 11.5893 253.328 11.6053C253.537 11.6788 253.782 11.6748 254.051 11.6534C254.236 11.6387 254.418 11.6254 254.599 11.6761C254.899 11.7617 255.231 11.8365 255.547 11.9153C255.591 11.9768 255.559 12.0489 255.784 12.085C255.902 12.1037 256.013 12.1318 256.104 12.1625C256.214 12.1986 256.317 12.208 256.459 12.1986C256.716 12.1799 256.984 12.1759 257.237 12.1518C257.47 12.1304 257.616 12.1746 257.758 12.216C257.873 12.2494 257.979 12.2654 258.118 12.2414C258.26 12.2186 258.362 12.2333 258.477 12.2694C258.639 12.3188 258.651 12.3135 259.188 12.3282C259.243 12.3295 259.31 12.3496 259.342 12.367C259.357 12.3763 259.322 12.403 259.294 12.4164C259.259 12.4324 259.203 12.4511 259.152 12.4551C258.568 12.4899 257.979 12.5206 257.395 12.5554C257.336 12.5594 257.273 12.5687 257.229 12.5821C257.182 12.5968 257.123 12.6168 257.123 12.6355C257.123 12.6489 257.201 12.6649 257.257 12.6743C257.43 12.705 257.636 12.6583 257.806 12.693C257.92 12.7157 258.015 12.7478 258.129 12.7691C258.177 12.7785 258.252 12.7772 258.311 12.7745C258.508 12.7651 258.702 12.7518 258.899 12.7438C258.955 12.7424 259.018 12.7558 259.069 12.7665C259.448 12.8467 259.448 12.8467 259.776 12.8293C259.906 12.8226 260.044 12.8026 260.167 12.8106C260.285 12.8186 260.388 12.8547 260.495 12.8774C260.716 12.9255 260.925 12.9723 260.941 13.0765C260.949 13.1166 261.079 13.1513 261.209 13.154C261.335 13.1567 261.47 13.142 261.6 13.1339C261.908 13.1179 261.908 13.1179 262.307 13.1994C262.417 13.2221 262.536 13.2248 262.678 13.2114C262.733 13.2061 262.8 13.2114 262.86 13.2181C263.053 13.2382 263.053 13.2636 262.927 13.3117C262.749 13.3825 262.765 13.3892 263.262 13.4493C263.452 13.472 263.598 13.5148 263.756 13.5522C264.013 13.6123 264.009 13.6123 263.839 13.6911C263.799 13.7085 263.764 13.7272 263.724 13.7459C263.61 13.798 263.519 13.8542 263.282 13.8595C263.021 13.8648 262.761 13.8862 262.5 13.9009C262.248 13.9156 262.18 13.9477 262.204 14.0385C262.232 14.1481 262.283 14.1601 262.737 14.1588C262.868 14.1588 262.982 14.1695 263.081 14.2056C263.033 14.2483 262.946 14.2817 262.82 14.2898C262.496 14.3098 262.169 14.3272 261.845 14.3445C261.584 14.3592 261.324 14.3739 261.063 14.3886C260.901 14.398 260.799 14.4675 260.842 14.545C260.866 14.5891 260.885 14.6332 260.905 14.6773C260.949 14.7654 261.031 14.7882 261.296 14.7842C261.363 14.7828 261.426 14.7721 261.489 14.7748C261.746 14.7842 261.869 14.8951 262.176 14.8723C262.433 14.8536 262.702 14.8496 262.954 14.8256C263.187 14.8042 263.318 14.8523 263.48 14.8884C263.535 14.9004 263.594 14.9258 263.641 14.9245C263.969 14.9098 264.297 14.8951 264.617 14.8697C264.767 14.859 264.858 14.867 264.976 14.8991C265.26 14.9766 265.268 14.9726 265.691 14.9485C265.999 14.9298 266.003 14.9325 266.397 15.014C266.508 15.0367 266.626 15.0367 266.769 15.026C266.954 15.0126 267.148 14.9913 267.341 15.0113C267.4 15.0167 267.475 15.0327 267.495 15.0501C267.507 15.0621 267.452 15.0915 267.404 15.1008C267.057 15.1703 266.65 15.1583 266.271 15.1864C266.153 15.1944 266.034 15.169 265.935 15.1329C265.833 15.0968 265.722 15.0821 265.588 15.0888C265.327 15.1035 265.063 15.1129 264.806 15.1342C264.585 15.153 264.431 15.1222 264.277 15.0808C264.226 15.0674 264.167 15.042 264.115 15.0434C263.531 15.0701 262.943 15.0968 262.362 15.1342C262.129 15.1503 261.995 15.1075 261.837 15.0714C261.782 15.0594 261.726 15.034 261.675 15.0354C261.478 15.0407 261.284 15.0554 261.087 15.0661C260.368 15.1062 259.653 15.1463 258.935 15.1837C258.887 15.1864 258.828 15.1583 258.773 15.1463C258.666 15.1222 258.556 15.0995 258.445 15.0768C258.248 15.0875 258.054 15.1008 257.857 15.1088C257.715 15.1142 257.588 15.1329 257.569 15.1837C257.557 15.2171 257.687 15.2478 257.825 15.2451C257.96 15.2425 258.094 15.2264 258.204 15.2438C258.753 15.3293 258.753 15.3307 259.097 15.3133C259.397 15.2973 259.365 15.2839 259.63 15.3574C259.744 15.3895 259.847 15.4082 259.977 15.4001C260.301 15.3814 260.629 15.3627 260.956 15.3467C261.008 15.344 261.075 15.3574 261.126 15.3681C261.513 15.4483 261.513 15.4509 261.833 15.4309C262.252 15.4068 262.267 15.4001 262.548 15.4817C262.741 15.5378 262.919 15.499 263.104 15.4964C263.318 15.5485 263.551 15.5952 263.744 15.654C263.973 15.7235 264.214 15.7115 264.475 15.6914C264.668 15.6767 264.858 15.6714 265.016 15.7262C265.166 15.777 265.347 15.7823 265.552 15.7689C265.738 15.7569 265.928 15.7315 266.121 15.7609C266.172 15.7689 266.251 15.789 266.247 15.801C266.243 15.8197 266.192 15.8464 266.141 15.8545C265.778 15.9092 265.379 15.9079 264.996 15.9333C264.944 15.9373 264.877 15.9226 264.826 15.9119C264.715 15.8879 264.609 15.8598 264.502 15.8344C264.309 15.8424 264.111 15.8451 263.922 15.8611C263.776 15.8732 263.665 15.8718 263.558 15.8398C263.46 15.8104 263.353 15.7743 263.235 15.7649C263.116 15.7556 262.978 15.7756 262.848 15.7836C262.718 15.7917 262.567 15.7876 262.465 15.809C262.362 15.8304 262.299 15.8772 262.232 15.9146C262.157 15.956 262.054 15.9694 261.904 15.9734C261.766 15.9774 261.655 15.972 261.553 15.9346C261.509 15.9186 261.45 15.9066 261.391 15.8959C261.335 15.8865 261.272 15.8718 261.221 15.8745C260.633 15.9052 260.048 15.9386 259.46 15.9707C259.168 15.9867 259.172 15.9867 258.564 15.9079C258.508 15.9012 258.441 15.8919 258.386 15.8945C258.058 15.9106 257.735 15.9293 257.407 15.948C257.075 15.9667 257.079 15.964 256.514 15.8798C256.412 15.8638 256.262 15.8852 256.139 15.8825C255.883 15.8758 255.756 15.7636 255.456 15.785C255.2 15.8037 254.931 15.8077 254.674 15.8317C254.441 15.8531 254.307 15.8064 254.149 15.7703C254.094 15.7583 254.035 15.7315 253.987 15.7342C253.399 15.7636 252.815 15.797 252.033 15.801C251.839 15.801 251.926 15.8291 252.053 15.8384C252.234 15.8531 252.294 15.8251 252.195 15.7716C252.124 15.7342 252.021 15.7155 251.938 15.7248C251.895 15.7302 251.839 15.7556 252.033 15.801C252.238 15.8518 252.226 15.8798 252.262 15.8959C252.349 15.9346 252.471 15.9507 252.598 15.9453C252.795 15.936 252.988 15.9226 253.186 15.9146C253.241 15.9119 253.308 15.9213 253.36 15.932C253.794 16.0148 253.798 16.0202 254.26 15.9881C254.406 15.9787 254.513 15.9787 254.627 16.0041C254.785 16.0389 254.9 16.0976 255.14 16.0789C255.46 16.0535 255.788 16.0389 256.116 16.0242C256.167 16.0215 256.222 16.0455 256.281 16.0562C256.443 16.0883 256.562 16.1484 256.803 16.123C256.988 16.103 257.19 16.0976 257.387 16.0936C257.438 16.0923 257.517 16.1137 257.541 16.1311C257.588 16.1618 257.529 16.1979 257.395 16.2233C257.34 16.2339 257.265 16.2313 257.201 16.2353C256.941 16.25 256.68 16.266 256.42 16.278C256.281 16.2847 256.151 16.3048 256.135 16.3542C256.124 16.3876 256.266 16.417 256.4 16.4143C256.597 16.4103 256.795 16.3996 256.984 16.3823C257.32 16.3529 257.612 16.3609 257.885 16.4451C258.078 16.5038 258.066 16.4825 258.271 16.6562C258.323 16.7003 258.477 16.7043 258.611 16.7016C258.935 16.6949 259.085 16.715 259.057 16.7564C259.022 16.8072 258.907 16.8232 258.761 16.8299C258.501 16.8406 258.24 16.858 257.979 16.8727C257.916 16.8767 257.845 16.8847 257.786 16.882C257.727 16.8793 257.671 16.8633 257.62 16.8513C257.509 16.8259 257.415 16.7871 257.296 16.7778C257.178 16.7684 257.04 16.7885 256.909 16.7965C256.779 16.8032 256.641 16.8232 256.522 16.8138C256.404 16.8045 256.305 16.7644 256.199 16.7404C256.147 16.7283 256.084 16.7096 256.033 16.711C255.772 16.7216 255.512 16.739 255.251 16.7524C254.931 16.7698 254.931 16.7698 254.544 16.6869C254.434 16.6629 254.319 16.6642 254.173 16.6749C253.857 16.6963 253.853 16.6923 253.277 16.6148C253.221 16.6067 253.154 16.5974 253.099 16.6014C252.511 16.6321 251.926 16.6655 251.342 16.6976C250.84 16.7257 250.84 16.7257 250.564 16.8593C250.359 16.9582 250.355 16.9582 250.556 17.0036C250.718 17.041 250.864 17.0958 251.042 17.1158C251.208 17.1345 251.413 17.0744 251.595 17.1359C251.685 17.1666 251.804 17.2 251.918 17.2054C252.1 17.212 252.294 17.1733 252.467 17.2321C252.554 17.2615 252.684 17.2922 252.795 17.2936C252.988 17.2962 253.186 17.2748 253.379 17.2655C253.439 17.2628 253.506 17.2628 253.561 17.2695C253.62 17.2775 253.672 17.2936 253.723 17.3069C253.881 17.3523 254.051 17.3737 254.256 17.351C254.592 17.3136 254.892 17.3323 255.152 17.4178C255.188 17.4298 255.275 17.4312 255.33 17.4258C255.472 17.4125 255.594 17.4111 255.701 17.4365C255.744 17.4472 255.808 17.4659 255.8 17.4779C255.788 17.498 255.741 17.5247 255.689 17.5314C255.318 17.5768 254.919 17.5822 254.536 17.6062C254.485 17.6089 254.422 17.5915 254.37 17.5795C254.26 17.5554 254.165 17.5154 254.047 17.506C253.928 17.4967 253.79 17.514 253.66 17.5207C253.529 17.5274 253.391 17.5474 253.273 17.5394C253.154 17.5301 253.044 17.4967 252.949 17.4673C252.838 17.4339 252.732 17.4299 252.586 17.4432C252.396 17.4606 252.199 17.4633 252.005 17.4726C251.899 17.4472 251.792 17.4191 251.682 17.3951C251.63 17.3831 251.567 17.3684 251.512 17.3697C251.251 17.3804 250.99 17.3964 250.73 17.4111C250.469 17.4258 250.469 17.4258 250.027 17.343C249.976 17.3336 249.909 17.323 249.853 17.3256C249.526 17.3417 249.202 17.3617 248.874 17.3777C248.748 17.3844 248.633 17.3657 248.531 17.3296C248.432 17.2935 248.313 17.2735 248.191 17.2802C247.67 17.3082 247.149 17.335 246.627 17.3684C246.418 17.3817 246.24 17.3697 246.098 17.3216C245.932 17.2668 245.747 17.2802 245.553 17.2909C245.115 17.3176 245.111 17.3163 244.831 17.2481C244.776 17.2348 244.72 17.2094 244.669 17.2107C244.215 17.2307 243.757 17.2495 243.307 17.2815C243.07 17.2989 242.944 17.2521 242.786 17.2174C242.73 17.2054 242.671 17.18 242.624 17.1826C242.296 17.1973 241.968 17.2107 241.648 17.2374C241.329 17.2642 241.206 17.1399 240.965 17.1412C240.638 17.1426 240.314 17.1733 239.99 17.192C239.729 17.2067 239.469 17.2214 239.208 17.2361C238.948 17.2508 238.687 17.2628 238.426 17.2802C238.288 17.2895 238.186 17.2775 238.071 17.2441C237.925 17.2 237.751 17.1653 237.593 17.1252C237.353 17.0677 237.353 17.0677 237.06 17.0838C236.997 17.0878 236.93 17.0904 236.867 17.0944C236.389 17.1238 236.389 17.1212 235.781 17.037C235.753 17.033 235.682 17.0477 235.655 17.0584C235.572 17.0931 235.497 17.1305 235.422 17.1666C235.315 17.1452 235.185 17.1332 235.114 17.1025C234.912 17.0156 234.596 17.1345 234.391 17.049C234.316 17.017 234.186 16.9889 234.067 16.9809C233.945 16.9729 233.807 16.9916 233.68 16.9996C233.353 17.0196 233.353 17.0183 233.072 17.1372C232.93 17.196 232.725 17.1853 232.539 17.1987C232.346 17.2134 232.16 17.2214 231.998 17.1666C231.852 17.1172 231.675 17.1051 231.465 17.1212C231.209 17.1412 230.944 17.1532 230.684 17.1653C230.628 17.1679 230.561 17.1613 230.506 17.1533C229.902 17.0744 229.902 17.0731 229.61 17.0905C229.479 17.0985 229.345 17.1011 229.219 17.1132C229.005 17.1345 228.844 17.1065 228.69 17.0637C228.638 17.0504 228.579 17.025 228.528 17.0263C228.267 17.033 228.01 17.045 227.754 17.057C227.556 17.0664 227.359 17.0717 227.169 17.0905C226.854 17.1212 226.7 17.0343 226.482 16.9942C226.159 17.0116 225.831 17.0236 225.507 17.0477C225.357 17.0584 225.258 17.0544 225.144 17.0223C224.998 16.9822 224.864 16.9368 224.627 16.9568C224.311 16.9836 223.979 16.9929 223.655 17.0089C223.438 16.9675 223.28 16.8833 222.968 16.9141C222.779 16.9328 222.577 16.9368 222.384 16.9475C222.123 16.9622 221.863 16.9755 221.602 16.9916C221.322 17.0076 221.326 17.0036 220.895 16.9248C220.647 16.878 220.39 16.9301 220.137 16.9381C219.94 16.9448 219.841 17.0063 219.888 17.0851C219.936 17.1639 219.829 17.2254 219.648 17.2361C219.193 17.2615 218.735 17.2882 218.281 17.3109C218.226 17.3136 218.159 17.3042 218.108 17.2949C217.622 17.2107 217.622 17.212 217.405 17.2241C217.081 17.2441 216.749 17.2548 216.43 17.2802C216.208 17.2976 216.047 17.2695 215.904 17.2241C215.794 17.1893 215.691 17.1813 215.549 17.1893C213.985 17.2789 212.422 17.3617 210.862 17.4539C210.629 17.4673 210.495 17.4285 210.337 17.3924C210.282 17.3804 210.23 17.355 210.175 17.355C210.045 17.355 209.915 17.367 209.784 17.3751C209.2 17.4071 208.616 17.4459 208.027 17.4699C207.778 17.4806 207.711 17.5421 207.605 17.5929C207.522 17.6316 207.427 17.6476 207.281 17.653C207.139 17.6583 207.036 17.6517 206.926 17.6169C206.783 17.5715 206.622 17.5434 206.401 17.5621C206.144 17.5835 205.883 17.5929 205.619 17.6076C205.484 17.6142 205.382 17.6383 205.338 17.6864C205.33 17.6944 205.413 17.7145 205.461 17.7265C205.619 17.7666 205.769 17.8133 205.946 17.8414C206.128 17.8695 206.325 17.8374 206.515 17.8294C206.582 17.8267 206.645 17.8187 206.708 17.82C206.768 17.8214 206.839 17.828 206.882 17.8401C207.088 17.9002 207.305 17.9416 207.589 17.9055C207.834 17.9229 207.96 18.0338 208.272 18.0044C208.462 17.987 208.659 17.979 208.856 17.9723C208.908 17.971 208.963 17.9951 209.018 18.0071C209.176 18.0405 209.303 18.0939 209.54 18.0712C209.792 18.0472 210.061 18.0432 210.317 18.0245C210.459 18.0138 210.562 18.0231 210.673 18.0579C210.815 18.102 210.977 18.1354 211.198 18.114C211.387 18.0953 211.589 18.0913 211.782 18.0792C212.035 18.0645 212.035 18.0659 212.485 18.1487C212.536 18.1581 212.603 18.1688 212.659 18.1661C212.986 18.1501 213.31 18.13 213.638 18.114C213.764 18.1073 213.887 18.1247 213.974 18.1634C214.009 18.1794 213.997 18.2062 214.009 18.2289C213.358 18.265 212.706 18.2957 212.059 18.3398C211.814 18.3572 211.703 18.3024 211.541 18.2717C211.486 18.261 211.427 18.2383 211.376 18.2409C210.917 18.2636 210.463 18.2877 210.009 18.3171C209.867 18.3264 209.761 18.3211 209.654 18.2823C209.382 18.1795 209.05 18.2356 208.742 18.2503C208.505 18.261 208.43 18.3024 208.458 18.3906C208.493 18.4948 208.635 18.5269 208.999 18.5082C209.129 18.5015 209.259 18.4921 209.389 18.4868C209.516 18.4814 209.63 18.4988 209.733 18.5349C209.832 18.571 209.95 18.5897 210.073 18.5843C210.333 18.5723 210.598 18.5603 210.85 18.5402C211.06 18.5242 211.233 18.5376 211.379 18.587C211.541 18.6418 211.731 18.6298 211.92 18.6177C212.363 18.591 212.367 18.5923 212.643 18.6592C212.698 18.6725 212.754 18.6979 212.805 18.6966C213.259 18.6765 213.717 18.6592 214.163 18.6271C214.396 18.6111 214.53 18.6538 214.684 18.6886C214.74 18.7006 214.795 18.7273 214.846 18.7246C215.174 18.7099 215.502 18.6952 215.821 18.6698C215.972 18.6578 216.062 18.6658 216.185 18.6979C216.477 18.7767 216.485 18.7741 216.899 18.7487C217.026 18.7407 217.164 18.726 217.282 18.7367C217.401 18.7473 217.496 18.7861 217.606 18.8102C217.658 18.8208 217.721 18.8355 217.776 18.8329C218.037 18.8222 218.297 18.8061 218.558 18.7914C218.803 18.7767 218.803 18.7781 219.261 18.8609C219.446 18.8957 219.64 18.8663 219.825 18.8556C220.027 18.8436 220.208 18.8436 220.362 18.8957C220.516 18.9478 220.702 18.9451 220.899 18.9344C221.085 18.9237 221.274 18.8943 221.464 18.9304C221.898 19.0133 221.898 19.0146 222.167 18.9985C222.558 18.9758 222.945 18.9545 223.339 18.9344C223.391 18.9317 223.458 18.9478 223.509 18.9585C223.62 18.9825 223.715 19.0226 223.833 19.0319C223.951 19.0426 224.09 19.0266 224.216 19.0186C224.623 18.9932 224.65 18.9839 224.923 19.072C225.152 19.1442 225.436 19.04 225.649 19.1228C225.772 19.1696 225.937 19.207 226.166 19.1843C226.356 19.1656 226.553 19.1602 226.751 19.1495C227.063 19.1322 227.063 19.1335 227.458 19.2137C227.509 19.2244 227.576 19.2377 227.627 19.2351C227.888 19.2244 228.153 19.215 228.405 19.191C228.701 19.1629 228.891 19.2137 229.112 19.2631C229.286 19.3019 229.491 19.2698 229.677 19.2564C229.878 19.2431 230.06 19.2471 230.21 19.2992C230.368 19.3526 230.553 19.346 230.751 19.3353C230.936 19.3259 231.126 19.2952 231.315 19.3326C231.722 19.4154 231.722 19.4154 232.018 19.3994C232.279 19.3847 232.539 19.3687 232.8 19.358C232.851 19.3553 232.914 19.3727 232.966 19.3847C233.076 19.4088 233.171 19.4489 233.29 19.4582C233.408 19.4676 233.546 19.4502 233.676 19.4435C233.807 19.4368 233.945 19.4168 234.063 19.4248C234.182 19.4328 234.292 19.4662 234.387 19.4956C234.498 19.5304 234.6 19.5344 234.75 19.521C234.94 19.5036 235.137 19.4996 235.331 19.4903C235.437 19.5157 235.548 19.541 235.651 19.5691C235.757 19.5985 235.872 19.5958 236.018 19.5865C236.504 19.5544 236.507 19.5584 236.914 19.6413C237.1 19.6787 237.293 19.6479 237.479 19.6386C237.676 19.6279 237.862 19.6226 238.016 19.676C238.166 19.7268 238.351 19.7335 238.549 19.7174C238.675 19.7067 238.81 19.7001 238.94 19.6961C238.999 19.6947 239.07 19.7001 239.114 19.7108C239.323 19.7669 239.528 19.8177 239.816 19.7816C240.069 19.7923 240.195 19.9018 240.499 19.8805C240.756 19.8617 241.025 19.8577 241.277 19.8337C241.51 19.8123 241.676 19.8497 241.795 19.8965C242.008 19.9793 242.308 19.8671 242.521 19.9486C242.643 19.9954 242.801 20.0328 243.038 20.0127C243.299 19.9914 243.382 20.0194 243.457 20.1036C243.5 20.1517 243.492 20.1905 243.413 20.2279C243.334 20.2666 243.248 20.2599 243.121 20.2158C242.975 20.1664 242.801 20.157 242.592 20.1677C242.387 20.1784 242.26 20.1089 242.091 20.0822C241.921 20.0542 241.72 20.1009 241.542 20.0649C241.123 19.9807 241.123 19.9807 240.839 19.9967C240.646 20.0074 240.444 20.0127 240.255 20.0314C240.03 20.0542 239.883 20.0127 239.729 19.9753C239.674 19.962 239.619 19.9366 239.572 19.9379C239.117 19.9579 238.659 19.9767 238.209 20.0101C237.972 20.0274 237.846 19.9793 237.688 19.9459C237.633 19.9339 237.574 19.9098 237.526 19.9125C237.135 19.9312 236.748 19.9553 236.357 19.978C236.282 20.0141 236.2 20.0488 236.128 20.0876C236.053 20.1276 235.951 20.145 235.801 20.1437C235.552 20.1437 235.307 20.1998 235.058 20.129C234.802 20.0568 234.782 20.0608 234.533 20.0782C234.217 20.1009 233.882 20.0956 233.586 20.1477C233.534 20.157 233.479 20.1824 233.479 20.2011C233.475 20.2132 233.558 20.2305 233.609 20.2412C233.783 20.2733 233.984 20.2265 234.158 20.2599C234.273 20.2813 234.367 20.3134 234.482 20.3361C234.529 20.3454 234.6 20.3441 234.664 20.3428C234.731 20.3414 234.794 20.3321 234.857 20.3334C234.916 20.3348 234.98 20.3428 235.027 20.3548C235.244 20.4056 235.473 20.4523 235.667 20.5125C235.856 20.5713 236.034 20.5312 236.223 20.5285C236.981 20.622 236.981 20.6234 237.491 20.594C237.617 20.5873 237.747 20.5793 237.878 20.5806C237.933 20.5806 237.984 20.6047 238.04 20.618C238.197 20.6581 238.348 20.6942 238.569 20.6728C238.758 20.6541 238.96 20.6501 239.153 20.6381C239.414 20.6234 239.414 20.6234 239.856 20.7076C239.966 20.7289 240.085 20.7263 240.227 20.7156C240.349 20.7062 240.476 20.7263 240.563 20.765C240.598 20.7811 240.586 20.8078 240.598 20.8305C240.207 20.8519 239.812 20.8666 239.433 20.8986C239.189 20.9187 239.078 20.8612 238.916 20.8305C238.861 20.8198 238.802 20.7971 238.75 20.7998C238.363 20.8198 237.976 20.8425 237.589 20.8692C237.542 20.8719 237.483 20.9026 237.479 20.9213C237.471 20.9561 237.57 20.9895 237.712 20.9882C237.901 20.9868 238.087 20.9641 238.257 21.0189C238.399 21.067 238.576 21.0884 238.786 21.067C238.912 21.055 239.046 21.055 239.173 21.0443C239.508 21.0122 239.812 21.0189 240.065 21.1098C240.259 21.1338 240.448 21.1111 240.634 21.0991C240.772 21.0897 240.906 21.0804 241.005 21.1057C241.214 21.1592 241.419 21.2126 241.708 21.1766C242.02 21.214 242.257 21.2928 242.517 21.357C242.64 21.3877 242.734 21.4051 242.876 21.385C242.936 21.377 243.007 21.377 243.07 21.373C243.2 21.3663 243.338 21.3463 243.457 21.3543C243.575 21.3636 243.674 21.4024 243.781 21.4264C243.832 21.4385 243.891 21.4585 243.942 21.4572C244.14 21.4505 244.333 21.4371 244.527 21.4264C244.72 21.4171 244.914 21.4077 245.107 21.3984C245.269 21.4331 245.435 21.4679 245.597 21.5026C245.857 21.4879 246.118 21.4732 246.375 21.4598C246.663 21.4438 246.663 21.4451 247.078 21.528C247.263 21.5654 247.461 21.5413 247.638 21.524C247.934 21.4959 248.132 21.5467 248.341 21.6002C248.385 21.6108 248.464 21.6175 248.515 21.6122C248.72 21.5935 248.898 21.6082 249.048 21.6576C249.154 21.6923 249.261 21.7084 249.391 21.7017C249.845 21.6763 250.3 21.6496 250.754 21.6269C250.809 21.6242 250.872 21.6362 250.923 21.6469C251.326 21.7284 251.33 21.7324 251.626 21.711C251.891 21.6923 252.136 21.6843 252.345 21.7578C252.388 21.7738 252.455 21.7966 252.503 21.7952C252.827 21.7819 253.154 21.7672 253.474 21.7445C253.62 21.7338 253.723 21.7378 253.837 21.7685C253.983 21.8073 254.114 21.854 254.355 21.8367C255.022 21.7872 255.026 21.7952 255.816 21.8874C255.871 21.8941 255.946 21.8834 256.009 21.8781C256.143 21.8647 256.242 21.8834 256.36 21.9142C256.625 21.9836 256.633 21.9796 256.886 21.9649C257.079 21.9529 257.28 21.9502 257.47 21.9302C257.762 21.9008 257.956 21.9529 258.173 22.0024C258.347 22.0411 258.548 22.009 258.733 21.997C258.935 21.9836 259.116 21.9876 259.267 22.0384C259.369 22.0732 259.48 22.0919 259.61 22.0852C260.064 22.0611 260.518 22.0344 260.972 22.0104C261.028 22.0077 261.095 22.0184 261.146 22.0277C261.596 22.1106 261.596 22.1146 262.042 22.0839C262.184 22.0745 262.303 22.0718 262.409 22.0999C262.512 22.1266 262.623 22.152 262.729 22.1774C262.923 22.168 263.12 22.1654 263.31 22.1493C263.456 22.1373 263.558 22.1427 263.673 22.1707C263.823 22.2068 263.949 22.2696 264.186 22.2388C264.309 22.2241 264.451 22.2282 264.573 22.2148C264.719 22.1974 264.818 22.2081 264.933 22.2429C265.075 22.2843 265.221 22.327 265.45 22.3057C265.702 22.2816 265.971 22.2776 266.228 22.2589C266.37 22.2482 266.469 22.2589 266.583 22.2936C266.725 22.3377 266.887 22.3658 267.108 22.3484C267.558 22.315 267.562 22.3217 268 22.4059C268.111 22.4273 268.23 22.4246 268.372 22.4139C268.494 22.4045 268.62 22.4246 268.707 22.4633C268.79 22.5061 268.782 22.5328 268.79 22.5555ZM233.605 10.5043C233.475 10.511 233.345 10.519 233.155 10.4027C233.143 10.3827 233.151 10.3586 233.124 10.3413C233.061 10.3052 232.962 10.2798 232.843 10.2758C232.63 10.2705 232.373 10.3159 232.377 10.3506C232.381 10.38 232.448 10.4054 232.579 10.4295C232.634 10.4388 232.678 10.4548 232.729 10.4655C232.879 10.4963 232.997 10.5564 233.215 10.5257C233.195 10.4842 233.175 10.4428 233.215 10.5257C233.195 10.5764 233.254 10.6125 233.396 10.6272C233.436 10.6312 233.495 10.6286 233.526 10.6205C233.649 10.5911 233.669 10.5511 233.578 10.4455C233.562 10.4629 233.574 10.4936 233.609 10.5016C233.645 10.5096 233.732 10.503 233.775 10.4936C233.886 10.4682 233.941 10.4348 233.913 10.4067C233.898 10.392 233.823 10.3733 233.775 10.3733C233.692 10.3733 233.617 10.4027 233.605 10.5043ZM265.533 26.0003C265.244 26.0257 264.913 26.0163 264.625 26.0684C264.573 26.0778 264.522 26.1018 264.518 26.1205C264.514 26.1326 264.593 26.1499 264.64 26.1593C264.747 26.1807 264.865 26.174 265.004 26.1673C265.213 26.1579 265.335 26.2194 265.497 26.2501C265.549 26.2595 265.616 26.2662 265.671 26.2635C265.991 26.2475 266.307 26.2301 266.626 26.2114C266.682 26.2074 266.741 26.198 266.788 26.186C266.946 26.1473 266.931 26.1219 266.777 26.0925C266.607 26.0604 266.472 26.0069 266.299 25.9816C266.05 25.9455 265.797 25.9936 265.533 26.0003ZM243.109 26.9757C242.916 26.9864 242.726 26.9971 242.533 27.0078C242.47 27.0118 242.403 27.0131 242.343 27.0185C242.221 27.0278 242.13 27.0559 242.071 27.1C242.162 27.1347 242.272 27.1548 242.395 27.1507C242.588 27.1427 242.778 27.1254 242.971 27.1213C243.18 27.116 243.303 27.1761 243.465 27.2069C243.516 27.2162 243.579 27.2176 243.638 27.2189C243.931 27.2242 244.108 27.1548 244.053 27.0572C244.014 26.9811 243.864 26.9356 243.682 26.945C243.492 26.9543 243.299 26.965 243.109 26.9757ZM266.883 24.0254C266.931 24.0026 266.982 23.9866 267.006 23.9666C267.077 23.8984 267.049 23.8476 266.919 23.7942C266.761 23.7287 266.567 23.7728 266.39 23.7795C266.346 23.7808 266.299 23.8089 266.275 23.8263C266.259 23.8383 266.259 23.8637 266.283 23.8704C266.476 23.9238 266.682 23.9732 266.883 24.0254ZM232.63 20.0782C232.441 20.0889 232.247 20.0969 232.058 20.1116C232.01 20.1156 231.967 20.141 231.939 20.1584C231.888 20.1904 231.943 20.2345 232.105 20.2385C232.291 20.2439 232.484 20.2212 232.677 20.2105C232.922 20.1971 233.068 20.1477 232.978 20.1049C232.891 20.0635 232.772 20.0555 232.63 20.0782ZM24.7866 17.2227C24.913 17.2161 25.0433 17.2107 25.1696 17.2014C25.2881 17.192 25.379 17.1626 25.4382 17.1185C25.3395 17.0838 25.2289 17.0651 25.1065 17.0691C24.913 17.0771 24.7235 17.0878 24.534 17.1011C24.4155 17.1092 24.3011 17.1386 24.2734 17.184C24.2458 17.2187 24.5102 17.2388 24.7866 17.2227ZM215.932 17.017C215.983 17.029 216.035 17.053 216.086 17.053C216.212 17.053 216.343 17.045 216.461 17.0317C216.513 17.0263 216.552 17.0023 216.576 16.9836C216.591 16.9715 216.588 16.9502 216.564 16.9395C216.449 16.8753 215.991 16.898 215.916 16.9715C215.908 16.9849 215.928 17.0023 215.932 17.017ZM203.475 9.69989C203.486 9.72127 203.49 9.74264 203.506 9.76402C203.538 9.80411 203.625 9.83351 203.751 9.85355C203.85 9.82015 203.901 9.78274 203.897 9.74265C203.893 9.72128 203.881 9.69988 203.866 9.6785C203.834 9.63842 203.747 9.60903 203.621 9.58899C203.522 9.62106 203.475 9.65846 203.475 9.69989ZM276.008 27.2082C275.972 27.2256 275.937 27.2429 275.897 27.259C276.004 27.2977 276.103 27.3098 276.178 27.2884C276.225 27.275 276.253 27.255 276.288 27.2376C276.182 27.1988 276.087 27.1882 276.008 27.2082ZM273.552 27.3899C273.603 27.402 273.651 27.418 273.706 27.426C273.797 27.4394 273.88 27.4166 273.943 27.3685C273.892 27.3565 273.844 27.3405 273.789 27.3325C273.698 27.3191 273.615 27.3418 273.552 27.3899ZM275.108 27.1454C275.08 27.1775 275.135 27.2042 275.282 27.2269C275.317 27.2095 275.364 27.1935 275.388 27.1748C275.428 27.1441 275.36 27.116 275.218 27.0946C275.179 27.1107 275.143 27.128 275.108 27.1454ZM266.773 25.705C266.745 25.737 266.8 25.7638 266.946 25.7865C266.982 25.7691 267.029 25.7531 267.053 25.7344C267.092 25.7036 267.025 25.6756 266.883 25.6542C266.844 25.6702 266.808 25.6876 266.773 25.705ZM255.417 16.25C255.381 16.2673 255.346 16.2847 255.306 16.3008C255.413 16.3395 255.511 16.3515 255.587 16.3301C255.634 16.3168 255.662 16.2967 255.697 16.2794C255.59 16.2406 255.496 16.2299 255.417 16.25ZM244.539 11.2338C244.633 11.2432 244.712 11.2245 244.78 11.1751C244.728 11.163 244.681 11.147 244.626 11.139C244.535 11.1256 244.452 11.1483 244.389 11.1964C244.44 11.2098 244.491 11.2218 244.539 11.2338ZM238.762 10.9198C238.727 10.9372 238.691 10.9546 238.652 10.9706C238.758 11.0094 238.857 11.0214 238.932 11C238.979 10.9867 239.007 10.9666 239.042 10.9492C238.936 10.9105 238.841 10.9011 238.762 10.9198ZM199.589 9.69855C199.554 9.71592 199.518 9.73329 199.479 9.74933C199.585 9.78808 199.684 9.8001 199.759 9.77872C199.807 9.76536 199.834 9.74531 199.87 9.72794C199.763 9.68919 199.668 9.67984 199.589 9.69855ZM4.53887 20.5699C4.48754 20.5579 4.43626 20.5459 4.38888 20.5325C4.27437 20.5686 4.23885 20.602 4.30202 20.6274C4.34151 20.6434 4.40069 20.6528 4.45202 20.6648C4.57047 20.6287 4.5981 20.5966 4.53887 20.5699Z" fill="#FFE492"/>
<path d="M23.2218 7.38041C22.7678 7.4058 22.3177 7.43786 21.8636 7.45389C21.6227 7.46191 21.5359 7.51937 21.4372 7.57282C21.3582 7.61558 21.2674 7.62893 21.1213 7.63695C19.8894 7.70243 18.6614 7.77191 17.4334 7.84006C17.2794 7.82269 17.2044 7.79463 17.2399 7.76123C17.2597 7.74118 17.3071 7.71312 17.3545 7.71045C18.1955 7.66101 19.0325 7.61023 19.8775 7.57148C20.1183 7.56079 20.1855 7.502 20.3079 7.45389C20.3474 7.43786 20.379 7.41381 20.4303 7.40445C20.4817 7.39376 20.5567 7.3951 20.6238 7.39243C21.9821 7.31627 23.3404 7.24145 24.6986 7.16528C24.8526 7.18265 24.9277 7.21071 24.8921 7.24411C24.8724 7.26416 24.825 7.29222 24.7776 7.29489C24.2564 7.32295 23.7391 7.35101 23.2218 7.38041Z" fill="#FFE492"/>
<path d="M271.171 14.4959C270.966 14.5119 270.705 14.5347 270.492 14.4572C270.389 14.4197 270.279 14.4077 270.145 14.4157C269.951 14.4291 269.754 14.4398 269.556 14.4478C269.505 14.4491 269.438 14.4344 269.386 14.4224C269.276 14.3984 269.181 14.3583 269.063 14.3476C268.944 14.3369 268.802 14.3663 268.68 14.3596C268.518 14.3503 268.451 14.3142 268.494 14.2808C268.518 14.2621 268.565 14.2353 268.617 14.2313C269.347 14.1819 269.351 14.1819 269.556 14.23C269.714 14.2674 269.86 14.3088 270.085 14.2861C270.275 14.2674 270.476 14.2634 270.67 14.2514C270.938 14.2353 270.938 14.2367 271.373 14.3209C271.483 14.3422 271.602 14.3409 271.744 14.3289C271.866 14.3195 271.985 14.3409 272.083 14.377C272.02 14.4224 271.929 14.4518 271.807 14.4598C271.609 14.4732 271.416 14.4825 271.171 14.4959Z" fill="#FFE492"/>
<path d="M264.731 14.084C265.229 14.056 265.73 14.0319 266.228 13.9999C266.433 13.9865 266.595 14.0012 266.737 14.0466C266.891 14.0961 267.065 14.0921 267.254 14.0827C267.373 14.0774 267.487 14.0987 267.566 14.1361C267.598 14.1508 267.59 14.1776 267.602 14.1989C267.167 14.223 266.729 14.2484 266.291 14.2698C266.24 14.2724 266.176 14.2591 266.129 14.2484C266.022 14.2257 265.932 14.1856 265.817 14.1776C265.572 14.1589 265.327 14.1949 265.079 14.2016C264.96 14.2043 264.846 14.1842 264.767 14.1482C264.735 14.1308 264.743 14.1054 264.731 14.084Z" fill="#FFE492"/>
<path d="M83.9009 2.59563C84.4181 2.56623 84.9354 2.53819 85.4526 2.50879C85.6066 2.5275 85.6777 2.55422 85.6461 2.58762C85.6263 2.60766 85.5789 2.63572 85.5316 2.6384C84.4971 2.69853 83.4626 2.75597 82.4321 2.81343C82.2781 2.79472 82.207 2.76801 82.2386 2.7346C82.2583 2.71456 82.3057 2.6865 82.3531 2.68382C82.8664 2.65309 83.3836 2.62503 83.9009 2.59563Z" fill="#FFE492"/>
<path d="M4.33818 10.0207C4.10522 10.0233 3.86046 10.0728 3.59986 10.0354C3.54853 10.0287 3.47744 10.0073 3.48139 9.99526C3.48929 9.97522 3.53668 9.94983 3.58801 9.94181C3.81307 9.9084 4.09344 9.9044 4.20794 9.81086C4.26322 9.76276 4.36588 9.74673 4.50408 9.73738C4.65017 9.72669 4.7528 9.73069 4.86731 9.75875C5.01735 9.79483 5.14372 9.86164 5.38063 9.8269C5.39247 9.84828 5.42004 9.87233 5.4082 9.89237C5.39635 9.91241 5.34511 9.93112 5.29772 9.94582C5.25429 9.95918 5.19501 9.97121 5.13973 9.97521C4.87913 9.99125 4.61852 10.0046 4.33818 10.0207Z" fill="#FFE492"/>
<path d="M210.336 9.75221C210.529 9.74152 210.73 9.73618 210.92 9.71747C211.07 9.70277 211.165 9.71212 211.283 9.74419C211.485 9.80031 211.496 9.79497 211.99 9.80299C212.045 9.80433 212.112 9.82436 212.144 9.84173C212.164 9.85108 212.136 9.87648 212.112 9.88985C212.077 9.90722 212.026 9.92992 211.978 9.92992C211.666 9.93393 211.35 10.0128 211.046 9.92191C210.892 9.87648 210.723 9.85509 210.513 9.87513C210.387 9.88716 210.253 9.89251 210.122 9.89785C209.996 9.9032 209.866 9.8885 209.787 9.84842C209.672 9.78962 209.739 9.76691 209.945 9.77092C210.075 9.77359 210.205 9.75889 210.336 9.75221Z" fill="#FFE492"/>
<path d="M281.559 18.9628C281.807 18.9494 282.056 18.9334 282.309 18.9227C282.36 18.92 282.423 18.9347 282.471 18.9441C282.66 18.9842 282.633 19.0523 282.64 19.1124C282.644 19.1752 282.206 19.226 282.021 19.1832C281.815 19.1351 281.63 19.0804 281.345 19.1098C281.235 19.1204 281.104 19.0964 281.033 19.0576C280.927 19.0015 280.986 18.9788 281.187 18.9828C281.306 18.9855 281.432 18.9708 281.559 18.9628Z" fill="#FFE492"/>
<path d="M155.624 0.775585C155.881 0.760887 156.138 0.738182 156.394 0.736846C156.544 0.73551 156.619 0.779596 156.584 0.811665C156.564 0.831708 156.517 0.859769 156.469 0.862442C155.956 0.894511 155.443 0.921239 154.929 0.950636C154.779 0.931929 154.704 0.903873 154.74 0.871804C154.76 0.851761 154.807 0.825036 154.854 0.821028C155.111 0.802321 155.368 0.790283 155.624 0.775585Z" fill="#FFE492"/>
<path d="M276.566 14.6133C276.815 14.5999 277.068 14.5798 277.317 14.5732C277.447 14.5705 277.55 14.6012 277.565 14.636C277.573 14.652 277.51 14.6801 277.459 14.6867C277.103 14.7322 276.72 14.7375 276.349 14.7602C276.231 14.7669 276.104 14.7455 276.033 14.7081C275.927 14.6507 275.986 14.6293 276.187 14.6333C276.314 14.6346 276.44 14.6199 276.566 14.6133Z" fill="#FFE492"/>
<path d="M216.491 9.93256C216.618 9.92588 216.748 9.9085 216.87 9.91385C217.001 9.92053 217.084 9.95928 217.123 9.99803C217.167 10.0421 217.163 10.0836 217.123 10.121C217.06 10.1851 216.997 10.1824 216.851 10.1397C216.626 10.0729 216.61 10.0809 216.164 10.0835C216.112 10.0835 216.049 10.0635 216.01 10.0461C215.95 10.0194 215.982 9.97799 216.12 9.95394C216.223 9.93657 216.365 9.93924 216.491 9.93256Z" fill="#FFE492"/>
<path d="M267.618 14.1748C267.804 14.1641 267.989 14.1468 268.175 14.1468C268.305 14.1454 268.408 14.1762 268.42 14.2096C268.424 14.2256 268.365 14.2523 268.317 14.2603C268.092 14.2964 267.839 14.2991 267.595 14.3111C267.48 14.3165 267.354 14.2951 267.283 14.2577C267.176 14.2015 267.239 14.1762 267.433 14.1842C267.492 14.1868 267.555 14.1788 267.618 14.1748Z" fill="#FFE492"/>
<path d="M237.75 12.5356C237.473 12.5517 237.213 12.5316 237.232 12.4969C237.26 12.4515 237.374 12.422 237.493 12.414C237.682 12.4007 237.872 12.39 238.065 12.382C238.188 12.3766 238.298 12.3967 238.397 12.4314C238.338 12.4742 238.247 12.5049 238.129 12.5142C238.006 12.5236 237.876 12.5289 237.75 12.5356Z" fill="#FFE492"/>
<path d="M236.368 12.3645C236.554 12.3538 236.739 12.3365 236.925 12.3365C237.055 12.3351 237.158 12.3659 237.17 12.3993C237.174 12.4153 237.115 12.442 237.067 12.45C236.842 12.4861 236.589 12.4888 236.345 12.5008C236.23 12.5062 236.104 12.4848 236.033 12.4474C235.926 12.3912 235.989 12.3659 236.183 12.3739C236.242 12.3766 236.305 12.3685 236.368 12.3645Z" fill="#FFE492"/>
<path d="M213.868 9.92203C214.054 9.91134 214.239 9.89396 214.425 9.89262C214.555 9.89128 214.658 9.92203 214.67 9.95543C214.674 9.97147 214.615 9.99686 214.567 10.0062C214.342 10.0423 214.089 10.045 213.845 10.057C213.73 10.0623 213.604 10.0409 213.533 10.0035C213.426 9.94742 213.489 9.92202 213.683 9.93004C213.742 9.93271 213.805 9.9247 213.868 9.92203Z" fill="#FFE492"/>
<path d="M212.729 9.84281C212.926 9.83212 212.99 9.82544 213.053 9.82544C213.171 9.82544 213.294 9.84148 213.365 9.88023C213.471 9.93635 213.408 9.95239 213.215 9.95506C212.966 9.95774 212.721 9.9858 212.472 9.99114C212.342 9.99382 212.239 9.96174 212.231 9.92833C212.227 9.9123 212.287 9.88424 212.334 9.87889C212.5 9.85885 212.682 9.84682 212.729 9.84281Z" fill="#FFE492"/>
<path d="M235.303 1.98204C235.177 1.98872 235.043 2.00743 234.924 2.00074C234.766 1.99139 234.703 1.95532 234.743 1.92191C234.766 1.90321 234.81 1.87648 234.857 1.87247C235.11 1.85377 235.366 1.84173 235.619 1.82837C235.769 1.84841 235.836 1.87647 235.797 1.90988C235.773 1.92858 235.73 1.95397 235.682 1.95931C235.56 1.97268 235.43 1.97536 235.303 1.98204Z" fill="#FFE492"/>
<path d="M81.4354 2.75325C81.5578 2.75191 81.6683 2.76928 81.763 2.80268C81.7038 2.84544 81.617 2.8735 81.4985 2.88553C81.4393 2.89087 81.3722 2.89488 81.309 2.89621C81.1866 2.89888 81.076 2.88018 80.9812 2.84677C81.0405 2.80401 81.1312 2.77596 81.2457 2.76393C81.305 2.75858 81.3722 2.75725 81.4354 2.75325Z" fill="#FFE492"/>
<path d="M274.731 14.6081C274.727 14.5694 274.968 14.5253 275.185 14.5266C275.3 14.528 275.418 14.5467 275.485 14.5828C275.588 14.6376 275.529 14.6589 275.335 14.6549C275.217 14.6522 275.091 14.675 274.972 14.6709C274.838 14.6696 274.759 14.6402 274.731 14.6081Z" fill="#FFE492"/>
<path d="M217.247 10.0941C217.243 10.0794 217.223 10.062 217.235 10.0487C217.31 9.97517 217.764 9.95245 217.883 10.0166C217.902 10.0286 217.91 10.0487 217.894 10.0607C217.871 10.0794 217.827 10.1034 217.78 10.1088C217.657 10.1221 217.531 10.1288 217.405 10.1302C217.35 10.1302 217.298 10.1074 217.247 10.0941Z" fill="#FFE492"/>
<path d="M6.4124 9.80676C5.94648 9.83482 5.93859 9.83214 6.0215 9.76533C6.09653 9.7052 6.23474 9.66912 6.43611 9.66912C6.49534 9.66912 6.55849 9.66645 6.60982 9.6718C6.6651 9.67848 6.74412 9.69183 6.75596 9.70786C6.77965 9.7386 6.71247 9.772 6.59401 9.79472C6.54268 9.80541 6.47557 9.80275 6.4124 9.80676Z" fill="#FFE492"/>
<path d="M87.6008 2.56449C87.4626 2.58721 87.3442 2.5792 87.2573 2.53644C87.1705 2.49368 87.3087 2.4429 87.5495 2.43087C87.6127 2.4282 87.6798 2.41752 87.739 2.42286C87.7983 2.42687 87.8575 2.44289 87.8931 2.45893C87.9563 2.48565 87.9168 2.52174 87.7904 2.55247C87.7391 2.5645 87.664 2.56182 87.6008 2.56449Z" fill="#FFE492"/>
<path d="M274.739 14.5078C274.775 14.4904 274.811 14.4731 274.85 14.457C274.996 14.4797 275.059 14.5065 275.02 14.5372C274.996 14.5559 274.949 14.5719 274.913 14.5893C274.767 14.5666 274.708 14.5385 274.739 14.5078Z" fill="#FFE492"/>
<path d="M12.2312 25.0184C12.2312 25.0024 12.2865 24.977 12.3299 24.9716C12.4129 24.9623 12.5155 24.981 12.5866 25.0184C12.6853 25.0718 12.6261 25.0999 12.4445 25.0852C12.3181 25.0745 12.2312 25.0478 12.2312 25.0184Z" fill="#FFE492"/>
<path d="M218.722 8.85047C218.773 8.8625 218.825 8.87453 218.872 8.88789C218.805 8.93733 218.722 8.9587 218.635 8.94534C218.58 8.93732 218.533 8.92128 218.481 8.90926C218.548 8.85982 218.627 8.84112 218.722 8.85047Z" fill="#FFE492"/>
<path d="M217.338 8.79017C217.417 8.77013 217.512 8.78083 217.622 8.81958C217.587 8.83695 217.555 8.85699 217.512 8.87035C217.437 8.89173 217.338 8.88103 217.231 8.84095C217.263 8.82491 217.298 8.80754 217.338 8.79017Z" fill="#FFE492"/>
<path d="M216.222 8.84923C216.273 8.86126 216.325 8.87329 216.372 8.88665C216.305 8.93609 216.226 8.95746 216.135 8.9441C216.08 8.93608 216.033 8.92004 215.981 8.90802C216.048 8.85858 216.127 8.83854 216.222 8.84923Z" fill="#FFE492"/>
<path d="M216.25 8.77838C216.309 8.80511 216.278 8.83717 216.163 8.87325C216.112 8.86122 216.053 8.85188 216.013 8.83585C215.95 8.81046 215.981 8.77704 216.1 8.74097C216.147 8.75433 216.199 8.76636 216.25 8.77838Z" fill="#FFE492"/>
</svg>
