<svg width="649" height="70" viewBox="0 0 649 70" fill="none" xmlns="http://www.w3.org/2000/svg">
<path d="M420.976 54.9465C420.363 54.9728 419.743 54.9909 419.141 55.0304C418.751 55.0551 418.584 54.9827 418.323 54.9449C418.236 54.9317 418.143 54.9053 418.063 54.9086C417.455 54.935 416.848 54.9646 416.24 54.9942C416.054 55.0584 415.937 55.144 415.652 55.1753C415.373 55.2049 415.044 55.2049 414.734 55.2198C414.325 55.2379 413.916 55.256 413.507 55.2724C413.302 55.2807 413.135 55.3119 413.067 55.3712C413.054 55.3811 413.191 55.4058 413.265 55.4206C413.513 55.47 413.755 55.5259 414.027 55.5638C414.288 55.6 414.61 55.5407 414.889 55.5868C415.515 55.6905 415.521 55.6889 415.999 55.6691C416.408 55.651 416.817 55.6313 417.226 55.6181C417.307 55.6148 417.4 55.6395 417.486 55.6527C417.747 55.6889 417.914 55.7712 418.298 55.7399C418.59 55.7152 418.912 55.7103 419.216 55.6971C419.47 55.7449 419.706 55.7992 419.978 55.8371C420.232 55.8733 420.307 55.9013 420.171 55.949C420.047 55.9934 419.873 56.0116 419.644 56.0149C419.439 56.0165 419.234 56.0313 419.03 56.0395C418.924 56.0445 418.825 56.0478 418.726 56.0527C418.336 56.0708 418.336 56.0708 417.623 55.9655C417.344 55.9243 417.028 55.9819 416.761 55.9424C416.581 55.9161 416.426 55.8766 416.253 55.8486C416.178 55.8371 416.061 55.8354 415.968 55.8387C415.658 55.8502 415.348 55.8585 415.05 55.8799C414.84 55.8947 414.716 55.9408 414.74 55.9869C414.747 56.005 414.895 56.0313 414.982 56.033C415.18 56.0362 415.391 56.0132 415.583 56.0247C415.769 56.0362 415.961 56.0692 416.098 56.1054C416.377 56.1811 416.693 56.1136 416.959 56.1334C417.238 56.1548 417.468 56.2206 417.734 56.2601C417.802 56.27 417.933 56.2535 418.038 56.2486C418.342 56.2371 418.646 56.2272 418.949 56.2157C419.204 56.2634 419.476 56.3062 419.706 56.3605C420.121 56.4593 420.567 56.4972 421.107 56.4494C421.41 56.4231 421.708 56.433 421.949 56.4972C422.197 56.563 422.483 56.5564 422.799 56.5433C423.09 56.5301 423.388 56.4939 423.685 56.54C424.33 56.642 424.336 56.647 425.099 56.6075C425.328 56.5959 425.501 56.5926 425.675 56.6305C425.836 56.6651 426.01 56.6947 426.177 56.7276C426.481 56.7161 426.791 56.7046 427.095 56.6914C427.485 56.6733 427.702 56.6963 427.795 56.7885C427.851 56.8445 427.876 56.8955 428.012 56.9334C428.173 56.9795 428.347 56.9778 428.582 56.9647C428.805 56.9531 428.967 56.935 429.06 56.8758C429.097 56.8511 429.171 56.828 429.239 56.8083C429.295 56.7935 429.382 56.7704 429.432 56.7737C429.525 56.7803 429.648 56.7984 429.679 56.8198C429.983 57.019 429.983 57.0206 430.293 57.0782C430.634 57.1424 430.987 57.2 431.297 57.2725C431.576 57.3367 431.855 57.3087 432.159 57.3087C432.388 57.3087 432.537 57.3515 432.519 57.3943C432.506 57.419 432.419 57.4552 432.345 57.4585C431.737 57.4914 431.124 57.5194 430.51 57.5424C430.436 57.5457 430.343 57.5161 430.256 57.5013C430.082 57.4717 429.927 57.4256 429.741 57.4157C429.556 57.4058 429.339 57.4305 429.134 57.4387C428.929 57.447 428.713 57.4684 428.527 57.4552C428.341 57.442 428.192 57.3943 428.018 57.363C427.938 57.3482 427.826 57.3268 427.758 57.3318C427.305 57.3713 426.971 57.3169 426.648 57.2445C426.58 57.2297 426.462 57.2198 426.376 57.2231C425.656 57.2511 424.944 57.284 424.225 57.3153C423.933 57.3284 423.698 57.2708 423.636 57.1737C423.605 57.1194 423.543 57.0651 423.543 57.0107C423.543 56.912 423.202 56.8577 422.954 56.8692C422.545 56.8856 422.129 56.8988 421.726 56.9235C421.398 56.9433 421.119 56.9235 420.896 56.8642C420.635 56.7967 420.338 56.8099 420.04 56.828C419.817 56.8412 419.755 56.8955 419.767 57.0322C419.78 57.1424 419.674 57.177 419.272 57.1951C418.763 57.2182 418.249 57.2412 417.734 57.2593C417.654 57.2626 417.561 57.2346 417.48 57.2198C417.307 57.1902 417.152 57.1424 416.966 57.1326C416.78 57.121 416.563 57.1457 416.358 57.1556C416.154 57.1638 415.937 57.1869 415.751 57.1754C415.565 57.1638 415.41 57.1145 415.242 57.0832C415.162 57.0684 415.063 57.047 414.982 57.0503C414.573 57.0634 414.164 57.0832 413.755 57.1013C413.296 57.121 413.296 57.121 412.645 57.019C412.347 56.9729 412.05 57.0091 411.759 57.0223C411.449 57.0355 411.157 57.042 410.916 56.9762C410.754 56.9334 410.575 56.9071 410.383 56.9153C409.868 56.935 409.36 56.9597 408.845 56.9795C408.758 56.9828 408.641 56.9745 408.572 56.9597C408.244 56.8906 407.922 56.8363 407.463 56.8708C407.066 56.9005 406.638 56.9021 406.242 56.9301C406.025 56.9449 405.925 56.9976 405.969 57.0387C405.994 57.0601 406.124 57.0848 406.211 57.0848C406.409 57.0865 406.626 57.0618 406.812 57.0717C407.196 57.0914 407.388 57.2297 407.891 57.1918C408.188 57.1688 408.498 57.1605 408.808 57.154C408.889 57.1523 408.975 57.1836 409.062 57.2001C409.31 57.2445 409.527 57.3021 409.887 57.2725C410.184 57.2494 410.5 57.2429 410.804 57.2297C411.288 57.2083 411.288 57.2099 411.914 57.3104C412.211 57.3581 412.509 57.3202 412.8 57.3087C413.017 57.3005 413.221 57.284 413.395 57.3071C413.662 57.3416 413.854 57.4206 414.182 57.4157C414.492 57.4108 414.796 57.3877 415.106 57.3795C415.298 57.3745 415.478 57.4009 415.633 57.4453C415.794 57.4898 415.968 57.5095 416.178 57.4996C416.482 57.4865 416.792 57.47 417.102 57.4618C417.189 57.4601 417.288 57.475 417.369 57.4881C417.542 57.5178 417.709 57.5523 417.877 57.5836C418.181 57.5737 418.491 57.5704 418.788 57.5507C419.018 57.5359 419.179 57.5425 419.365 57.5754C419.6 57.6198 419.792 57.6988 420.177 57.661C420.369 57.6429 420.592 57.6478 420.784 57.6313C421.02 57.6099 421.181 57.6182 421.348 57.6676C421.664 57.7614 422.061 57.763 422.47 57.7268C422.917 57.6873 423.251 57.7334 423.586 57.8058C423.939 57.8816 423.939 57.8799 424.212 58.0626C424.293 58.1153 424.522 58.14 424.714 58.1301C425.036 58.1137 425.316 58.1219 425.551 58.1844C425.799 58.2519 426.096 58.2437 426.4 58.2256C426.803 58.2009 427.206 58.1795 427.535 58.275C427.696 58.3211 427.87 58.3326 428.086 58.3211C428.7 58.2914 429.32 58.2733 429.921 58.2371C430.287 58.2141 430.498 58.2668 430.746 58.3112C431.08 58.3721 431.446 58.4264 431.446 58.5565C431.446 58.5779 431.533 58.6026 431.607 58.619C431.769 58.6536 431.942 58.6832 432.109 58.7161C432.357 58.7655 432.599 58.8067 432.94 58.7803C433.238 58.7589 433.554 58.7524 433.857 58.7375C434.161 58.7227 434.44 58.7145 434.713 58.777C435.029 58.8478 435.364 58.9153 435.723 58.968C435.977 59.0059 436.312 58.9417 436.585 58.9927C436.752 59.024 436.913 59.0602 437.093 59.0865C437.168 59.098 437.286 59.0898 437.385 59.0865C437.589 59.0799 437.8 59.075 437.998 59.0585C438.228 59.0404 438.401 59.0437 438.575 59.0816C438.736 59.1162 438.897 59.1639 439.083 59.1738C439.362 59.1886 439.672 59.1227 439.951 59.1985C440.094 59.2363 440.273 59.2725 440.459 59.2841C440.645 59.2956 440.862 59.2709 441.061 59.2725C441.147 59.2725 441.253 59.2989 441.302 59.3203C441.333 59.3318 441.29 59.3631 441.247 59.3795C441.191 59.3993 441.11 59.4256 441.03 59.4289C440.416 59.4586 439.802 59.4833 439.189 59.5112C438.823 59.5277 438.823 59.5277 438.085 59.424C437.912 59.3993 437.719 59.4042 437.502 59.4157C437.211 59.4306 436.914 59.4586 436.61 59.4289C436.213 59.317 435.723 59.3071 435.203 59.3499C434.986 59.368 434.787 59.368 434.626 59.3367C434.285 59.2742 433.926 59.2166 433.622 59.1425C433.386 59.0849 433.275 59.0799 433.176 59.159C433.145 59.1837 433.114 59.21 433.12 59.233C433.157 59.3153 433.225 59.396 433.262 59.4783C433.275 59.5013 433.225 59.5277 433.194 59.5524C433.095 59.6215 432.965 59.6166 432.748 59.559C432.531 59.5013 432.271 59.4635 431.923 59.4898C431.626 59.5129 431.304 59.5096 431.006 59.5343C430.547 59.5705 430.225 59.5178 429.896 59.447C429.828 59.4322 429.711 59.424 429.624 59.4273C428.7 59.4651 427.783 59.5079 426.859 59.5458C426.661 59.554 426.481 59.5293 426.326 59.4849C426.165 59.4404 425.985 59.4174 425.787 59.4256C424.968 59.4602 424.15 59.4915 423.332 59.5343C422.997 59.5524 422.731 59.531 422.501 59.4734C422.328 59.4306 422.166 59.4174 421.949 59.4223C421.714 59.4273 421.547 59.4437 421.429 59.4915C421.317 59.5376 421.398 59.5655 421.646 59.6018C421.912 59.6413 422.16 59.6923 422.414 59.7384C422.619 59.7318 422.824 59.7186 423.022 59.7203C423.109 59.7203 423.189 59.7499 423.276 59.7664C423.524 59.8141 423.753 59.8619 424.107 59.8355C424.404 59.8125 424.72 59.8075 425.024 59.7927C425.446 59.7746 425.446 59.7746 426.128 59.8783C426.301 59.9047 426.487 59.903 426.71 59.8882C426.902 59.8767 427.101 59.8997 427.237 59.9491C427.293 59.9688 427.274 60.0018 427.157 60.1104C427.157 60.1911 427.287 60.1549 427.33 60.1022C427.398 60.0265 427.268 60.0018 427.02 60.0429C426.847 60.0726 426.76 60.1154 426.803 60.1499C426.828 60.168 426.946 60.1911 427.157 60.1104C427.702 60.0117 428.117 60.0001 428.514 59.9738C428.75 59.959 428.898 59.9656 429.084 60.0084C429.308 60.0594 429.531 60.1137 429.896 60.0874C430.293 60.0578 430.715 60.0544 431.118 60.0298C431.49 60.0067 431.682 60.0791 431.917 60.1219C432.202 60.173 432.519 60.1154 432.779 60.145C433.052 60.1746 433.244 60.247 433.56 60.2602C434.019 60.2158 434.31 60.2981 434.657 60.3524C434.93 60.3936 435.252 60.3573 435.544 60.3392C435.872 60.3195 436.145 60.3376 436.374 60.3969C436.635 60.4643 436.926 60.4495 437.224 60.4347C437.918 60.4018 437.943 60.3968 438.345 60.4874C438.637 60.5532 438.916 60.5236 439.207 60.5154C439.461 60.5598 439.709 60.6075 439.976 60.6471C440.044 60.6569 440.174 60.6405 440.28 60.6355C440.583 60.6224 440.893 60.6092 441.197 60.596C441.402 60.5878 441.618 60.5631 441.804 60.573C441.99 60.5845 442.145 60.6323 442.313 60.6635C442.48 60.6948 442.654 60.7261 442.815 60.759C443.063 60.8084 443.298 60.8495 443.645 60.8248C443.943 60.8034 444.253 60.7969 444.563 60.782C444.953 60.7639 444.941 60.7689 445.666 60.8676C446.057 60.922 446.46 60.8561 446.856 60.8495C447.055 60.8463 447.247 60.8644 447.383 60.9121C447.439 60.9319 447.421 60.9648 447.439 60.9928C446.416 61.0372 445.387 61.0751 444.377 61.1294C443.986 61.1508 443.782 61.0915 443.571 61.0421C443.224 60.9631 442.765 61.0783 442.437 60.9763C442.238 60.9154 441.953 60.8808 441.612 60.9104C441.414 60.9269 441.203 60.9253 440.999 60.9401C440.478 60.9763 440.001 60.9779 439.585 60.8644C439.443 60.8248 439.238 60.8034 439.089 60.7656C438.916 60.7244 438.748 60.7014 438.544 60.7096C437.62 60.7491 436.703 60.7886 435.785 60.8314C435.705 60.8347 435.624 60.8594 435.556 60.8775C435.382 60.9236 435.438 60.9598 435.717 60.9895C435.81 60.9993 435.885 61.0207 435.971 61.0372C436.139 61.0685 436.294 61.1179 436.48 61.1294C436.666 61.1409 436.883 61.1179 437.087 61.1096C437.292 61.1014 437.509 61.0767 437.695 61.0866C437.881 61.0981 438.036 61.1458 438.209 61.1755C438.29 61.1903 438.389 61.215 438.47 61.2133C438.879 61.2035 439.282 61.1853 439.691 61.1705C439.945 61.215 440.162 61.2792 440.466 61.294C440.658 61.3039 440.862 61.2858 441.061 61.289C441.147 61.2907 441.259 61.3154 441.302 61.3368C441.327 61.35 441.247 61.3829 441.185 61.3993C440.949 61.4619 440.627 61.4504 440.335 61.4701C440.019 61.4915 439.734 61.4849 439.492 61.4207C439.331 61.3779 439.151 61.3549 438.953 61.3631C438.438 61.3845 437.93 61.4092 437.416 61.4273C437.329 61.4306 437.223 61.4158 437.143 61.4043C436.492 61.3039 436.492 61.3006 436.033 61.322C435.358 61.3533 435.358 61.3532 434.905 61.266C434.818 61.2495 434.725 61.2183 434.651 61.2199C433.932 61.2463 433.219 61.2726 432.506 61.3104C432.271 61.322 432.109 61.322 431.936 61.2792C431.787 61.243 431.614 61.2018 431.428 61.1919C431.235 61.1821 431.025 61.2067 430.82 61.215C430.616 61.2232 430.399 61.2446 430.219 61.2314C430.033 61.2183 429.872 61.1722 429.71 61.1393C429.543 61.1047 429.363 61.1063 429.134 61.1195C428.427 61.1574 428.421 61.1524 427.721 61.0504C427.64 61.0388 427.535 61.0257 427.448 61.029C426.933 61.0487 426.425 61.0734 425.911 61.0932C425.712 61.1014 425.52 61.08 425.384 61.0323C425.328 61.0125 425.347 60.9796 425.309 60.9154C425.266 60.9006 425.315 60.9269 425.328 60.9516C425.421 60.9483 425.533 60.9516 425.601 60.9384C425.774 60.9071 425.861 60.866 425.818 60.8314C425.793 60.8133 425.675 60.7903 425.601 60.7903C425.464 60.7903 425.347 60.8265 425.309 60.9154C424.919 60.9697 424.503 60.9812 424.1 61.0076C423.865 61.024 423.716 61.0158 423.53 60.973C423.307 60.9203 423.078 60.8693 422.712 60.8956C422.315 60.9252 421.894 60.9302 421.485 60.9533C421.013 60.9796 420.809 60.8314 420.412 60.8347C420.003 60.838 419.594 60.866 419.185 60.8858C418.825 60.9022 418.825 60.9022 418.081 60.7952C417.809 60.7557 417.486 60.8133 417.22 60.7722C417.04 60.7458 416.885 60.7063 416.712 60.6783C416.637 60.6668 416.519 60.6668 416.426 60.6701C415.912 60.6899 415.391 60.703 414.895 60.7392C414.331 60.782 413.903 60.736 413.501 60.6388C412.992 60.6569 412.478 60.6668 411.976 60.6981C411.61 60.7211 411.399 60.6668 411.151 60.6224C411.064 60.6076 410.99 60.5829 410.897 60.5763C410.804 60.5697 410.692 60.5829 410.593 60.5878C410.184 60.6059 409.763 60.6141 409.366 60.6438C408.876 60.6816 408.69 60.5466 408.312 60.5302C408.058 60.6108 407.922 60.7211 407.419 60.7294C407.01 60.7359 406.601 60.7623 406.192 60.7804C405.988 60.7886 405.783 60.7985 405.578 60.8067C405.25 60.8216 405.095 60.8857 405.163 60.9845C405.2 61.0388 405.231 61.0932 405.262 61.1475C405.324 61.2446 405.169 61.3269 404.909 61.3384C404.19 61.3697 403.477 61.4026 402.758 61.4306C402.566 61.4388 402.38 61.4109 402.225 61.3664C402.064 61.322 401.884 61.3022 401.685 61.3104C400.966 61.3417 400.254 61.3747 399.535 61.4026C399.454 61.4059 399.349 61.3895 399.268 61.3763C399.094 61.3467 398.927 61.3121 398.76 61.2808C398.351 61.2956 397.948 61.3055 397.545 61.3253C396.894 61.3549 396.894 61.3565 396.416 61.266C396.33 61.2495 396.243 61.2183 396.162 61.2199C395.852 61.2265 395.549 61.243 395.239 61.2578C394.328 61.3006 394.327 61.3006 394.061 61.2512C393.819 61.2051 393.602 61.1491 393.236 61.1755C392.84 61.2051 392.418 61.215 392.009 61.2314C391.705 61.243 391.402 61.2561 391.098 61.2594C391.017 61.2611 390.931 61.2298 390.844 61.2133C390.596 61.1623 390.354 61.1211 390.013 61.1491C389.815 61.1656 389.604 61.1689 389.399 61.1771C388.866 61.2002 388.866 61.2002 387.992 61.1014C387.905 61.0915 387.8 61.08 387.713 61.0849C386.994 61.1146 386.281 61.1475 385.562 61.1755C385.475 61.1788 385.37 61.1689 385.283 61.1606C384.304 61.0652 384.304 61.0652 383.263 61.1113C382.866 61.1277 382.853 61.1343 382.438 61.0471C382.252 61.0092 382.097 60.9911 381.88 61.0026C381.062 61.0421 380.238 61.0685 379.425 61.1146C379.06 61.1343 378.849 61.0849 378.601 61.0405C378.514 61.0257 378.421 60.9928 378.347 60.9944C377.529 61.0257 376.71 61.0635 375.892 61.0948C375.818 61.0981 375.725 61.0652 375.638 61.0504C375.471 61.0207 375.309 60.9763 375.123 60.9664C374.931 60.9565 374.72 60.9812 374.51 60.9895C373.995 61.0109 373.995 61.0092 373.4 60.9121C373.319 60.8989 373.214 60.8808 373.134 60.8841C372.315 60.917 371.491 60.945 370.679 60.9928C370.214 61.0191 369.898 60.9713 369.569 60.9022C369.501 60.8874 369.383 60.8808 369.297 60.8841C368.373 60.922 367.455 60.9648 366.532 61.0026C366.34 61.0109 366.154 60.9829 365.999 60.9401C365.751 60.8726 365.459 60.8808 365.15 60.8956C364.437 60.9302 364.43 60.9286 364.009 60.8495C363.922 60.8331 363.848 60.8117 363.755 60.8034C363.668 60.7952 363.556 60.8002 363.463 60.8034C363.054 60.8199 362.645 60.838 362.236 60.8561C361.827 60.8742 361.411 60.8841 361.009 60.9121C360.513 60.9467 360.277 60.8396 359.93 60.7903C359.422 60.8117 358.901 60.8248 358.399 60.8594C358.015 60.8857 357.835 60.8133 357.581 60.7755C357.494 60.7623 357.401 60.7343 357.32 60.7376C356.397 60.7738 355.473 60.8133 354.556 60.8578C354.332 60.8676 354.184 60.8545 353.998 60.815C353.582 60.7261 353.564 60.7294 352.87 60.7623C352.566 60.7771 352.274 60.7903 352.014 60.7228C351.785 60.6619 351.506 60.6471 351.177 60.6668C350.774 60.6915 350.359 60.7047 349.95 60.7211C349.541 60.7392 349.132 60.7639 348.723 60.7722C348.394 60.7804 348.196 60.703 347.935 60.6635C347.855 60.652 347.743 60.6504 347.65 60.6536C347.241 60.6685 346.82 60.68 346.423 60.708C345.939 60.7425 345.673 60.652 345.332 60.5993C345.257 60.5878 345.133 60.5944 345.04 60.5993C344.321 60.629 343.608 60.6619 342.889 60.6931C342.635 60.6487 342.375 60.6059 342.121 60.5615C341.712 60.5779 341.302 60.596 340.893 60.6125C340.583 60.6257 340.267 60.6306 339.976 60.6553C339.598 60.6882 339.412 60.6108 339.158 60.573C339.071 60.5598 338.978 60.5318 338.897 60.5351C338.383 60.5532 337.868 60.573 337.36 60.601C336.876 60.629 336.684 60.4808 336.288 60.4824C335.879 60.4841 335.457 60.5055 335.06 60.5351C334.602 60.5697 334.279 60.517 333.951 60.4462C333.882 60.4314 333.765 60.4232 333.678 60.4265C333.163 60.4462 332.655 60.4709 332.141 60.4907C332.054 60.494 331.948 60.4857 331.862 60.4759C330.882 60.3787 330.882 60.3771 330.455 60.3969C330.151 60.41 329.841 60.4265 329.531 60.4347C329.444 60.438 329.339 60.4232 329.258 60.41C328.613 60.3096 328.613 60.308 328.148 60.3277C327.739 60.3458 327.33 60.3639 326.921 60.382C326.667 60.3376 326.407 60.2948 326.152 60.2503C325.644 60.2717 325.123 60.2882 324.621 60.3178C324.386 60.331 324.231 60.3261 324.051 60.2849C323.828 60.2355 323.605 60.1779 323.233 60.2059C322.836 60.2355 322.415 60.2388 322.012 60.2635C321.528 60.2931 321.33 60.1433 320.939 60.145C320.53 60.1466 320.109 60.168 319.712 60.1977C319.253 60.2322 318.931 60.1796 318.602 60.1088C318.534 60.094 318.416 60.0857 318.33 60.089C317.201 60.1368 316.079 60.1845 314.951 60.2355C314.257 60.2668 314.257 60.2684 312.937 60.1779C312.844 60.1713 312.744 60.1647 312.651 60.168C312.242 60.1829 311.821 60.1944 311.424 60.2224C310.94 60.2569 310.674 60.168 310.333 60.1137C310.259 60.1022 310.141 60.1088 310.042 60.1121C309.732 60.1236 309.428 60.1384 309.118 60.1516C308.709 60.1697 308.3 60.1878 307.891 60.2059C307.637 60.1631 307.376 60.1186 307.122 60.0758C306.614 60.0972 306.093 60.1088 305.591 60.1433C305.207 60.1697 305.027 60.1005 304.773 60.061C304.686 60.0479 304.593 60.0199 304.512 60.0215C303.589 60.0577 302.665 60.0956 301.748 60.1417C301.37 60.1615 301.196 60.0874 300.942 60.0495C300.855 60.038 300.756 60.0166 300.675 60.0199C300.062 60.0429 299.448 60.0709 298.834 60.0989C298.487 60.1154 298.487 60.1154 297.731 60.0133C297.644 60.0018 297.545 59.9902 297.458 59.9935C295.512 60.0758 293.571 60.1631 291.625 60.2454C291.427 60.2536 291.247 60.2289 291.092 60.1845C290.931 60.1401 290.751 60.117 290.552 60.1252C289.734 60.1598 288.91 60.1911 288.098 60.2339C287.763 60.252 287.496 60.2306 287.267 60.173C287.094 60.1302 286.932 60.1137 286.715 60.1236C286.306 60.1433 285.897 60.1598 285.488 60.1779C285.079 60.196 284.67 60.2141 284.261 60.2322C283.852 60.2504 283.436 60.2602 283.033 60.2882C282.537 60.3228 282.296 60.2207 281.955 60.1697C281.341 60.1944 280.727 60.2191 280.12 60.2454C279.302 60.28 278.483 60.3178 277.665 60.3508C277.591 60.3541 277.498 60.3244 277.411 60.3096C277.157 60.2685 276.971 60.2108 276.593 60.2289C274.758 60.3162 272.911 60.3903 271.07 60.4759C270.685 60.494 270.518 60.4232 270.257 60.3853C270.171 60.3738 270.072 60.3508 269.991 60.3541C268.968 60.3952 267.945 60.4413 266.923 60.4857C266.507 60.5038 266.507 60.5038 265.813 60.4018C265.732 60.3903 265.627 60.3754 265.54 60.3787C264.207 60.4347 262.881 60.494 261.548 60.5516C261.35 60.5598 261.17 60.5368 261.009 60.4923C260.854 60.4479 260.668 60.4232 260.476 60.4314C259.248 60.4841 258.015 60.5351 256.794 60.5927C256.465 60.6092 256.192 60.5944 255.957 60.5351C255.789 60.4923 255.622 60.4742 255.411 60.4841C253.57 60.5647 251.729 60.6421 249.888 60.7277C249.535 60.7442 249.287 60.7129 249.064 60.6586C248.884 60.6158 248.729 60.6076 248.506 60.6141C248.27 60.6224 248.128 60.6405 247.997 60.6899C247.83 60.7541 247.725 60.8347 247.328 60.8397C246.919 60.8446 246.503 60.8644 246.101 60.8923C245.716 60.9203 245.536 60.8462 245.295 60.8018C245.115 60.7705 244.948 60.7656 244.718 60.7804C244.507 60.7936 244.377 60.8215 244.253 60.8742C243.981 60.9862 243.956 60.9862 243.621 60.9154C243.441 60.8775 243.28 60.8479 243.082 60.8545C242.263 60.8874 241.445 60.9236 240.627 60.9615C240.156 60.9829 240.15 60.9862 239.796 60.9039C239.623 60.8627 239.455 60.8429 239.251 60.8528C237.001 60.9516 234.751 61.0471 232.5 61.1508C232.153 61.1672 231.918 61.1327 231.67 61.0833C231.589 61.0668 231.508 61.0438 231.416 61.0372C231.323 61.0306 231.217 61.0372 231.118 61.0405C229.481 61.1113 227.839 61.1788 226.208 61.2578C225.836 61.2759 225.638 61.2232 225.384 61.1804C225.297 61.1656 225.223 61.1426 225.13 61.136C225.037 61.131 224.925 61.1425 224.826 61.1475C223.19 61.2183 221.547 61.2858 219.917 61.3648C219.526 61.3829 219.359 61.3137 219.105 61.2775C219.018 61.2644 218.925 61.2397 218.844 61.243C218.33 61.2611 217.821 61.2858 217.307 61.3072C216.08 61.3615 214.852 61.4125 213.625 61.4685C213.154 61.4899 212.949 61.3434 212.552 61.35C212.038 61.3582 211.53 61.3911 211.015 61.4142C210.606 61.4323 210.197 61.4487 209.788 61.4685C209.385 61.4866 209.385 61.4866 208.38 61.3911C208.294 61.3829 208.188 61.3714 208.102 61.3746C206.67 61.4356 205.232 61.4965 203.806 61.5623C203.477 61.5771 203.204 61.5689 202.969 61.508C202.802 61.4652 202.628 61.4438 202.423 61.4537C200.272 61.5475 198.128 61.6413 195.977 61.7335C195.896 61.7368 195.791 61.7203 195.71 61.7072C195.537 61.6775 195.369 61.643 195.202 61.6117C195.078 61.6496 194.917 61.6841 194.836 61.7269C194.725 61.7845 194.576 61.801 194.34 61.8109C194.105 61.8208 193.956 61.8175 193.77 61.7747C193.547 61.722 193.317 61.6808 192.952 61.6973C190.701 61.801 188.451 61.8948 186.201 61.9969C185.829 62.0134 185.656 61.9409 185.395 61.9031C185.308 61.8915 185.209 61.8734 185.129 61.8767C184.205 61.9146 183.288 61.9557 182.364 61.9952C179.804 62.1072 177.244 62.2142 174.69 62.3327C174.225 62.3541 173.909 62.3129 173.58 62.2422C173.512 62.2274 173.394 62.2191 173.308 62.2224C169.725 62.3771 166.142 62.5335 162.565 62.6899C162.373 62.6981 162.187 62.6718 162.032 62.629C161.871 62.5846 161.691 62.5632 161.492 62.5714C159.856 62.6422 158.22 62.713 156.583 62.7854C156.174 62.8035 156.168 62.8051 155.746 62.7261C155.659 62.7097 155.566 62.6784 155.498 62.6817C155.356 62.6899 155.219 62.7311 155.12 62.787C155.021 62.8463 154.866 62.8628 154.636 62.8743C154.401 62.8858 154.246 62.8809 154.066 62.8414C153.837 62.792 153.626 62.7442 153.254 62.7607C148.549 62.9714 143.844 63.1739 139.139 63.3829C138.761 63.3994 138.588 63.3303 138.327 63.2924C138.24 63.2809 138.154 63.2644 138.061 63.2611C137.962 63.2578 137.856 63.2677 137.757 63.2726C130.083 63.6068 122.409 63.9426 114.735 64.2768C114.276 64.2965 114.282 64.2965 113.78 64.448C113.718 64.4661 113.637 64.4908 113.55 64.4941C111.201 64.5994 108.846 64.7015 106.49 64.8035C105.467 64.848 104.444 64.8941 103.422 64.9369C103.056 64.9517 103.056 64.9517 102.182 65.1295C102.108 65.1443 102.021 65.1641 101.934 65.1673C97.8426 65.3468 93.7513 65.5262 89.6539 65.7023C89.3316 65.7155 89.0713 65.7451 88.9225 65.8242C88.8171 65.8801 88.6807 65.913 88.4762 65.9229C85.6123 66.048 82.7485 66.1748 79.8784 66.2966C79.5375 66.3114 79.3329 66.3575 79.1655 66.4266C79.1097 66.4497 79.0601 66.476 78.9795 66.4925C78.9051 66.5073 78.7936 66.5122 78.7006 66.5172C76.2458 66.6242 73.7912 66.7345 71.3302 66.8365C70.9645 66.8513 70.8156 66.9122 70.6359 66.9764C70.5739 66.9978 70.5305 67.0275 70.4499 67.0423C70.3693 67.0555 70.2515 67.0555 70.1523 67.0588C68.1067 67.1476 66.0612 67.2382 64.0155 67.3271C63.6188 67.3188 63.532 67.4143 63.3398 67.4719C63.2716 67.4917 63.2221 67.518 63.1416 67.5312C63.0548 67.5444 62.943 67.5427 62.8377 67.546C61.2012 67.6168 59.5647 67.6925 57.922 67.7584C57.5439 67.7732 57.4695 67.8571 57.2649 67.9147C57.1967 67.9328 57.1286 67.9608 57.048 67.9658C56.0252 68.0135 55.0024 68.0579 53.9796 68.1007C53.6387 68.1156 53.6387 68.1139 53.0374 68.2769C52.9692 68.295 52.8885 68.3148 52.8018 68.3197C51.2706 68.3888 49.7334 68.4547 48.1961 68.5222C47.9977 68.5304 47.8614 68.5699 47.7622 68.6259C47.663 68.6818 47.5204 68.7181 47.3221 68.7263C46.0947 68.7806 44.8672 68.8366 43.6398 68.886C43.2989 68.8991 43.0758 68.9403 42.927 69.0144C42.8155 69.0703 42.6791 69.0983 42.4621 69.1082C41.2348 69.1609 40.0074 69.2185 38.7738 69.2646C38.4143 69.2777 38.2283 69.3337 38.0795 69.4028C37.9617 69.4588 37.8253 69.4786 37.596 69.4884C35.3458 69.5839 33.0895 69.6794 30.8455 69.7847C30.4674 69.8028 30.2751 69.7452 30.0272 69.7041C29.6739 69.6465 29.3454 69.5839 29.3454 69.4555C29.3454 69.4358 29.24 69.4127 29.1656 69.3963C28.6139 69.2728 28.6139 69.2728 28.5271 69.1411C28.4775 69.0605 28.4217 68.9781 28.3784 68.8958C28.2978 68.7609 28.0993 68.7263 27.529 68.751C27.3245 68.7592 27.1199 68.7707 26.9154 68.7773C26.6116 68.7888 26.3823 68.7345 26.3265 68.6357C26.2955 68.5814 26.2584 68.5271 26.2274 68.4728C26.5373 68.4596 26.531 68.458 27.0765 68.2588C27.3059 68.1748 27.306 68.1748 26.8659 68.0909C26.6985 68.0596 26.5373 68.025 26.3575 67.9954C26.2769 67.9822 26.1716 67.974 26.0848 67.9773C25.5703 67.997 25.062 68.0201 24.5537 68.0431C23.7355 68.0794 23.7354 68.0793 22.9047 67.9114C22.8365 67.8983 22.7311 67.8736 22.7435 67.8604C22.8117 67.7995 22.9791 67.7732 23.1898 67.7666C23.4998 67.7567 23.8035 67.7402 24.1073 67.7271C24.3118 67.7188 24.5164 67.709 24.7209 67.7007C24.9131 67.6382 25.1116 67.5773 25.2913 67.5131C25.5765 67.4143 25.5764 67.411 25.1859 67.3419C24.9379 67.2958 24.6714 67.2546 24.4172 67.2118C24.1135 67.225 23.8035 67.2398 23.4998 67.2513C23.1155 67.2662 22.9605 67.2349 22.8613 67.1279C22.7745 67.034 22.8799 66.9534 23.1774 66.9336C23.4812 66.9139 23.7664 66.9007 23.9214 66.8168C24.0702 66.7361 24.3305 66.7048 24.6528 66.6982C24.8574 66.6933 25.062 66.6818 25.2665 66.6719C25.5331 66.6587 25.6757 66.5748 25.6199 66.481C25.5889 66.42 25.5269 66.369 25.2851 66.3559C24.2127 66.2982 24.2003 66.2999 23.6672 66.1879C23.6176 66.1781 23.5805 66.1484 23.5991 66.1336C23.6301 66.1089 23.6983 66.0727 23.7727 66.0678C24.4855 66.0316 25.1984 65.9986 25.9112 65.974C26.1468 65.9657 26.3204 65.9542 26.401 65.8933C26.5125 65.8093 26.4629 65.732 26.246 65.6743C26.1778 65.6562 26.0661 65.6332 25.9917 65.6348C25.1735 65.6645 24.3615 65.7023 23.5432 65.732C23.4688 65.7353 23.3325 65.7073 23.3015 65.6859C23.2395 65.6464 23.3325 65.5937 23.5494 65.5756C23.8346 65.5509 24.1259 65.5492 24.3181 65.4669C24.5846 65.3501 24.9131 65.2431 25.2107 65.1311C25.2603 65.1114 25.341 65.0735 25.3224 65.0702C25.1674 65.034 24.9876 65.006 24.8264 64.9714C24.5537 64.9138 24.5536 64.8332 24.6156 64.7558C24.6652 64.6933 24.8512 64.6686 25.0805 64.6686C25.1797 64.6686 25.3037 64.6686 25.3843 64.6538C25.595 64.6175 25.6632 64.5714 25.5578 64.5369C25.4959 64.5171 25.3843 64.4891 25.31 64.4924C23.9834 64.5468 22.6505 64.5994 21.3302 64.6669C20.9397 64.6867 20.76 64.6241 20.5245 64.5797C20.3447 64.5451 20.1772 64.5319 19.9541 64.5566C19.7433 64.5797 19.5388 64.5665 19.4086 64.5122C19.3033 64.4677 19.4892 64.4299 19.9913 64.3871C20.0843 64.3789 20.1896 64.3739 20.2578 64.3574C20.9769 64.1797 20.9768 64.178 21.4728 64.155C21.9563 64.1336 21.9564 64.1319 22.2105 64.0365C22.3283 63.992 22.4584 63.9476 22.57 63.9015C22.6134 63.8834 22.6878 63.8504 22.663 63.8406C22.5267 63.7895 22.3406 63.778 22.1237 63.7895C21.6402 63.8175 21.0699 63.7945 20.8158 63.9509C20.7166 64.0101 20.5616 64.0266 20.3385 64.0365C18.0945 64.1319 15.8504 64.234 13.6002 64.3262C13.2345 64.341 13.0672 64.4019 12.9247 64.4694C12.8007 64.5254 12.6643 64.5418 12.4287 64.5517C12.1932 64.5616 12.0071 64.5665 11.8707 64.5122C11.7902 64.4793 11.8584 64.4332 12.0443 64.3871C12.3109 64.3212 12.2613 64.2389 12.1745 64.1616C12.1125 64.1105 11.9203 64.0743 11.7158 64.0776C11.412 64.0842 11.1208 64.1023 10.8666 64.0365C10.7178 63.9986 10.5318 63.9722 10.3645 63.9393C10.0421 63.8718 9.71977 63.8027 9.26725 63.8471C8.95731 63.8307 8.74035 63.7714 8.49239 63.7253C8.07707 63.6496 8.03988 63.6381 8.33742 63.5574C8.67216 63.4669 8.41176 63.3484 8.59773 63.2595C8.79609 63.164 9.06893 63.0801 9.31069 62.9912C9.37267 62.9681 9.42849 62.9467 9.49048 62.9237C9.3479 62.8907 9.21775 62.8496 9.05038 62.8265C8.83342 62.7969 8.72184 62.7607 8.73423 62.6586C8.69084 62.6438 8.70931 62.6817 8.7589 62.6916C8.81469 62.7014 8.95117 62.6932 9.01936 62.6817C9.19293 62.6504 9.27962 62.6093 9.23623 62.5747C9.21143 62.5566 9.09374 62.5335 9.01936 62.5335C8.88298 62.5335 8.76522 62.5697 8.72803 62.6586C8.03376 62.7261 7.31458 62.7591 6.59551 62.7854C6.52112 62.7887 6.4282 62.7558 6.34141 62.7393C6.05626 62.6833 6.05623 62.685 5.21938 62.6685C5.1326 62.6669 5.01488 62.6438 4.97149 62.6208C4.79172 62.5204 4.79797 62.4101 4.71119 62.3031C4.87236 62.2339 5.0334 62.1664 5.20077 62.099C5.53551 61.9623 5.96952 61.8422 6.22987 61.6924C6.17409 61.6117 6.09969 61.531 6.37244 61.4652C7.14729 61.3829 7.14114 61.3829 7.3519 61.3039C7.95319 61.08 8.54824 60.8545 9.17433 60.6339C9.3417 60.5763 9.34172 60.545 9.04418 60.5203C8.95119 60.5137 8.85188 60.5121 8.7527 60.5154C8.44276 60.5269 8.13282 60.5565 7.82908 60.5499C7.52533 60.545 7.30217 60.4726 7.05422 60.4281C6.80007 60.382 6.54593 60.3343 6.29177 60.2866C6.00043 60.2915 5.70914 60.3376 5.41779 60.2635C5.19463 60.2059 4.9157 60.1647 4.66155 60.117C4.85371 59.9919 5.2133 59.8964 5.49225 59.7861C5.7464 59.6857 5.75246 59.6874 6.43433 59.61C6.75667 59.5738 6.86826 59.3878 6.59551 59.3334C6.26697 59.2676 5.91991 59.2067 5.58517 59.1441C5.29382 59.1491 4.99634 59.1935 4.71739 59.1195C4.50043 59.0635 4.25243 59.0256 3.8929 59.047C3.28541 59.0832 2.66554 59.1013 2.05186 59.131C1.84109 59.1408 1.61167 59.1343 1.51869 59.0783C1.4567 59.0388 1.63648 58.9845 1.84104 58.9729C2.15098 58.9565 2.4299 58.9367 2.58487 58.8544C2.73364 58.7721 3.00636 58.7474 3.3287 58.7359C3.41549 58.7326 3.51474 58.7128 3.55813 58.6931C3.78129 58.5976 4.02926 58.5153 4.50658 58.5186C4.70494 58.4857 4.81025 58.4445 4.74826 58.405C4.71107 58.3836 4.58096 58.3556 4.50658 58.3589C3.99207 58.3754 3.47759 58.3919 2.97548 58.4215C2.73992 58.4347 2.56006 58.4379 2.41129 58.3886C2.30591 58.3556 2.36169 58.3112 2.56005 58.2635C2.73362 58.2223 2.78327 58.1746 2.77087 58.1186C2.73987 57.9886 2.55387 57.9507 1.95878 57.9589C1.53106 57.9655 1.42568 57.9441 1.33269 57.8322C1.3079 57.8058 1.24602 57.7696 1.28941 57.7515C1.55596 57.6396 1.72954 57.5013 2.23165 57.4486C2.43001 57.4289 2.64069 57.4289 2.76466 57.3861C2.88864 57.3433 3.00027 57.2939 3.13045 57.2527C3.29162 57.2033 3.40309 57.1573 3.3287 57.126C3.20473 57.07 3.00643 57.0651 2.77707 57.0848C2.57871 57.1013 2.36795 57.1029 2.16339 57.1128C1.79766 57.1309 1.50018 57.0881 1.45679 57.0157C1.33901 56.8247 1.215 56.6354 1.10962 56.4445C1.09722 56.4214 1.12813 56.3918 1.17772 56.372C1.35129 56.3029 1.53733 56.2371 1.71709 56.1696C1.92785 56.0922 2.26265 56.107 2.54779 56.0922C2.95072 56.0708 2.95058 56.0724 3.48988 55.9144C3.70064 55.8519 4.06639 55.8766 4.28335 55.8206C4.35154 55.8025 4.45692 55.7729 4.43832 55.7564C4.41353 55.735 4.28962 55.7185 4.19663 55.7087C4.10985 55.6988 4.00449 55.6938 3.91151 55.6988C2.78332 55.7465 1.66136 55.7976 0.533168 55.8436C0.341003 55.8519 0.130236 55.8157 0.062049 55.7646C-0.00613831 55.7169 0.0123977 55.6593 0 55.6049C0.179767 55.5375 0.38425 55.4749 0.539221 55.4025C0.656999 55.3465 0.793398 55.3218 1.02895 55.3185C1.3389 55.3136 1.64267 55.2938 1.98981 55.279C2.63449 55.0387 3.26673 54.7868 3.961 54.5465C4.23995 54.4494 4.17187 54.3506 4.22766 54.2469C4.28345 54.1514 4.69875 54.1662 4.97769 54.1383C5.20085 54.1152 5.27514 54.0625 5.18836 54.0263C5.13877 54.0049 5.02725 53.9802 4.94047 53.9802C4.7359 53.9802 4.53135 53.995 4.32679 54.0033C4.12222 54.0115 3.88668 54.0066 3.71931 54.0345C3.55814 54.0609 3.4527 54.1168 3.34732 54.1646C3.22954 54.2173 3.07468 54.2354 2.83912 54.2387C2.53538 54.242 2.23165 54.2568 1.92791 54.2683C1.59317 54.2041 1.24596 54.1415 0.923623 54.0741C0.861634 54.0609 0.84917 54.023 0.855369 53.9983C0.867766 53.9341 0.774808 53.8946 0.570246 53.8633C0.396678 53.837 0.254092 53.7992 0.0929222 53.7662C0.216899 53.7218 0.353322 53.679 0.452504 53.6312C0.669464 53.5308 0.942243 53.4584 1.41336 53.4617C1.59932 53.3975 1.74805 53.3185 1.98981 53.274C2.21916 53.2312 2.60971 53.274 2.78328 53.1769C2.87006 53.1292 3.00031 53.0748 3.16768 53.0551C3.43423 53.0238 3.78136 53.0403 3.93633 52.9481C4.02931 52.8954 4.16563 52.8477 4.3454 52.8345C4.54996 52.8197 4.76067 52.8164 4.90944 52.7851C4.99003 52.7687 5.07682 52.7423 5.07682 52.7193C5.07682 52.7045 4.95294 52.6814 4.86616 52.6715C4.78557 52.66 4.68007 52.6518 4.58709 52.6551C4.27715 52.665 3.97341 52.6831 3.66347 52.6929C3.57668 52.6962 3.47753 52.6847 3.38455 52.6748C3.1118 52.6485 3.13036 52.6156 3.34732 52.5563C3.56428 52.4987 3.71933 52.4246 3.8991 52.3571C4.09746 52.3456 4.34538 52.3505 4.48176 52.3193C4.71111 52.2682 4.87224 52.1942 5.05821 52.13C5.26277 52.1201 5.47352 52.1168 5.66568 52.0987C5.74627 52.0921 5.78349 52.0559 5.85168 52.0345C5.97566 51.9933 6.08112 51.9341 6.24849 51.9143C6.52124 51.8847 6.85597 51.8962 7.01714 51.8057C7.11012 51.753 7.25264 51.697 7.42621 51.6938C7.90972 51.6872 8.11429 51.5966 8.36224 51.511C8.54821 51.4468 8.94495 51.4797 9.14951 51.4155C9.28588 51.3744 9.38513 51.3234 9.5215 51.2838C9.57729 51.2674 9.69503 51.2592 9.78801 51.2542C10.2963 51.2295 10.8108 51.2114 11.3191 51.1851C11.3997 51.1801 11.4741 51.1555 11.5361 51.1357C11.6663 51.0929 11.7468 51.0336 11.908 51.0057C12.0691 50.9777 12.2985 50.9777 12.4968 50.9694C13.1353 50.9448 13.1849 50.9513 13.4763 50.8114C13.7119 50.6978 14.2884 50.7785 14.4806 50.6534C14.5922 50.581 14.7966 50.5217 15.1624 50.5135C15.6769 50.5019 16.1852 50.4707 16.6997 50.4493C17.1584 50.4295 17.1522 50.4295 17.6481 50.2764C17.8713 50.2073 18.1999 50.2172 18.4912 50.204C18.8012 50.1908 19.0863 50.1711 19.2351 50.0888C19.3838 50.0081 19.6565 49.9818 19.9727 49.9702C20.264 49.9587 20.5926 49.967 20.822 49.9011C21.3799 49.7431 21.3737 49.7414 21.7642 49.725C22.3779 49.6986 22.9916 49.6723 23.6053 49.6443C24.0144 49.6262 24.4421 49.6229 24.8264 49.5867C25.1054 49.5604 25.2293 49.4682 25.4091 49.404C25.9174 49.3793 26.4257 49.3546 26.934 49.3315C27.6468 49.2986 28.3659 49.269 29.085 49.2377C29.3949 49.1752 29.4384 49.0369 29.9591 49.0303C30.269 49.027 30.5728 49.0056 30.8827 48.9924C31.3972 48.9694 31.9055 48.9398 32.42 48.9282C32.8105 48.92 32.8786 48.8311 33.0832 48.7751C33.1514 48.7554 33.2134 48.7274 33.294 48.7225C34.0998 48.6764 34.9304 48.6665 35.7177 48.599C35.7983 48.5924 35.8727 48.5579 35.8913 48.5332C35.9037 48.52 35.7983 48.4953 35.7301 48.4838C35.6495 48.4706 35.5442 48.4575 35.4574 48.4607C32.8973 48.571 30.3372 48.683 27.7771 48.7933C27.4176 48.8097 27.4176 48.8081 26.5435 48.9891C26.4691 49.004 26.3823 49.0204 26.2893 49.0254C25.8801 49.0451 25.4648 49.0566 25.0619 49.0813C24.7334 49.1011 24.4607 49.0813 24.2252 49.0221C24.0578 48.9793 23.8841 48.9661 23.6734 48.9694C23.4378 48.9743 23.2829 48.9924 23.1466 49.0369C22.9668 49.0978 22.8738 49.1768 22.4957 49.1933C20.7538 49.264 19.0118 49.3431 17.2761 49.4188C17.0344 49.3957 16.9166 49.3612 16.9786 49.32C17.0158 49.2953 17.0902 49.2624 17.1646 49.2591C17.8774 49.2245 18.5965 49.1949 19.3094 49.162C19.4085 49.1571 19.5449 49.1603 19.6007 49.1439C19.8734 49.0698 19.9727 48.9496 20.4872 48.9414C20.7848 48.9365 21.0885 48.9118 21.3736 48.8887C21.4542 48.8822 21.5286 48.8476 21.5472 48.8229C21.5534 48.8097 21.4542 48.785 21.3798 48.7735C21.1071 48.7258 20.791 48.7834 20.5183 48.7505C20.4253 48.7389 20.295 48.7225 20.2764 48.7027C20.264 48.6846 20.3694 48.655 20.4438 48.6369C20.512 48.6204 20.6049 48.6056 20.6979 48.6007C21.5161 48.5628 22.3345 48.5233 23.1528 48.4937C23.4875 48.4821 23.723 48.441 23.8718 48.3653C23.9834 48.3093 24.1197 48.2797 24.3305 48.2714C25.7624 48.2105 27.1943 48.143 28.6325 48.0871C28.992 48.0739 29.178 48.0196 29.3268 47.9488C29.4446 47.8928 29.581 47.8731 29.8103 47.8632C31.8621 47.7776 33.9015 47.6821 35.9533 47.5998C36.3315 47.585 36.4431 47.5142 36.6353 47.4533C36.7035 47.4319 36.7467 47.4056 36.8335 47.3924C36.9203 47.3792 37.0319 47.3809 37.1373 47.3776C38.7738 47.3068 40.4104 47.2311 42.0531 47.1652C42.4374 47.1504 42.5117 47.0681 42.71 47.0105C42.7782 46.9924 42.8402 46.9628 42.9208 46.9578C44.1482 46.9019 45.3755 46.8492 46.6029 46.7949C47.4212 46.7586 48.2394 46.7224 49.0576 46.6879C49.4606 46.6714 49.4606 46.6697 50.0061 46.5134C50.0681 46.4952 50.1549 46.4738 50.2355 46.4689C52.5911 46.3636 54.9404 46.2632 57.2959 46.1595C57.4943 46.1512 57.6368 46.1133 57.736 46.0574C57.8352 46.0014 57.9779 45.9635 58.1701 45.9553C60.0111 45.873 61.8521 45.7924 63.6994 45.715C64.0341 45.7018 64.2696 45.6623 64.4184 45.5882C64.53 45.5323 64.6664 45.5026 64.8771 45.4944C66.7182 45.4154 68.5593 45.3314 70.4066 45.2557C70.7599 45.2409 70.9334 45.1849 71.107 45.1191C71.169 45.096 71.2186 45.0582 71.293 45.0549C72.2104 45.0088 73.1216 44.9611 74.0452 44.9298C74.4296 44.9166 74.5598 44.8475 74.7148 44.7816C74.8387 44.7289 74.9813 44.7108 75.2169 44.7043C75.7314 44.6894 76.2397 44.6615 76.7418 44.6335C76.8162 44.6285 76.9092 44.5923 76.9154 44.5693C76.9278 44.5265 76.7851 44.4969 76.5496 44.482C74.0948 44.589 71.634 44.696 69.1792 44.803C68.7763 44.8211 68.7763 44.8211 68.2308 44.9775C68.1688 44.9956 68.0819 45.017 67.9952 45.022C65.6396 45.1257 63.2903 45.2277 60.9347 45.3314C60.7364 45.3397 60.5938 45.3775 60.4946 45.4335C60.3955 45.4895 60.2528 45.5273 60.0606 45.5356C57.8104 45.6343 55.5603 45.7348 53.3039 45.8286C52.9692 45.8417 52.7337 45.8796 52.5849 45.9553C52.4733 46.0113 52.3369 46.0409 52.1262 46.0492C49.9752 46.1413 47.8303 46.2385 45.6731 46.3273C45.4561 46.3356 45.2951 46.2878 45.3074 46.2434C45.3136 46.2203 45.4065 46.1825 45.4809 46.1792C46.6029 46.1249 47.7188 46.0689 48.847 46.0278C49.2251 46.0146 49.3366 45.9422 49.5288 45.8812C49.5907 45.8598 49.6404 45.8319 49.721 45.8203C49.8077 45.8072 49.9193 45.8088 50.0247 45.8055C52.684 45.6887 55.3434 45.5701 58.0089 45.4598C58.3932 45.4434 58.4675 45.3627 58.6659 45.3051C58.734 45.2853 58.7961 45.2557 58.8767 45.2524C59.6949 45.2129 60.5131 45.1784 61.3314 45.1438C62.7633 45.0812 64.1952 45.0187 65.6334 44.9561C66.0487 44.938 66.0487 44.938 66.5818 44.7833C66.6438 44.7652 66.7306 44.7421 66.8112 44.7388C70.5987 44.5726 74.3863 44.4063 78.1738 44.2417C78.3721 44.2335 78.5147 44.1956 78.6139 44.1396C78.713 44.0853 78.8556 44.0458 79.0478 44.0359C84.168 43.8121 89.2821 43.5882 94.4023 43.3676C94.7371 43.3528 94.9726 43.3182 95.1213 43.2408C95.2267 43.1849 95.3693 43.1553 95.58 43.1454C101.209 42.9001 106.837 42.6548 112.472 42.4079C116.259 42.2433 120.047 42.0754 123.834 41.9141C124.182 41.8993 124.367 41.8482 124.541 41.7807C124.597 41.7577 124.653 41.7198 124.727 41.7165C125.539 41.6754 126.351 41.6375 127.163 41.5997C127.417 41.6441 127.671 41.6869 127.926 41.7314C128.118 41.6688 128.304 41.6046 128.496 41.542C129.723 41.4943 130.932 41.4202 132.172 41.3972C132.252 41.3955 132.339 41.4268 132.426 41.4433C133.002 41.547 133.331 41.5388 133.697 41.4005C133.827 41.3511 133.938 41.3067 134.137 41.2984C134.751 41.2688 135.371 41.249 135.978 41.2145C136.307 41.1964 136.579 41.2128 136.815 41.2721C136.982 41.3149 137.156 41.333 137.36 41.3231C138.489 41.2737 139.611 41.226 140.739 41.1733C140.819 41.17 140.894 41.142 140.956 41.1223C141.086 41.0795 141.197 41.0334 141.321 40.9889C141.489 41.0169 141.675 41.0383 141.811 41.0745C141.985 41.1173 142.146 41.1173 142.381 41.1058C146.882 40.9066 151.388 40.7124 155.889 40.5116C156.273 40.4951 156.44 40.5642 156.701 40.6005C156.788 40.6136 156.874 40.6301 156.967 40.6334C157.066 40.6367 157.172 40.6268 157.271 40.6219C160.649 40.4737 164.028 40.3272 167.406 40.179C167.853 40.1593 167.853 40.1593 168.516 40.2613C168.596 40.2745 168.702 40.2893 168.789 40.2844C170.326 40.2202 171.863 40.1511 173.394 40.0852C173.593 40.077 173.76 40.1033 173.94 40.1412C174.293 40.2153 174.318 40.2153 174.578 40.1066C174.702 40.0556 174.832 40.0243 175.037 40.0095C175.26 39.993 175.44 39.998 175.613 40.0276C175.861 40.0688 176.041 40.1379 176.419 40.1198C178.056 40.0424 179.698 39.9782 181.329 39.8992C181.701 39.8811 181.899 39.9371 182.147 39.9782C182.234 39.993 182.314 40.0161 182.407 40.021C182.5 40.026 182.612 40.0144 182.711 40.0095C184.757 39.9206 186.808 39.8334 188.848 39.7379C189.232 39.7198 189.4 39.7906 189.66 39.8268C189.747 39.8399 189.846 39.863 189.927 39.8597C191.154 39.8087 192.388 39.7543 193.615 39.7C194.055 39.6803 194.055 39.6819 194.724 39.7823C194.805 39.7955 194.91 39.8087 194.997 39.8054C196.429 39.7445 197.867 39.6819 199.299 39.6194C199.739 39.5996 199.739 39.5996 201.01 39.6852C201.103 39.6918 201.202 39.7017 201.295 39.6984C202.932 39.6276 204.574 39.5585 206.211 39.4827C206.539 39.4679 206.812 39.4811 207.048 39.5403C207.215 39.5831 207.389 39.6013 207.593 39.5914C209.434 39.5107 211.282 39.4334 213.117 39.3478C213.47 39.3313 213.699 39.3675 213.947 39.4152C214.028 39.4317 214.108 39.4547 214.201 39.4613C214.294 39.4679 214.4 39.4613 214.499 39.4564C216.34 39.3757 218.187 39.3 220.022 39.2128C220.394 39.1947 220.592 39.2506 220.84 39.2918C220.927 39.3066 221.02 39.3362 221.094 39.3346C221.813 39.3066 222.532 39.2819 223.245 39.2408C223.63 39.2177 223.797 39.2934 224.057 39.3296C224.144 39.3412 224.243 39.3659 224.324 39.3626C225.861 39.2984 227.399 39.2309 228.93 39.1617C229.147 39.1519 229.308 39.1667 229.481 39.2095C229.711 39.2671 229.977 39.2901 230.312 39.272C231.025 39.2342 231.744 39.2078 232.463 39.1766C232.885 39.1584 232.885 39.1585 234.174 39.244C234.267 39.2506 234.366 39.2605 234.459 39.2572C235.686 39.2045 236.92 39.1535 238.141 39.0959C238.47 39.0794 238.743 39.0942 238.978 39.1535C239.145 39.1963 239.313 39.2144 239.524 39.2045C240.652 39.1552 241.774 39.1058 242.902 39.0564C243.311 39.0383 243.72 39.007 244.129 39.007C244.427 39.0086 244.644 39.0877 244.91 39.1272C244.985 39.1387 245.109 39.1255 245.208 39.1222C246.64 39.0597 248.078 39.0021 249.504 38.9313C249.876 38.9132 250.074 38.9691 250.322 39.0103C250.409 39.0251 250.502 39.0547 250.576 39.0531C251.091 39.035 251.599 39.0103 252.113 38.9889C252.727 38.9626 253.347 38.9428 253.954 38.9066C254.45 38.877 254.636 39.0202 255.033 39.0251C255.337 39.03 255.647 39.0021 255.95 38.9889C256.564 38.9626 257.178 38.9329 257.792 38.9099C258.008 38.9016 258.176 38.8753 258.244 38.816C258.257 38.8045 258.151 38.7798 258.083 38.765C257.259 38.5971 257.258 38.5971 256.428 38.6333C255.913 38.6564 255.405 38.6794 254.89 38.6992C254.804 38.7025 254.705 38.6893 254.618 38.6794C254.37 38.6514 254.395 38.6185 254.605 38.5593C254.816 38.5 254.977 38.4276 255.157 38.3601C255.411 38.4029 255.659 38.4457 255.913 38.4885C256.118 38.4802 256.323 38.4704 256.527 38.4621C257.55 38.4193 258.573 38.3749 259.595 38.3354C259.67 38.3321 259.763 38.365 259.85 38.3815C260.098 38.4292 260.321 38.4704 260.68 38.4522C261.598 38.4045 262.521 38.3699 263.439 38.3288C263.842 38.3107 263.842 38.3107 264.548 38.4127C264.629 38.4243 264.734 38.4374 264.821 38.4341C265.745 38.3963 266.662 38.3551 267.586 38.3156C267.784 38.3074 267.976 38.3288 268.119 38.3765C268.175 38.3963 268.162 38.4292 268.398 38.6992C269.129 38.9181 269.631 38.8951 270.14 38.8753C270.357 38.8671 270.549 38.8588 270.691 38.8259C270.766 38.8078 270.859 38.7815 270.859 38.7601C270.859 38.7436 270.722 38.7173 270.636 38.714C270.022 38.6811 269.439 38.7502 268.838 38.765C268.559 38.7716 268.317 38.714 268.268 38.6202C268.255 38.5938 268.237 38.5658 268.218 38.5395C268.199 38.5132 268.187 38.4852 268.169 38.4588C267.927 38.4506 267.784 38.4802 267.679 38.5362C267.592 38.5823 267.468 38.635 267.301 38.6597C267.133 38.686 266.904 38.6811 266.699 38.6893C266.501 38.6975 266.284 38.7189 266.098 38.7074C265.912 38.6942 265.763 38.6465 265.59 38.6169C265.509 38.602 265.41 38.5807 265.329 38.5839C264.617 38.6119 263.91 38.6399 263.203 38.6761C262.831 38.6959 262.645 38.6267 262.41 38.5839C262.224 38.551 262.038 38.5592 262.007 38.635C261.926 38.816 262.211 38.8918 262.844 38.8572C263.364 38.8276 263.835 38.8226 264.245 38.9346C264.3 38.9494 264.431 38.956 264.511 38.9527C265.019 38.9329 265.521 38.9082 266.03 38.8885C266.123 38.8852 266.222 38.8918 266.309 38.8983C267.573 38.9872 267.573 38.9889 268.001 38.9691C268.206 38.9593 268.404 38.951 268.385 38.7008C268.776 38.4325 269.396 38.4144 269.997 38.3749C270.388 38.3502 270.555 38.4226 270.809 38.4605C270.896 38.4737 270.989 38.5 271.07 38.4967C272.402 38.4424 273.729 38.3848 275.055 38.3238C275.279 38.314 275.44 38.3238 275.613 38.3666C275.836 38.421 276.084 38.4555 276.438 38.4358C277.144 38.3963 277.863 38.3716 278.582 38.3387C278.948 38.3222 278.948 38.3222 279.686 38.4243C279.766 38.4358 279.872 38.449 279.959 38.4457C280.678 38.4177 281.391 38.3831 282.104 38.3535C282.302 38.3453 282.482 38.3683 282.637 38.4127C282.792 38.4572 282.978 38.4802 283.17 38.472C283.889 38.4424 284.602 38.4095 285.314 38.3798C285.401 38.3765 285.507 38.3881 285.587 38.3996C286.343 38.5016 286.343 38.5016 286.691 38.4852C287.199 38.4605 287.72 38.449 288.222 38.416C288.711 38.3831 288.966 38.4786 289.3 38.5313C290.218 38.4934 291.141 38.4621 292.053 38.416C292.424 38.3963 292.623 38.4506 292.871 38.4934C292.958 38.5082 293.044 38.5395 293.125 38.5379C293.435 38.5313 293.739 38.5132 294.043 38.5C294.346 38.4868 294.656 38.4737 294.96 38.4605C295.307 38.5082 295.536 38.6202 296.032 38.5823C296.33 38.5593 296.646 38.5543 296.95 38.5411C297.253 38.528 297.563 38.5148 297.867 38.5016C298.072 38.4934 298.282 38.4885 298.481 38.4736C298.847 38.449 299.026 38.5296 299.287 38.5658C299.374 38.5774 299.473 38.5971 299.553 38.5938C300.167 38.5708 300.787 38.551 301.388 38.5132C301.853 38.4835 302.169 38.5329 302.498 38.6021C302.566 38.6169 302.684 38.6251 302.77 38.6218C303.489 38.5938 304.202 38.5592 304.915 38.5296C305.107 38.5214 305.293 38.5477 305.448 38.5905C305.61 38.635 305.789 38.6564 305.988 38.6481C306.7 38.6185 307.42 38.5856 308.133 38.556C308.219 38.5527 308.325 38.5658 308.405 38.579C309.099 38.6811 309.099 38.6827 309.509 38.663C309.608 38.658 309.713 38.6547 309.812 38.6498C310.321 38.6267 310.848 38.6185 311.343 38.579C311.914 38.5346 312.329 38.5905 312.732 38.6844C313.24 38.6646 313.761 38.6531 314.257 38.6202C314.629 38.5955 314.827 38.658 315.075 38.6992C315.162 38.714 315.255 38.7436 315.329 38.7403C316.048 38.7123 316.767 38.6877 317.474 38.6465C317.858 38.6235 318.026 38.6975 318.286 38.7354C318.373 38.7485 318.466 38.7716 318.546 38.7683C318.956 38.7551 319.365 38.7354 319.774 38.7173C320.251 38.6959 320.251 38.6975 320.883 38.7979C321.181 38.8457 321.479 38.8078 321.77 38.7963C322.08 38.7831 322.371 38.7732 322.619 38.8407C322.774 38.8835 322.96 38.9099 323.152 38.9033C323.561 38.8885 323.977 38.8737 324.38 38.849C324.702 38.8292 324.981 38.8424 325.216 38.9033C325.384 38.9461 325.557 38.9675 325.762 38.9576C326.679 38.9181 327.603 38.8769 328.52 38.8391C328.601 38.8358 328.713 38.8506 328.787 38.8654C328.961 38.8951 329.128 38.928 329.295 38.9609C329.698 38.9461 330.114 38.9395 330.51 38.9165C330.932 38.8934 331.316 38.8852 331.645 38.9757C331.713 38.9955 331.812 39.0235 331.893 39.0218C332.203 39.0152 332.506 38.9988 332.81 38.9856C333.114 38.9724 333.424 38.9593 333.727 38.9461C334.081 38.9872 334.304 39.1058 334.8 39.0679C335.098 39.0449 335.414 39.0399 335.717 39.0267C336.021 39.0136 336.331 38.9988 336.635 38.9872C336.734 38.984 336.846 38.9757 336.932 38.9823C337.025 38.9889 337.106 39.0119 337.186 39.0284C337.434 39.0761 337.664 39.1239 338.017 39.0959C338.315 39.0728 338.631 39.0679 338.935 39.0531C339.35 39.035 339.35 39.035 340.038 39.1387C340.317 39.1815 340.633 39.1255 340.9 39.1617C341.079 39.1864 341.234 39.2276 341.408 39.2556C341.482 39.2671 341.6 39.272 341.687 39.2687C342.096 39.2539 342.511 39.2391 342.914 39.2144C343.243 39.1947 343.516 39.2144 343.745 39.2737C343.912 39.3165 344.08 39.3346 344.29 39.3247C345.313 39.2786 346.336 39.2391 347.353 39.1881C347.7 39.17 347.979 39.1979 348.171 39.2572C348.499 39.3593 348.964 39.2391 349.305 39.3214C349.516 39.3724 349.727 39.4317 350.111 39.407C350.818 39.3642 351.537 39.3412 352.25 39.3115C352.504 39.356 352.758 39.4004 353.018 39.4449C353.427 39.4268 353.837 39.4086 354.246 39.3922C354.549 39.379 354.859 39.3642 355.163 39.3527C355.262 39.3494 355.368 39.3428 355.461 39.351C355.554 39.3593 355.628 39.3807 355.715 39.3971C356.143 39.4778 356.142 39.4794 356.849 39.4465C357.153 39.4317 357.444 39.4218 357.698 39.4877C357.934 39.5486 358.213 39.5601 358.535 39.542C359.143 39.5091 359.757 39.4844 360.376 39.4613C360.569 39.4531 360.748 39.4811 360.909 39.5239C361.151 39.5914 361.449 39.5848 361.753 39.5667C362.155 39.5436 362.552 39.5206 362.893 39.6128C362.961 39.6325 363.067 39.6605 363.141 39.6589C363.649 39.6457 364.164 39.6358 364.66 39.6045C365.156 39.5733 365.397 39.6753 365.738 39.7247C366.247 39.7033 366.761 39.6819 367.269 39.6605C367.369 39.6556 367.486 39.6408 367.573 39.649C367.939 39.6836 368.15 39.807 368.652 39.7692C368.943 39.7478 369.259 39.7412 369.563 39.7362C369.644 39.7346 369.749 39.7626 369.805 39.784C369.836 39.7955 369.805 39.8268 369.768 39.8432C369.656 39.8893 369.52 39.9321 369.42 39.9799C369.408 39.9865 369.526 40.0161 369.594 40.0292C369.761 40.0589 369.954 40.0539 370.177 40.0408C370.369 40.0292 370.567 40.0523 370.704 40.1017C370.759 40.1214 370.741 40.1544 370.623 40.263C370.623 40.3437 370.753 40.3074 370.797 40.2548C370.865 40.179 370.735 40.1543 370.487 40.1955C370.313 40.2251 370.226 40.2679 370.27 40.3025C370.295 40.3206 370.412 40.3437 370.623 40.263C371.168 40.1642 371.578 40.1461 371.987 40.128C372.092 40.1231 372.216 40.1066 372.291 40.1165C372.557 40.156 372.805 40.2037 373.065 40.2482C373.363 40.2383 373.642 40.2136 373.933 40.2778C374.342 40.3683 374.361 40.3601 374.758 40.342C374.962 40.3321 375.167 40.3239 375.371 40.3157C375.576 40.3075 375.737 40.3321 375.917 40.37C376.283 40.4474 376.314 40.4474 376.555 40.342C376.698 40.2778 376.797 40.2564 376.977 40.286C377.572 40.3865 377.578 40.393 378.086 40.3634C378.508 40.3387 378.905 40.3321 379.215 40.426C379.425 40.4918 379.494 40.477 379.661 40.4079C380.107 40.2251 380.312 40.2284 381.149 40.3601C381.539 40.4227 381.942 40.3552 382.339 40.3469C382.674 40.3404 382.909 40.3799 382.934 40.4836C382.953 40.5478 383.008 40.5939 383.232 40.6153C383.318 40.6235 383.424 40.635 383.51 40.6317C384.025 40.612 384.533 40.5889 385.048 40.5659C385.308 40.5544 385.451 40.477 385.401 40.3749C385.345 40.2663 385.444 40.2268 385.816 40.1955C386.04 40.1774 386.219 40.1807 386.399 40.2103C386.598 40.2433 386.542 40.2729 386.368 40.3321C385.953 40.477 386.002 40.5659 386.536 40.6663C386.721 40.7009 386.87 40.7321 386.914 40.7832C386.938 40.8095 386.914 40.8441 386.969 40.8638C387.273 40.9741 387.695 41.0449 388.166 41.0976C388.618 41.0532 388.928 41.1272 389.275 41.1865C389.548 41.2326 389.87 41.1931 390.162 41.1766C390.49 41.1585 390.763 41.1717 390.999 41.2326C391.166 41.2754 391.34 41.2951 391.544 41.2869C391.953 41.2688 392.369 41.2573 392.771 41.2309C393.119 41.2079 393.379 41.2408 393.596 41.2968C393.869 41.3676 394.173 41.3198 394.458 41.3297C394.842 41.3412 395.034 41.4877 395.536 41.4482C395.834 41.4252 396.144 41.4169 396.454 41.4103C396.534 41.4087 396.633 41.4367 396.702 41.4564C397.03 41.547 397.415 41.542 397.836 41.5157C398.127 41.4976 398.412 41.4811 398.698 41.5437C399.169 41.649 399.69 41.7412 400.185 41.8384C400.254 41.9141 400.204 42.003 400.557 42.0474C400.743 42.0704 400.917 42.105 401.059 42.1429C401.233 42.1873 401.394 42.1989 401.617 42.1873C402.02 42.1643 402.442 42.1593 402.839 42.1297C403.204 42.1034 403.434 42.1577 403.657 42.2087C403.836 42.2499 404.004 42.2696 404.221 42.24C404.444 42.212 404.605 42.2301 404.785 42.2746C405.039 42.3355 405.058 42.3289 405.901 42.347C405.988 42.3487 406.093 42.3733 406.142 42.3947C406.167 42.4063 406.112 42.4392 406.068 42.4557C406.012 42.4754 405.925 42.4984 405.845 42.5034C404.927 42.5462 404.004 42.584 403.086 42.6268C402.993 42.6318 402.894 42.6433 402.826 42.6598C402.752 42.6779 402.659 42.7026 402.659 42.7256C402.659 42.7421 402.783 42.7618 402.869 42.7733C403.142 42.8112 403.465 42.7536 403.731 42.7964C403.911 42.8244 404.06 42.8639 404.239 42.8902C404.314 42.9017 404.432 42.9001 404.525 42.8968C404.835 42.8853 405.138 42.8688 405.448 42.859C405.535 42.8573 405.634 42.8738 405.715 42.8869C406.31 42.9857 406.31 42.9857 406.824 42.9643C407.029 42.9561 407.246 42.9314 407.438 42.9413C407.624 42.9511 407.785 42.9956 407.953 43.0236C408.3 43.0828 408.628 43.1404 408.653 43.2688C408.665 43.3182 408.87 43.361 409.074 43.3643C409.273 43.3676 409.484 43.3495 409.688 43.3396C410.172 43.3199 410.172 43.3199 410.798 43.4203C410.971 43.4483 411.157 43.4516 411.38 43.4351C411.467 43.4285 411.573 43.4351 411.666 43.4433C411.969 43.468 411.969 43.4993 411.771 43.5586C411.492 43.6458 411.517 43.654 412.298 43.7281C412.595 43.7561 412.825 43.8088 413.073 43.8549C413.476 43.9289 413.47 43.9289 413.203 44.0261C413.141 44.0475 413.085 44.0705 413.023 44.0936C412.843 44.1577 412.701 44.2269 412.329 44.2335C411.92 44.2401 411.511 44.2664 411.102 44.2845C410.705 44.3026 410.599 44.3421 410.637 44.454C410.68 44.589 410.761 44.6038 411.474 44.6022C411.678 44.6022 411.858 44.6154 412.013 44.6598C411.938 44.7125 411.802 44.7536 411.604 44.7635C411.095 44.7882 410.581 44.8096 410.073 44.831C409.663 44.8491 409.254 44.8672 408.845 44.8853C408.591 44.8969 408.43 44.9825 408.498 45.0779C408.535 45.1323 408.566 45.1866 408.597 45.2409C408.665 45.3495 408.796 45.3775 409.211 45.3726C409.316 45.371 409.415 45.3578 409.515 45.3611C409.918 45.3726 410.11 45.5092 410.593 45.4812C410.996 45.4582 411.418 45.4532 411.814 45.4236C412.18 45.3973 412.385 45.4566 412.639 45.501C412.726 45.5158 412.819 45.5471 412.893 45.5454C413.408 45.5273 413.922 45.5092 414.424 45.478C414.66 45.4648 414.802 45.4747 414.988 45.5142C415.435 45.6096 415.447 45.6047 416.11 45.5751C416.594 45.552 416.6 45.5553 417.22 45.6557C417.393 45.6837 417.579 45.6837 417.803 45.6705C418.094 45.6541 418.398 45.6277 418.701 45.6524C418.794 45.659 418.912 45.6788 418.943 45.7002C418.962 45.715 418.875 45.7512 418.801 45.7627C418.255 45.8483 417.617 45.8335 417.021 45.8681C416.835 45.878 416.649 45.8467 416.494 45.8022C416.333 45.7578 416.16 45.7397 415.949 45.7479C415.54 45.766 415.125 45.7775 414.722 45.8039C414.375 45.8269 414.133 45.7891 413.891 45.738C413.81 45.7216 413.717 45.6903 413.637 45.6919C412.719 45.7249 411.796 45.7578 410.885 45.8039C410.519 45.8236 410.308 45.771 410.06 45.7265C409.973 45.7117 409.887 45.6804 409.806 45.6821C409.496 45.6887 409.192 45.7068 408.882 45.7199C407.754 45.7693 406.632 45.8187 405.504 45.8648C405.43 45.8681 405.337 45.8335 405.25 45.8187C405.082 45.7891 404.909 45.7611 404.735 45.7331C404.425 45.7463 404.122 45.7627 403.812 45.7726C403.589 45.7792 403.39 45.8022 403.359 45.8648C403.341 45.9059 403.545 45.9438 403.762 45.9405C403.973 45.9372 404.184 45.9175 404.357 45.9389C405.219 46.0442 405.219 46.0459 405.758 46.0245C406.229 46.0047 406.18 45.9882 406.595 46.0788C406.775 46.1183 406.936 46.1413 407.141 46.1315C407.649 46.1084 408.163 46.0854 408.678 46.0656C408.758 46.0623 408.864 46.0788 408.944 46.092C409.552 46.1907 409.552 46.194 410.054 46.1693C410.711 46.1397 410.736 46.1315 411.176 46.2319C411.48 46.301 411.759 46.2533 412.05 46.25C412.385 46.3142 412.75 46.3718 413.054 46.4442C413.414 46.5298 413.792 46.515 414.201 46.4903C414.505 46.4722 414.802 46.4656 415.05 46.5331C415.286 46.5957 415.571 46.6023 415.893 46.5858C416.185 46.571 416.482 46.5397 416.786 46.5759C416.867 46.5858 416.99 46.6105 416.984 46.6253C416.978 46.6483 416.897 46.6813 416.817 46.6912C416.247 46.7586 415.621 46.757 415.019 46.7883C414.939 46.7932 414.833 46.7751 414.753 46.7619C414.579 46.7323 414.412 46.6977 414.244 46.6665C413.941 46.6763 413.631 46.6796 413.333 46.6994C413.104 46.7142 412.93 46.7126 412.763 46.673C412.608 46.6368 412.441 46.5924 412.255 46.5809C412.069 46.5693 411.852 46.594 411.647 46.6039C411.443 46.6138 411.207 46.6088 411.046 46.6352C410.885 46.6615 410.785 46.7191 410.68 46.7652C410.562 46.8163 410.401 46.8327 410.165 46.8377C409.949 46.8426 409.775 46.836 409.614 46.7899C409.546 46.7702 409.453 46.7553 409.36 46.7422C409.273 46.7306 409.174 46.7125 409.093 46.7158C408.169 46.7537 407.252 46.7949 406.328 46.8344C405.87 46.8541 405.876 46.8541 404.921 46.757C404.835 46.7488 404.729 46.7372 404.642 46.7405C404.128 46.7603 403.62 46.7833 403.105 46.8064C402.584 46.8294 402.591 46.8261 401.704 46.7224C401.543 46.7027 401.307 46.729 401.115 46.7257C400.712 46.7175 400.514 46.5792 400.043 46.6056C399.64 46.6286 399.218 46.6335 398.815 46.6632C398.45 46.6895 398.239 46.6319 397.991 46.5874C397.904 46.5726 397.811 46.5397 397.737 46.543C396.813 46.5792 395.896 46.6204 394.668 46.6253C394.365 46.6253 394.501 46.6599 394.699 46.6714C394.985 46.6895 395.078 46.6549 394.923 46.5891C394.811 46.543 394.65 46.5199 394.52 46.5315C394.451 46.538 394.365 46.5693 394.668 46.6253C394.991 46.6879 394.972 46.7224 395.028 46.7422C395.164 46.7899 395.357 46.8097 395.555 46.8031C395.865 46.7916 396.169 46.7751 396.479 46.7652C396.565 46.7619 396.671 46.7735 396.751 46.7866C397.433 46.8887 397.439 46.8953 398.165 46.8558C398.394 46.8442 398.561 46.8442 398.741 46.8755C398.989 46.9183 399.169 46.9907 399.547 46.9677C400.049 46.9364 400.564 46.9183 401.078 46.9002C401.159 46.8969 401.245 46.9266 401.338 46.9397C401.592 46.9792 401.778 47.0533 402.157 47.022C402.448 46.9973 402.764 46.9907 403.074 46.9858C403.155 46.9842 403.279 47.0105 403.316 47.0319C403.39 47.0698 403.297 47.1142 403.086 47.1455C403 47.1587 402.882 47.1554 402.783 47.1603C402.374 47.1784 401.964 47.1981 401.555 47.213C401.338 47.2212 401.134 47.2459 401.109 47.3068C401.09 47.348 401.314 47.3842 401.524 47.3809C401.834 47.3759 402.144 47.3628 402.442 47.3414C402.969 47.3052 403.427 47.315 403.855 47.4187C404.159 47.4912 404.14 47.4648 404.463 47.6788C404.543 47.7332 404.785 47.7381 404.996 47.7348C405.504 47.7266 405.74 47.7513 405.696 47.8023C405.64 47.8648 405.461 47.8846 405.231 47.8928C404.822 47.906 404.413 47.9274 404.004 47.9455C403.905 47.9504 403.793 47.9603 403.7 47.957C403.607 47.9537 403.52 47.934 403.44 47.9192C403.266 47.8879 403.117 47.8401 402.931 47.8286C402.746 47.8171 402.529 47.8418 402.324 47.8517C402.119 47.8599 401.902 47.8846 401.717 47.8731C401.531 47.8615 401.376 47.8122 401.208 47.7825C401.128 47.7677 401.028 47.7447 400.948 47.7463C400.539 47.7595 400.13 47.7809 399.721 47.7973C399.218 47.8187 399.218 47.8188 398.611 47.7167C398.437 47.6871 398.258 47.6887 398.028 47.7019C397.532 47.7282 397.526 47.7233 396.621 47.6278C396.534 47.6179 396.429 47.6064 396.342 47.6113C395.418 47.6492 394.501 47.6903 393.584 47.7299C392.796 47.7644 392.796 47.7644 392.362 47.929C392.04 48.0509 392.034 48.0509 392.35 48.1068C392.604 48.1529 392.833 48.2204 393.112 48.2451C393.373 48.2681 393.695 48.1941 393.98 48.2698C394.123 48.3076 394.309 48.3488 394.489 48.3554C394.774 48.3636 395.078 48.3159 395.35 48.3883C395.487 48.4245 395.691 48.4624 395.865 48.464C396.169 48.4673 396.479 48.441 396.782 48.4295C396.875 48.4262 396.981 48.4262 397.067 48.4344C397.16 48.4443 397.241 48.464 397.321 48.4805C397.569 48.5365 397.836 48.5628 398.158 48.5348C398.685 48.4887 399.156 48.5118 399.566 48.6171C399.621 48.6319 399.758 48.6336 399.844 48.627C400.068 48.6105 400.26 48.6089 400.427 48.6402C400.495 48.6533 400.594 48.6764 400.582 48.6912C400.563 48.7159 400.489 48.7488 400.409 48.757C399.826 48.813 399.2 48.8196 398.598 48.8492C398.518 48.8525 398.419 48.8311 398.338 48.8163C398.165 48.7867 398.016 48.7373 397.83 48.7258C397.644 48.7142 397.427 48.7356 397.222 48.7439C397.018 48.7521 396.801 48.7768 396.615 48.7669C396.429 48.7554 396.255 48.7142 396.107 48.678C395.933 48.6369 395.766 48.6319 395.536 48.6484C395.239 48.6698 394.929 48.6731 394.625 48.6846C394.458 48.6533 394.29 48.6188 394.117 48.5891C394.036 48.5743 393.937 48.5562 393.85 48.5579C393.441 48.571 393.032 48.5908 392.623 48.6089C392.214 48.627 392.214 48.627 391.519 48.5249C391.439 48.5134 391.333 48.5003 391.247 48.5035C390.732 48.5233 390.224 48.548 389.709 48.5677C389.511 48.576 389.331 48.5529 389.17 48.5085C389.015 48.464 388.829 48.4393 388.637 48.4476C387.819 48.4821 387 48.5151 386.182 48.5562C385.854 48.5727 385.575 48.5579 385.351 48.4986C385.091 48.4311 384.8 48.4476 384.496 48.4607C383.808 48.4937 383.802 48.492 383.362 48.4081C383.275 48.3916 383.188 48.3603 383.108 48.362C382.395 48.3867 381.676 48.4097 380.969 48.4492C380.597 48.4706 380.399 48.413 380.151 48.3702C380.064 48.3554 379.971 48.3241 379.897 48.3274C379.382 48.3455 378.867 48.362 378.365 48.3949C377.863 48.4278 377.671 48.2747 377.293 48.2764C376.778 48.278 376.27 48.3159 375.762 48.3389C375.353 48.357 374.944 48.3751 374.535 48.3932C374.125 48.4114 373.716 48.4262 373.307 48.4476C373.09 48.4591 372.929 48.4443 372.749 48.4031C372.52 48.3488 372.247 48.306 371.999 48.2566C371.621 48.1858 371.621 48.1858 371.162 48.2056C371.063 48.2105 370.958 48.2138 370.859 48.2187C370.109 48.255 370.109 48.2517 369.154 48.148C369.111 48.143 368.999 48.1612 368.956 48.1743C368.825 48.2171 368.708 48.2632 368.59 48.3076C368.423 48.2813 368.218 48.2665 368.106 48.2286C367.79 48.1216 367.294 48.2681 366.972 48.1628C366.854 48.1233 366.65 48.0887 366.464 48.0788C366.271 48.069 366.054 48.092 365.856 48.1019C365.342 48.1266 365.342 48.1249 364.901 48.2714C364.678 48.3439 364.356 48.3307 364.065 48.3472C363.761 48.3653 363.47 48.3751 363.215 48.3076C362.986 48.2467 362.707 48.2319 362.379 48.2517C361.976 48.2764 361.56 48.2912 361.151 48.306C361.064 48.3093 360.959 48.3011 360.872 48.2912C359.924 48.1941 359.924 48.1924 359.465 48.2138C359.26 48.2237 359.05 48.227 358.851 48.2418C358.517 48.2681 358.263 48.2336 358.021 48.1809C357.94 48.1644 357.847 48.1332 357.767 48.1348C357.357 48.143 356.955 48.1579 356.552 48.1727C356.242 48.1842 355.932 48.1908 355.634 48.2138C355.138 48.2517 354.897 48.1447 354.556 48.0953C354.047 48.1167 353.533 48.1315 353.025 48.1611C352.789 48.1743 352.634 48.1694 352.454 48.1299C352.225 48.0805 352.014 48.0245 351.642 48.0492C351.146 48.0821 350.626 48.0937 350.117 48.1134C349.776 48.0624 349.528 47.9587 349.039 47.9965C348.741 48.0196 348.425 48.0245 348.121 48.0377C347.712 48.0558 347.303 48.0723 346.894 48.092C346.454 48.1118 346.46 48.1068 345.784 48.0097C345.394 47.9521 344.991 48.0163 344.594 48.0262C344.284 48.0344 344.129 48.1101 344.204 48.2072C344.278 48.3044 344.111 48.3801 343.825 48.3932C343.113 48.4245 342.393 48.4574 341.681 48.4854C341.594 48.4887 341.488 48.4772 341.408 48.4657C340.645 48.362 340.645 48.3636 340.304 48.3784C339.796 48.4031 339.275 48.4163 338.773 48.4476C338.426 48.469 338.172 48.4344 337.949 48.3784C337.775 48.3356 337.614 48.3258 337.391 48.3356C334.936 48.4459 332.481 48.548 330.033 48.6616C329.667 48.678 329.457 48.6303 329.209 48.5859C329.122 48.571 329.041 48.5398 328.954 48.5398C328.75 48.5398 328.545 48.5546 328.341 48.5645C327.423 48.604 326.506 48.6517 325.582 48.6813C325.192 48.6945 325.086 48.7702 324.919 48.8328C324.789 48.8805 324.64 48.9003 324.411 48.9068C324.188 48.9134 324.026 48.9052 323.853 48.8624C323.63 48.8064 323.375 48.7718 323.028 48.7949C322.625 48.8212 322.216 48.8328 321.801 48.8509C321.59 48.8591 321.429 48.8887 321.361 48.948C321.348 48.9579 321.479 48.9826 321.553 48.9974C321.801 49.0468 322.036 49.1044 322.315 49.139C322.601 49.1735 322.91 49.134 323.208 49.1241C323.313 49.1208 323.413 49.111 323.512 49.1126C323.605 49.1143 323.716 49.1225 323.785 49.1373C324.107 49.2114 324.448 49.2624 324.894 49.218C325.278 49.2394 325.477 49.376 325.967 49.3398C326.264 49.3184 326.574 49.3085 326.884 49.3003C326.965 49.2986 327.051 49.3283 327.138 49.3431C327.386 49.3842 327.584 49.4501 327.956 49.4221C328.353 49.3925 328.775 49.3875 329.178 49.3645C329.401 49.3513 329.562 49.3628 329.735 49.4056C329.959 49.4599 330.213 49.5011 330.56 49.4747C330.857 49.4517 331.174 49.4468 331.477 49.4319C331.874 49.4138 331.874 49.4155 332.581 49.5175C332.661 49.5291 332.767 49.5422 332.853 49.5389C333.368 49.5192 333.876 49.4945 334.391 49.4747C334.589 49.4665 334.781 49.4879 334.918 49.5357C334.973 49.5554 334.955 49.5883 334.973 49.6163C333.951 49.6608 332.928 49.6986 331.911 49.753C331.527 49.7744 331.353 49.7069 331.099 49.669C331.012 49.6558 330.919 49.6279 330.839 49.6311C330.12 49.6591 329.407 49.6887 328.694 49.725C328.471 49.7365 328.304 49.7299 328.136 49.6822C327.708 49.5554 327.188 49.6245 326.704 49.6427C326.332 49.6558 326.215 49.7069 326.258 49.8155C326.314 49.9439 326.537 49.9834 327.107 49.9604C327.312 49.9521 327.516 49.9406 327.721 49.934C327.919 49.9274 328.099 49.9488 328.26 49.9933C328.415 50.0377 328.601 50.0608 328.793 50.0542C329.202 50.0394 329.618 50.0246 330.014 49.9999C330.343 49.9801 330.616 49.9966 330.845 50.0575C331.099 50.125 331.397 50.1102 331.694 50.0953C332.389 50.0624 332.395 50.0641 332.829 50.1464C332.915 50.1628 333.002 50.1941 333.083 50.1925C333.796 50.1678 334.515 50.1464 335.215 50.1069C335.581 50.0871 335.792 50.1398 336.034 50.1826C336.12 50.1974 336.207 50.2303 336.288 50.227C336.802 50.2089 337.317 50.1908 337.819 50.1595C338.054 50.1447 338.197 50.1546 338.389 50.1941C338.848 50.2912 338.86 50.2879 339.511 50.2567C339.709 50.2468 339.926 50.2287 340.112 50.2419C340.298 50.255 340.447 50.3028 340.621 50.3324C340.701 50.3456 340.8 50.3637 340.887 50.3604C341.296 50.3472 341.705 50.3275 342.114 50.3093C342.499 50.2912 342.499 50.2929 343.218 50.395C343.509 50.4378 343.813 50.4015 344.104 50.3884C344.421 50.3735 344.706 50.3736 344.947 50.4378C345.189 50.502 345.481 50.4986 345.791 50.4855C346.082 50.4723 346.379 50.4361 346.677 50.4806C347.359 50.5826 347.359 50.5842 347.78 50.5645C348.394 50.5365 349.001 50.5102 349.621 50.4855C349.702 50.4822 349.807 50.5019 349.888 50.5151C350.061 50.5447 350.21 50.5941 350.396 50.6056C350.582 50.6188 350.799 50.5991 350.997 50.5892C351.636 50.5579 351.679 50.5464 352.107 50.655C352.467 50.7439 352.913 50.6155 353.248 50.7176C353.44 50.7752 353.7 50.8213 354.06 50.7933C354.357 50.7703 354.667 50.7637 354.977 50.7505C355.467 50.7291 355.467 50.7308 356.087 50.8295C356.167 50.8427 356.273 50.8591 356.353 50.8559C356.762 50.8427 357.178 50.8312 357.575 50.8015C358.039 50.767 358.337 50.8295 358.684 50.8904C358.957 50.9382 359.279 50.8987 359.571 50.8822C359.887 50.8657 360.172 50.8707 360.407 50.9349C360.655 51.0007 360.947 50.9925 361.257 50.9793C361.548 50.9678 361.845 50.9299 362.143 50.976C362.781 51.0781 362.781 51.0781 363.246 51.0583C363.656 51.0402 364.065 51.0205 364.474 51.0073C364.554 51.004 364.654 51.0254 364.734 51.0402C364.908 51.0699 365.056 51.1192 365.242 51.1308C365.428 51.1423 365.645 51.1209 365.85 51.1127C366.054 51.1044 366.271 51.0797 366.457 51.0896C366.643 51.0995 366.817 51.1406 366.966 51.1769C367.139 51.2197 367.3 51.2246 367.536 51.2081C367.834 51.1867 368.143 51.1818 368.447 51.1703C368.615 51.2015 368.788 51.2328 368.949 51.2674C369.117 51.3036 369.296 51.3003 369.526 51.2888C370.288 51.2493 370.294 51.2542 370.933 51.3563C371.224 51.4024 371.528 51.3645 371.819 51.353C372.129 51.3398 372.421 51.3332 372.662 51.3991C372.898 51.4616 373.189 51.4699 373.499 51.4501C373.698 51.4369 373.908 51.4287 374.113 51.4238C374.206 51.4221 374.318 51.4287 374.386 51.4419C374.714 51.511 375.037 51.5736 375.489 51.5291C375.886 51.5423 376.084 51.6773 376.562 51.651C376.964 51.6279 377.386 51.623 377.783 51.5933C378.148 51.567 378.409 51.6131 378.595 51.6707C378.93 51.7728 379.401 51.6345 379.735 51.7349C379.928 51.7925 380.175 51.8386 380.547 51.8139C380.956 51.7876 381.087 51.8221 381.204 51.9258C381.273 51.9851 381.26 52.0329 381.136 52.0789C381.012 52.1267 380.876 52.1185 380.678 52.0641C380.448 52.0032 380.176 51.9917 379.847 52.0049C379.525 52.018 379.326 51.9324 379.06 51.8995C378.793 51.865 378.477 51.9226 378.198 51.8781C377.541 51.7744 377.541 51.7744 377.095 51.7942C376.791 51.8073 376.475 51.8139 376.177 51.837C375.824 51.8649 375.595 51.8139 375.353 51.7678C375.266 51.7514 375.179 51.7201 375.105 51.7217C374.392 51.7464 373.673 51.7695 372.966 51.8106C372.594 51.832 372.396 51.7728 372.148 51.7316C372.061 51.7168 371.968 51.6872 371.894 51.6905C371.28 51.7135 370.673 51.7431 370.059 51.7711C369.941 51.8156 369.811 51.8584 369.699 51.9061C369.582 51.9555 369.421 51.9769 369.185 51.9752C368.794 51.9752 368.41 52.0444 368.02 51.9571C367.617 51.8682 367.586 51.8732 367.195 51.8946C366.699 51.9226 366.172 51.916 365.707 51.9802C365.627 51.9917 365.54 52.023 365.54 52.046C365.534 52.0608 365.664 52.0822 365.745 52.0954C366.017 52.1349 366.333 52.0773 366.606 52.1184C366.786 52.1448 366.935 52.1843 367.115 52.2123C367.189 52.2238 367.3 52.2222 367.4 52.2205C367.505 52.2189 367.604 52.2073 367.703 52.209C367.796 52.2106 367.896 52.2205 367.97 52.2353C368.311 52.2979 368.67 52.3555 368.974 52.4296C369.272 52.502 369.551 52.4526 369.848 52.4493C371.038 52.5646 371.038 52.5662 371.838 52.53C372.036 52.5217 372.241 52.5119 372.446 52.5135C372.532 52.5135 372.613 52.5431 372.7 52.5596C372.948 52.609 373.183 52.6534 373.53 52.6271C373.828 52.6041 374.144 52.5991 374.448 52.5843C374.857 52.5662 374.857 52.5662 375.551 52.6699C375.725 52.6962 375.911 52.693 376.134 52.6798C376.326 52.6683 376.524 52.693 376.661 52.7407C376.716 52.7604 376.698 52.7934 376.717 52.8213C376.103 52.8477 375.483 52.8658 374.888 52.9053C374.504 52.93 374.33 52.8592 374.076 52.8213C373.989 52.8082 373.896 52.7802 373.815 52.7835C373.208 52.8082 372.601 52.8362 371.993 52.8691C371.919 52.8724 371.826 52.9102 371.819 52.9333C371.807 52.9761 371.962 53.0172 372.185 53.0156C372.483 53.0139 372.774 52.9859 373.041 53.0534C373.264 53.1127 373.543 53.1391 373.871 53.1127C374.07 53.0979 374.28 53.0979 374.479 53.0847C375.006 53.0452 375.483 53.0534 375.88 53.1654C376.183 53.195 376.481 53.167 376.772 53.1522C376.989 53.1407 377.2 53.1292 377.355 53.1604C377.684 53.2263 378.006 53.2921 378.458 53.2477C378.948 53.2938 379.32 53.3909 379.729 53.4699C379.921 53.5078 380.07 53.5292 380.293 53.5045C380.386 53.4946 380.498 53.4946 380.597 53.4897C380.802 53.4814 381.018 53.4567 381.204 53.4666C381.39 53.4781 381.545 53.5259 381.713 53.5555C381.793 53.5703 381.886 53.595 381.967 53.5934C382.277 53.5851 382.581 53.5687 382.884 53.5555C383.188 53.544 383.492 53.5325 383.796 53.521C384.05 53.5638 384.31 53.6066 384.564 53.6494C384.973 53.6313 385.383 53.6131 385.786 53.5967C386.238 53.5769 386.238 53.5786 386.889 53.6806C387.18 53.7267 387.49 53.6971 387.769 53.6757C388.234 53.6411 388.544 53.7037 388.873 53.7695C388.941 53.7827 389.065 53.7909 389.145 53.7843C389.468 53.7613 389.746 53.7794 389.982 53.8403C390.149 53.8831 390.317 53.9029 390.521 53.8946C391.234 53.8634 391.947 53.8304 392.66 53.8024C392.747 53.7991 392.846 53.814 392.926 53.8271C393.559 53.9275 393.565 53.9325 394.03 53.9061C394.445 53.8831 394.83 53.8732 395.158 53.9638C395.226 53.9835 395.332 54.0115 395.406 54.0099C395.914 53.9934 396.429 53.9753 396.931 53.9473C397.16 53.9341 397.322 53.9391 397.501 53.9769C397.731 54.0247 397.935 54.0823 398.313 54.0609C399.361 54 399.367 54.0098 400.607 54.1234C400.694 54.1317 400.811 54.1185 400.911 54.1119C401.121 54.0955 401.276 54.1185 401.462 54.1564C401.878 54.242 401.89 54.237 402.287 54.2189C402.591 54.2041 402.907 54.2008 403.204 54.1761C403.663 54.1399 403.967 54.2041 404.308 54.265C404.58 54.3127 404.896 54.2732 405.188 54.2584C405.504 54.242 405.789 54.2469 406.025 54.3094C406.186 54.3522 406.359 54.3753 406.564 54.3671C407.277 54.3374 407.99 54.3045 408.703 54.2749C408.789 54.2716 408.895 54.2848 408.975 54.2963C409.682 54.3983 409.682 54.4033 410.383 54.3654C410.606 54.3539 410.792 54.3506 410.959 54.3852C411.12 54.4181 411.294 54.4494 411.461 54.4806C411.765 54.4691 412.075 54.4658 412.372 54.4461C412.602 54.4313 412.763 54.4379 412.943 54.4724C413.178 54.5169 413.376 54.5942 413.748 54.5564C413.941 54.5383 414.164 54.5432 414.356 54.5267C414.585 54.5053 414.74 54.5185 414.92 54.5613C415.143 54.6123 415.372 54.665 415.732 54.6387C416.129 54.609 416.55 54.6041 416.953 54.5811C417.176 54.5679 417.331 54.5811 417.511 54.6239C417.734 54.6782 417.989 54.7128 418.336 54.6914C419.042 54.6502 419.048 54.6584 419.736 54.7621C419.91 54.7885 420.096 54.7852 420.319 54.772C420.511 54.7605 420.71 54.7852 420.846 54.8329C420.976 54.8856 420.964 54.9185 420.976 54.9465ZM365.738 40.1C365.534 40.1083 365.329 40.1181 365.032 39.9749C365.013 39.9502 365.026 39.9206 364.982 39.8992C364.883 39.8548 364.728 39.8235 364.542 39.8185C364.207 39.812 363.804 39.8679 363.81 39.9107C363.817 39.9469 363.922 39.9782 364.127 40.0078C364.213 40.0194 364.282 40.0391 364.362 40.0523C364.598 40.0901 364.784 40.1642 365.125 40.1264C365.094 40.0753 365.063 40.0243 365.125 40.1264C365.094 40.1889 365.187 40.2334 365.41 40.2515C365.472 40.2564 365.565 40.2531 365.614 40.2432C365.807 40.207 365.838 40.1577 365.695 40.0276C365.67 40.049 365.689 40.0869 365.745 40.0967C365.8 40.1066 365.937 40.0984 366.005 40.0869C366.178 40.0556 366.265 40.0144 366.222 39.9799C366.197 39.9618 366.079 39.9387 366.005 39.9387C365.875 39.9387 365.757 39.9749 365.738 40.1ZM415.862 59.1902C415.41 59.2215 414.889 59.21 414.437 59.2742C414.356 59.2857 414.275 59.3153 414.269 59.3384C414.263 59.3532 414.387 59.3746 414.461 59.3861C414.629 59.4125 414.815 59.4042 415.032 59.396C415.36 59.3845 415.552 59.4602 415.806 59.4981C415.887 59.5096 415.992 59.5178 416.079 59.5145C416.581 59.4948 417.077 59.4734 417.579 59.4503C417.666 59.4454 417.759 59.4339 417.834 59.419C418.081 59.3713 418.057 59.34 417.815 59.3038C417.548 59.2643 417.338 59.1985 417.065 59.1672C416.674 59.1227 416.278 59.182 415.862 59.1902ZM380.659 60.3919C380.355 60.4051 380.058 60.4182 379.754 60.4314C379.655 60.4364 379.549 60.438 379.456 60.4446C379.264 60.4561 379.122 60.4907 379.029 60.545C379.171 60.5878 379.345 60.6125 379.537 60.6075C379.841 60.5977 380.138 60.5763 380.442 60.5713C380.771 60.5648 380.963 60.6388 381.217 60.6767C381.297 60.6882 381.397 60.6899 381.49 60.6915C381.948 60.6981 382.227 60.6125 382.141 60.4923C382.079 60.3985 381.843 60.3425 381.558 60.3541C381.26 60.3656 380.957 60.3787 380.659 60.3919ZM417.982 56.7572C418.057 56.7293 418.137 56.7095 418.174 56.6848C418.286 56.6009 418.243 56.5383 418.038 56.4725C417.79 56.3918 417.486 56.4461 417.207 56.4544C417.139 56.456 417.065 56.4906 417.028 56.512C417.003 56.5268 417.003 56.5581 417.04 56.5663C417.344 56.6321 417.666 56.693 417.982 56.7572ZM364.207 51.8946C363.91 51.9077 363.606 51.9176 363.308 51.9357C363.234 51.9407 363.166 51.9719 363.122 51.9933C363.042 52.0328 363.129 52.0872 363.383 52.0921C363.674 52.0987 363.978 52.0707 364.282 52.0575C364.666 52.0411 364.895 51.9802 364.753 51.9275C364.616 51.8765 364.43 51.8666 364.207 51.8946ZM37.9059 48.3768C38.1043 48.3686 38.3088 48.362 38.5072 48.3504C38.6931 48.3389 38.8358 48.3027 38.9288 48.2484C38.7738 48.2056 38.6002 48.1825 38.4081 48.1875C38.1043 48.1974 37.8068 48.2105 37.5093 48.227C37.3233 48.2369 37.1436 48.2731 37.1002 48.329C37.0568 48.3718 37.472 48.3965 37.9059 48.3768ZM337.992 48.1233C338.073 48.1381 338.153 48.1677 338.234 48.1677C338.432 48.1677 338.637 48.1578 338.823 48.1414C338.904 48.1348 338.965 48.1052 339.003 48.0821C339.027 48.0673 339.021 48.041 338.984 48.0278C338.804 47.9488 338.085 47.9768 337.967 48.0673C337.955 48.0838 337.986 48.1052 337.992 48.1233ZM318.435 39.1091C318.453 39.1354 318.46 39.1617 318.485 39.1881C318.534 39.2374 318.67 39.2737 318.869 39.2984C319.024 39.2572 319.104 39.2111 319.098 39.1617C319.092 39.1354 319.073 39.109 319.049 39.0827C318.999 39.0333 318.863 38.9971 318.664 38.9724C318.509 39.0119 318.435 39.058 318.435 39.1091ZM432.308 60.6783C432.252 60.6997 432.196 60.7211 432.134 60.7409C432.302 60.7886 432.457 60.8034 432.574 60.7771C432.649 60.7606 432.692 60.7359 432.748 60.7145C432.581 60.6668 432.432 60.6536 432.308 60.6783ZM428.452 60.9022C428.533 60.917 428.607 60.9368 428.694 60.9467C428.837 60.9631 428.967 60.9351 429.066 60.8759C428.985 60.8611 428.911 60.8413 428.824 60.8314C428.682 60.815 428.551 60.8429 428.452 60.9022ZM430.894 60.601C430.851 60.6405 430.938 60.6734 431.167 60.7014C431.223 60.68 431.297 60.6602 431.335 60.6372C431.397 60.5993 431.291 60.5648 431.068 60.5384C431.006 60.5582 430.95 60.5796 430.894 60.601ZM417.809 58.8264C417.765 58.8659 417.852 58.8989 418.081 58.9269C418.137 58.9055 418.212 58.8857 418.249 58.8626C418.311 58.8248 418.205 58.7902 417.982 58.7639C417.92 58.7836 417.865 58.805 417.809 58.8264ZM399.981 47.1784C399.925 47.1998 399.869 47.2212 399.807 47.241C399.975 47.2887 400.13 47.3035 400.247 47.2772C400.322 47.2607 400.365 47.236 400.421 47.2146C400.254 47.1669 400.105 47.1537 399.981 47.1784ZM382.903 40.9988C383.052 41.0103 383.176 40.9873 383.281 40.9264C383.201 40.9116 383.126 40.8918 383.039 40.8819C382.897 40.8655 382.767 40.8935 382.667 40.9527C382.748 40.9692 382.829 40.984 382.903 40.9988ZM373.834 40.612C373.778 40.6334 373.723 40.6548 373.661 40.6745C373.828 40.7223 373.983 40.7371 374.101 40.7107C374.175 40.6943 374.218 40.6696 374.274 40.6482C374.107 40.6004 373.958 40.5889 373.834 40.612ZM312.335 39.1074C312.28 39.1288 312.224 39.1502 312.162 39.17C312.329 39.2177 312.484 39.2325 312.602 39.2062C312.676 39.1897 312.72 39.165 312.775 39.1436C312.608 39.0959 312.459 39.0844 312.335 39.1074ZM6.11819 52.5003C6.0376 52.4855 5.95709 52.4707 5.8827 52.4543C5.70294 52.4987 5.64716 52.5399 5.74635 52.5711C5.80833 52.5909 5.90125 52.6024 5.98183 52.6172C6.1678 52.5728 6.21117 52.5333 6.11819 52.5003Z" fill="#FFE492"/>
<path d="M240.392 8.18452C239.679 8.2158 238.973 8.25529 238.26 8.27504C237.882 8.28492 237.745 8.35571 237.59 8.42155C237.466 8.47423 237.324 8.49069 237.094 8.50056C235.16 8.58122 233.233 8.66683 231.305 8.75078C231.063 8.72938 230.945 8.69482 231.001 8.65366C231.032 8.62897 231.106 8.5944 231.181 8.59111C232.501 8.5302 233.815 8.46764 235.142 8.41991C235.52 8.40674 235.625 8.33431 235.817 8.27504C235.879 8.25529 235.929 8.22566 236.01 8.21414C236.09 8.20097 236.208 8.20262 236.313 8.19933C238.446 8.1055 240.578 8.01332 242.711 7.91949C242.952 7.94089 243.07 7.97546 243.014 8.01661C242.983 8.0413 242.909 8.07587 242.835 8.07916C242.016 8.11373 241.204 8.1483 240.392 8.18452Z" fill="#FFE492"/>
<path d="M630.707 16.9503C630.385 16.97 629.976 16.998 629.641 16.9025C629.48 16.8564 629.306 16.8416 629.096 16.8515C628.792 16.8679 628.482 16.8811 628.172 16.891C628.092 16.8926 627.986 16.8745 627.906 16.8597C627.732 16.8301 627.583 16.7807 627.397 16.7675C627.211 16.7544 626.988 16.7906 626.796 16.7823C626.542 16.7708 626.436 16.7264 626.505 16.6852C626.542 16.6622 626.616 16.6293 626.697 16.6243C627.844 16.5634 627.85 16.5634 628.172 16.6227C628.42 16.6688 628.649 16.7198 629.003 16.6918C629.3 16.6688 629.616 16.6638 629.92 16.649C630.342 16.6292 630.342 16.6309 631.024 16.7346C631.197 16.7609 631.383 16.7593 631.606 16.7445C631.798 16.733 631.984 16.7593 632.139 16.8037C632.04 16.8597 631.898 16.8959 631.705 16.9058C631.395 16.9223 631.092 16.9338 630.707 16.9503Z" fill="#FFE492"/>
<path d="M619.296 16.4431C620.077 16.4085 620.864 16.3789 621.645 16.3394C621.968 16.3229 622.222 16.341 622.445 16.397C622.687 16.4579 622.96 16.453 623.257 16.4415C623.443 16.4349 623.623 16.4612 623.747 16.5073C623.796 16.5254 623.784 16.5583 623.802 16.5847C623.121 16.6143 622.433 16.6456 621.745 16.6719C621.664 16.6752 621.565 16.6587 621.49 16.6456C621.323 16.6176 621.18 16.5682 621.001 16.5583C620.616 16.5353 620.232 16.5797 619.841 16.5879C619.656 16.5912 619.476 16.5666 619.352 16.5221C619.302 16.5007 619.314 16.4694 619.296 16.4431Z" fill="#FFE492"/>
<path d="M337.034 2.28978C337.846 2.25357 338.658 2.21902 339.47 2.1828C339.712 2.20585 339.824 2.23876 339.774 2.27992C339.743 2.30461 339.669 2.33918 339.594 2.34247C337.97 2.41655 336.346 2.48732 334.728 2.5581C334.487 2.53506 334.375 2.50214 334.425 2.46099C334.456 2.4363 334.53 2.40173 334.604 2.39843C335.41 2.36057 336.222 2.326 337.034 2.28978Z" fill="#FFE492"/>
<path d="M211.903 11.4371C211.537 11.4403 211.153 11.5012 210.744 11.4552C210.663 11.4469 210.552 11.4206 210.558 11.4058C210.57 11.3811 210.645 11.3498 210.725 11.3399C211.079 11.2988 211.519 11.2938 211.699 11.1786C211.785 11.1193 211.946 11.0996 212.163 11.0881C212.393 11.0749 212.554 11.0798 212.734 11.1144C212.969 11.1588 213.168 11.2411 213.54 11.1983C213.558 11.2247 213.601 11.2543 213.583 11.279C213.564 11.3037 213.484 11.3267 213.409 11.3449C213.341 11.3613 213.248 11.3761 213.161 11.3811C212.752 11.4008 212.343 11.4173 211.903 11.4371Z" fill="#FFE492"/>
<path d="M534.292 11.1063C534.596 11.0932 534.912 11.0866 535.209 11.0635C535.445 11.0454 535.594 11.0569 535.78 11.0964C536.096 11.1656 536.114 11.159 536.889 11.1689C536.976 11.1705 537.081 11.1952 537.131 11.2166C537.162 11.2281 537.119 11.2594 537.081 11.2759C537.026 11.2973 536.945 11.3253 536.871 11.3253C536.381 11.3302 535.885 11.4273 535.408 11.3154C535.166 11.2594 534.899 11.2331 534.571 11.2578C534.372 11.2726 534.162 11.2792 533.957 11.2857C533.759 11.2923 533.554 11.2742 533.43 11.2248C533.251 11.1524 533.356 11.1244 533.678 11.1294C533.883 11.1327 534.087 11.1146 534.292 11.1063Z" fill="#FFE492"/>
<path d="M646.64 22.4535C647.031 22.4371 647.421 22.4173 647.818 22.4041C647.898 22.4008 647.998 22.419 648.072 22.4305C648.37 22.4799 648.326 22.5638 648.339 22.6379C648.345 22.7152 647.657 22.7778 647.365 22.7251C647.043 22.6659 646.752 22.5984 646.305 22.6346C646.132 22.6478 645.927 22.6181 645.816 22.5704C645.648 22.5013 645.741 22.4733 646.057 22.4782C646.243 22.4815 646.442 22.4634 646.64 22.4535Z" fill="#FFE492"/>
<path d="M449.839 0.0477607C450.242 0.0296533 450.645 0.00168268 451.048 3.65469e-05C451.283 -0.00160959 451.401 0.0527024 451.345 0.0922095C451.314 0.116902 451.24 0.151471 451.165 0.154763C450.36 0.194271 449.554 0.227199 448.748 0.263414C448.512 0.240368 448.395 0.205805 448.45 0.166298C448.481 0.141606 448.556 0.108682 448.63 0.103744C449.033 0.0806979 449.436 0.0658682 449.839 0.0477607Z" fill="#FFE492"/>
<path d="M638.91 17.0951C639.301 17.0786 639.697 17.0539 640.088 17.0457C640.292 17.0424 640.454 17.0802 640.479 17.123C640.491 17.1428 640.392 17.1774 640.311 17.1856C639.753 17.2416 639.152 17.2481 638.569 17.2761C638.383 17.2844 638.185 17.258 638.073 17.2119C637.906 17.1411 637.999 17.1148 638.315 17.1198C638.513 17.1214 638.712 17.1033 638.91 17.0951Z" fill="#FFE492"/>
<path d="M544.535 11.3285C544.734 11.3203 544.938 11.2989 545.13 11.3054C545.335 11.3137 545.465 11.3614 545.527 11.4091C545.595 11.4635 545.589 11.5145 545.527 11.5606C545.428 11.6396 545.329 11.6363 545.099 11.5836C544.746 11.5013 544.721 11.5112 544.021 11.5145C543.94 11.5145 543.841 11.4898 543.779 11.4684C543.686 11.4355 543.736 11.3845 543.953 11.3548C544.114 11.3334 544.337 11.3367 544.535 11.3285Z" fill="#FFE492"/>
<path d="M624.385 16.5549C624.676 16.5417 624.968 16.5203 625.259 16.5203C625.464 16.5187 625.625 16.5565 625.644 16.5977C625.65 16.6174 625.557 16.6504 625.482 16.6602C625.129 16.7047 624.732 16.708 624.348 16.7228C624.168 16.7294 623.97 16.703 623.858 16.6569C623.691 16.5878 623.79 16.5565 624.094 16.5664C624.187 16.5697 624.286 16.5598 624.385 16.5549Z" fill="#FFE492"/>
<path d="M578.533 14.5354C578.1 14.5552 577.69 14.5305 577.721 14.4877C577.765 14.4317 577.944 14.3955 578.13 14.3856C578.428 14.3691 578.726 14.356 579.029 14.3461C579.221 14.3395 579.395 14.3642 579.55 14.407C579.457 14.4597 579.314 14.4975 579.129 14.5091C578.936 14.5206 578.732 14.5272 578.533 14.5354Z" fill="#FFE492"/>
<path d="M575.692 14.3247C575.983 14.3115 576.274 14.2901 576.566 14.2901C576.77 14.2884 576.932 14.3263 576.95 14.3675C576.956 14.3872 576.863 14.4201 576.789 14.43C576.436 14.4745 576.039 14.4777 575.655 14.4926C575.475 14.4991 575.276 14.4728 575.165 14.4267C574.997 14.3576 575.097 14.3263 575.4 14.3362C575.493 14.3395 575.593 14.3296 575.692 14.3247Z" fill="#FFE492"/>
<path d="M541.021 11.3156C541.312 11.3024 541.604 11.281 541.895 11.2793C542.099 11.2777 542.261 11.3156 542.279 11.3567C542.285 11.3765 542.193 11.4078 542.118 11.4193C541.765 11.4637 541.368 11.467 540.984 11.4818C540.804 11.4884 540.606 11.4621 540.494 11.416C540.327 11.3469 540.426 11.3156 540.729 11.3254C540.822 11.3287 540.922 11.3189 541.021 11.3156Z" fill="#FFE492"/>
<path d="M539.387 11.2185C539.697 11.2053 539.796 11.1971 539.895 11.1971C540.081 11.1971 540.273 11.2168 540.385 11.2646C540.552 11.3337 540.453 11.3535 540.149 11.3568C539.759 11.3601 539.374 11.3946 538.984 11.4012C538.779 11.4045 538.618 11.365 538.606 11.3238C538.6 11.3041 538.693 11.2695 538.767 11.2629C539.027 11.2382 539.312 11.2234 539.387 11.2185Z" fill="#FFE492"/>
<path d="M573.166 1.53434C572.967 1.54257 572.757 1.56562 572.571 1.55739C572.323 1.54587 572.224 1.50143 572.286 1.46027C572.323 1.43723 572.391 1.40431 572.465 1.39937C572.862 1.37632 573.265 1.36149 573.662 1.34503C573.897 1.36972 574.003 1.40429 573.941 1.44544C573.903 1.46849 573.835 1.49977 573.761 1.50635C573.569 1.52281 573.364 1.52611 573.166 1.53434Z" fill="#FFE492"/>
<path d="M332.588 2.48385C332.78 2.48221 332.954 2.50361 333.102 2.54476C333.009 2.59744 332.873 2.632 332.687 2.64682C332.594 2.6534 332.489 2.65833 332.39 2.65998C332.197 2.66327 332.024 2.64023 331.875 2.59907C331.968 2.5464 332.111 2.51183 332.29 2.49701C332.383 2.49043 332.489 2.48879 332.588 2.48385Z" fill="#FFE492"/>
<path d="M636.792 17.0885C636.786 17.0408 637.164 16.9865 637.505 16.9881C637.685 16.9898 637.871 17.0128 637.976 17.0573C638.137 17.1248 638.044 17.1511 637.74 17.1462C637.554 17.1429 637.356 17.1708 637.17 17.1659C636.959 17.1643 636.835 17.1281 636.792 17.0885Z" fill="#FFE492"/>
<path d="M546.332 11.5277C546.326 11.5096 546.295 11.4882 546.313 11.4717C546.431 11.3812 547.144 11.3532 547.33 11.4322C547.361 11.447 547.374 11.4717 547.349 11.4865C547.312 11.5096 547.243 11.5392 547.169 11.5458C546.977 11.5623 546.779 11.5705 546.58 11.5721C546.493 11.5721 546.413 11.5442 546.332 11.5277Z" fill="#FFE492"/>
<path d="M214.108 11.1739C213.376 11.2085 213.364 11.2052 213.494 11.1229C213.612 11.0488 213.829 11.0044 214.145 11.0044C214.238 11.0044 214.337 11.0011 214.418 11.0077C214.504 11.0159 214.628 11.0323 214.647 11.0521C214.684 11.0899 214.579 11.1311 214.393 11.1591C214.312 11.1723 214.207 11.169 214.108 11.1739Z" fill="#FFE492"/>
<path d="M341.746 2.25192C341.529 2.27991 341.343 2.27004 341.207 2.21736C341.071 2.16468 341.288 2.10212 341.666 2.08731C341.765 2.08402 341.87 2.07086 341.963 2.07744C342.056 2.08238 342.149 2.10212 342.205 2.12187C342.304 2.15479 342.242 2.19925 342.044 2.23711C341.963 2.25193 341.845 2.24863 341.746 2.25192Z" fill="#FFE492"/>
<path d="M635.501 16.9651C635.557 16.9437 635.613 16.9223 635.675 16.9025C635.904 16.9305 636.003 16.9634 635.941 17.0013C635.904 17.0243 635.83 17.0441 635.774 17.0655C635.545 17.0375 635.452 17.0029 635.501 16.9651Z" fill="#FFE492"/>
<path d="M223.93 29.9133C223.93 29.8935 224.017 29.8622 224.085 29.8557C224.216 29.8441 224.377 29.8672 224.488 29.9133C224.643 29.9791 224.55 30.0137 224.265 29.9956C224.067 29.9824 223.93 29.9495 223.93 29.9133Z" fill="#FFE492"/>
<path d="M548.854 9.99524C548.934 10.0101 549.015 10.0249 549.089 10.0413C548.984 10.1022 548.854 10.1286 548.717 10.1121C548.631 10.1022 548.556 10.0825 548.476 10.0677C548.581 10.0068 548.705 9.98371 548.854 9.99524Z" fill="#FFE492"/>
<path d="M546.709 9.92131C546.833 9.89662 546.982 9.9098 547.156 9.95754C547.1 9.97894 547.05 10.0036 546.982 10.0201C546.864 10.0464 546.709 10.0332 546.542 9.98386C546.592 9.96411 546.647 9.94271 546.709 9.92131Z" fill="#FFE492"/>
<path d="M545.067 9.9935C545.148 10.0083 545.229 10.0231 545.303 10.0396C545.198 10.1005 545.074 10.1268 544.931 10.1104C544.844 10.1005 544.77 10.0807 544.689 10.0659C544.795 10.005 544.919 9.98033 545.067 9.9935Z" fill="#FFE492"/>
<path d="M543.857 9.90645C543.95 9.93937 543.901 9.97887 543.721 10.0233C543.641 10.0085 543.548 9.99699 543.486 9.97724C543.386 9.94596 543.436 9.9048 543.622 9.86035C543.696 9.87681 543.777 9.89163 543.857 9.90645Z" fill="#FFE492"/>
</svg>
